<svg width="32" height="32" viewBox="0 0 32 32" fill="none" xmlns="http://www.w3.org/2000/svg">
<g id="WPP">
<g clip-path="url(#clip0_5_244)">
<path d="M1 16C1 7.71573 7.71573 1 16 1C24.2843 1 31 7.71573 31 16C31 24.2843 24.2843 31 16 31C7.71573 31 1 24.2843 1 16Z" fill="#1C4140"/>
<g id="Vector" filter="url(#filter0_d_5_244)">
<path d="M23.0468 8.62888C22.1581 7.73157 21.0998 7.02009 19.9334 6.53591C18.7671 6.05172 17.516 5.80452 16.2532 5.80871C10.9617 5.80871 6.64906 10.1213 6.64906 15.4128C6.64906 17.1088 7.09486 18.7563 7.92832 20.21L6.57153 25.1913L11.6595 23.8539C13.0647 24.6195 14.6444 25.0266 16.2532 25.0266C21.5446 25.0266 25.8572 20.7139 25.8572 15.4225C25.8572 12.8543 24.859 10.4412 23.0468 8.62888ZM16.2532 23.3984C14.8188 23.3984 13.4136 23.0108 12.1828 22.2839L11.8921 22.1095L8.86837 22.9042L9.67275 19.958L9.47893 19.6576C8.68186 18.3852 8.25872 16.9142 8.25782 15.4128C8.25782 11.0129 11.8436 7.42716 16.2435 7.42716C18.3756 7.42716 20.3817 8.26061 21.8838 9.77245C22.6277 10.5127 23.2173 11.3934 23.6182 12.3633C24.0191 13.3332 24.2235 14.373 24.2194 15.4225C24.2388 19.8223 20.653 23.3984 16.2532 23.3984ZM20.6336 17.4286C20.3913 17.3123 19.209 16.7308 18.9958 16.6436C18.7729 16.5661 18.6178 16.5273 18.4531 16.7599C18.2883 17.0022 17.8328 17.5449 17.6972 17.6999C17.5615 17.8647 17.4161 17.8841 17.1738 17.7581C16.9315 17.6418 16.1562 17.3801 15.2453 16.5661C14.5281 15.9264 14.0532 15.1414 13.9079 14.8992C13.7722 14.6569 13.8885 14.5309 14.0145 14.4049C14.1211 14.2983 14.2567 14.1239 14.373 13.9882C14.4893 13.8525 14.5378 13.7459 14.6153 13.5908C14.6929 13.4261 14.6541 13.2904 14.5959 13.1741C14.5378 13.0578 14.0532 11.8755 13.8594 11.3909C13.6656 10.9257 13.4621 10.9839 13.3167 10.9742H12.8515C12.6868 10.9742 12.4348 11.0323 12.2119 11.2746C11.9987 11.5169 11.3784 12.0984 11.3784 13.2807C11.3784 14.463 12.241 15.6066 12.3572 15.7617C12.4735 15.9264 14.0532 18.3493 16.4567 19.3862C17.0285 19.6382 17.4743 19.7836 17.8231 19.8902C18.3949 20.0743 18.9183 20.0452 19.335 19.9871C19.8002 19.9193 20.7596 19.4056 20.9534 18.8435C21.157 18.2814 21.157 17.8066 21.0891 17.6999C21.0213 17.5933 20.8759 17.5449 20.6336 17.4286Z" fill="white"/>
</g>
</g>
<path d="M16 0.5C24.5604 0.5 31.5 7.43959 31.5 16C31.5 24.5604 24.5604 31.5 16 31.5C7.43959 31.5 0.5 24.5604 0.5 16C0.5 7.43959 7.43959 0.5 16 0.5Z" stroke="url(#paint0_linear_5_244)"/>
</g>
<defs>
<filter id="filter0_d_5_244" x="2.57153" y="5.80865" width="27.2856" height="27.3827" filterUnits="userSpaceOnUse" color-interpolation-filters="sRGB">
<feFlood flood-opacity="0" result="BackgroundImageFix"/>
<feColorMatrix in="SourceAlpha" type="matrix" values="0 0 0 0 0 0 0 0 0 0 0 0 0 0 0 0 0 0 127 0" result="hardAlpha"/>
<feOffset dy="4"/>
<feGaussianBlur stdDeviation="2"/>
<feComposite in2="hardAlpha" operator="out"/>
<feColorMatrix type="matrix" values="0 0 0 0 0 0 0 0 0 0 0 0 0 0 0 0 0 0 0.25 0"/>
<feBlend mode="normal" in2="BackgroundImageFix" result="effect1_dropShadow_5_244"/>
<feBlend mode="normal" in="SourceGraphic" in2="effect1_dropShadow_5_244" result="shape"/>
</filter>
<linearGradient id="paint0_linear_5_244" x1="1" y1="31" x2="36.7301" y2="13.5146" gradientUnits="userSpaceOnUse">
<stop stop-color="#7D6000" stop-opacity="0.71"/>
<stop offset="0.195" stop-color="#D2B556" stop-opacity="0.69"/>
<stop offset="0.355" stop-color="#9E7A04" stop-opacity="0.63"/>
<stop offset="0.525" stop-color="#DEC369" stop-opacity="0.8"/>
<stop offset="0.7" stop-color="#977400" stop-opacity="0.69"/>
<stop offset="0.855" stop-color="#D5B859" stop-opacity="0.89"/>
<stop offset="1" stop-color="#846501" stop-opacity="0.94"/>
</linearGradient>
<clipPath id="clip0_5_244">
<path d="M1 16C1 7.71573 7.71573 1 16 1C24.2843 1 31 7.71573 31 16C31 24.2843 24.2843 31 16 31C7.71573 31 1 24.2843 1 16Z" fill="white"/>
</clipPath>
</defs>
</svg>
