<svg width="246" height="34" viewBox="0 0 246 34" fill="none" xmlns="http://www.w3.org/2000/svg">
<g filter="url(#filter0_d_224_229)">
<path d="M68.0155 8.61H72.9955V14.6C72.2555 15.14 71.4655 15.5367 70.6255 15.79C69.7922 16.0367 68.9089 16.16 67.9755 16.16C66.7822 16.16 65.7022 15.9767 64.7355 15.61C63.7689 15.2367 62.9422 14.72 62.2555 14.06C61.5689 13.4 61.0389 12.6167 60.6655 11.71C60.2922 10.8033 60.1055 9.81333 60.1055 8.74C60.1055 7.65333 60.2822 6.65667 60.6355 5.75C60.9955 4.84333 61.5055 4.06333 62.1655 3.41C62.8255 2.75667 63.6222 2.24667 64.5555 1.88C65.4955 1.51333 66.5455 1.33 67.7055 1.33C68.3055 1.33 68.8655 1.38 69.3855 1.48C69.9055 1.57333 70.3855 1.70667 70.8255 1.88C71.2655 2.04667 71.6689 2.24667 72.0355 2.48C72.4022 2.71333 72.7355 2.97 73.0355 3.25L72.1655 4.59C72.0322 4.80333 71.8589 4.93333 71.6455 4.98C71.4322 5.02667 71.1989 4.97333 70.9455 4.82C70.7055 4.67333 70.4689 4.54333 70.2355 4.43C70.0089 4.31 69.7655 4.20667 69.5055 4.12C69.2455 4.03333 68.9622 3.96667 68.6555 3.92C68.3489 3.87333 67.9955 3.85 67.5955 3.85C66.9222 3.85 66.3122 3.96667 65.7655 4.2C65.2189 4.43333 64.7522 4.76333 64.3655 5.19C63.9855 5.61667 63.6922 6.13 63.4855 6.73C63.2789 7.33 63.1755 8 63.1755 8.74C63.1755 9.54 63.2889 10.2567 63.5155 10.89C63.7422 11.5167 64.0622 12.0467 64.4755 12.48C64.8889 12.9133 65.3822 13.2433 65.9555 13.47C66.5355 13.6967 67.1789 13.81 67.8855 13.81C68.3655 13.81 68.7922 13.7633 69.1655 13.67C69.5455 13.57 69.9155 13.4367 70.2755 13.27V10.83H68.6355C68.4422 10.83 68.2889 10.78 68.1755 10.68C68.0689 10.5733 68.0155 10.44 68.0155 10.28V8.61ZM77.8882 5.69V16H75.1282V5.69H77.8882ZM78.2182 2.76C78.2182 2.99333 78.1715 3.21 78.0782 3.41C77.9849 3.61 77.8582 3.78667 77.6982 3.94C77.5449 4.09333 77.3615 4.21333 77.1482 4.3C76.9415 4.38667 76.7182 4.43 76.4782 4.43C76.2515 4.43 76.0349 4.38667 75.8282 4.3C75.6282 4.21333 75.4515 4.09333 75.2982 3.94C75.1449 3.78667 75.0215 3.61 74.9282 3.41C74.8415 3.21 74.7982 2.99333 74.7982 2.76C74.7982 2.52667 74.8415 2.31 74.9282 2.11C75.0215 1.90333 75.1449 1.72333 75.2982 1.57C75.4515 1.41667 75.6282 1.29667 75.8282 1.21C76.0349 1.12333 76.2515 1.08 76.4782 1.08C76.7182 1.08 76.9415 1.12333 77.1482 1.21C77.3615 1.29667 77.5449 1.41667 77.6982 1.57C77.8582 1.72333 77.9849 1.90333 78.0782 2.11C78.1715 2.31 78.2182 2.52667 78.2182 2.76ZM86.6535 7.81C86.5802 7.92333 86.5035 8.00667 86.4235 8.06C86.3502 8.10667 86.2468 8.13 86.1135 8.13C85.9802 8.13 85.8435 8.09667 85.7035 8.03C85.5635 7.96333 85.4068 7.89333 85.2335 7.82C85.0602 7.74 84.8602 7.66667 84.6335 7.6C84.4135 7.53333 84.1568 7.5 83.8635 7.5C83.4168 7.5 83.0702 7.59333 82.8235 7.78C82.5768 7.96 82.4535 8.2 82.4535 8.5C82.4535 8.70667 82.5235 8.88 82.6635 9.02C82.8035 9.16 82.9868 9.28333 83.2135 9.39C83.4468 9.49 83.7102 9.58667 84.0035 9.68C84.2968 9.76667 84.5968 9.86333 84.9035 9.97C85.2168 10.0767 85.5202 10.2 85.8135 10.34C86.1068 10.48 86.3668 10.6567 86.5935 10.87C86.8268 11.0767 87.0135 11.33 87.1535 11.63C87.2935 11.9233 87.3635 12.28 87.3635 12.7C87.3635 13.2 87.2702 13.6633 87.0835 14.09C86.9035 14.51 86.6368 14.8733 86.2835 15.18C85.9302 15.4867 85.4902 15.7267 84.9635 15.9C84.4368 16.0733 83.8302 16.16 83.1435 16.16C82.7902 16.16 82.4402 16.1267 82.0935 16.06C81.7468 16 81.4168 15.9133 81.1035 15.8C80.7902 15.68 80.4968 15.5433 80.2235 15.39C79.9502 15.2367 79.7135 15.07 79.5135 14.89L80.1535 13.86C80.2268 13.74 80.3168 13.6467 80.4235 13.58C80.5368 13.5133 80.6802 13.48 80.8535 13.48C81.0202 13.48 81.1735 13.5233 81.3135 13.61C81.4535 13.69 81.6102 13.78 81.7835 13.88C81.9568 13.9733 82.1602 14.0633 82.3935 14.15C82.6335 14.23 82.9302 14.27 83.2835 14.27C83.5502 14.27 83.7802 14.24 83.9735 14.18C84.1668 14.12 84.3235 14.04 84.4435 13.94C84.5635 13.8333 84.6502 13.7167 84.7035 13.59C84.7635 13.4567 84.7935 13.32 84.7935 13.18C84.7935 12.9533 84.7202 12.77 84.5735 12.63C84.4335 12.4833 84.2468 12.3567 84.0135 12.25C83.7868 12.1433 83.5235 12.0467 83.2235 11.96C82.9235 11.8733 82.6168 11.7767 82.3035 11.67C81.9968 11.5633 81.6935 11.4367 81.3935 11.29C81.1002 11.1433 80.8368 10.96 80.6035 10.74C80.3768 10.5133 80.1902 10.2367 80.0435 9.91C79.9035 9.58333 79.8335 9.18667 79.8335 8.72C79.8335 8.29333 79.9168 7.89 80.0835 7.51C80.2502 7.12333 80.5002 6.78333 80.8335 6.49C81.1668 6.19667 81.5802 5.96333 82.0735 5.79C82.5735 5.61667 83.1502 5.53 83.8035 5.53C84.5368 5.53 85.2035 5.65 85.8035 5.89C86.4035 6.13 86.8968 6.44333 87.2835 6.83L86.6535 7.81ZM95.6312 9.63C95.6312 9.34333 95.5912 9.07 95.5112 8.81C95.4378 8.55 95.3178 8.32 95.1512 8.12C94.9845 7.92 94.7745 7.76333 94.5212 7.65C94.2678 7.53 93.9645 7.47 93.6112 7.47C92.9512 7.47 92.4345 7.65667 92.0612 8.03C91.6878 8.40333 91.4445 8.93667 91.3312 9.63H95.6312ZM91.2912 11.27C91.3778 12.2367 91.6512 12.9433 92.1112 13.39C92.5778 13.8367 93.1845 14.06 93.9312 14.06C94.3112 14.06 94.6378 14.0167 94.9112 13.93C95.1912 13.8367 95.4345 13.7367 95.6412 13.63C95.8545 13.5167 96.0445 13.4167 96.2112 13.33C96.3845 13.2367 96.5545 13.19 96.7212 13.19C96.9345 13.19 97.1012 13.27 97.2212 13.43L98.0212 14.43C97.7278 14.77 97.4045 15.0533 97.0512 15.28C96.6978 15.5 96.3312 15.6767 95.9512 15.81C95.5712 15.9367 95.1878 16.0233 94.8012 16.07C94.4145 16.1233 94.0412 16.15 93.6812 16.15C92.9612 16.15 92.2878 16.0333 91.6612 15.8C91.0412 15.56 90.4978 15.21 90.0312 14.75C89.5712 14.2833 89.2078 13.7067 88.9412 13.02C88.6745 12.3333 88.5412 11.5367 88.5412 10.63C88.5412 9.93 88.6545 9.27 88.8812 8.65C89.1145 8.03 89.4478 7.49 89.8812 7.03C90.3145 6.57 90.8412 6.20667 91.4612 5.94C92.0812 5.66667 92.7812 5.53 93.5612 5.53C94.2212 5.53 94.8278 5.63667 95.3812 5.85C95.9412 6.05667 96.4212 6.36 96.8212 6.76C97.2278 7.16 97.5412 7.65333 97.7612 8.24C97.9878 8.82 98.1012 9.48333 98.1012 10.23C98.1012 10.4367 98.0912 10.6067 98.0712 10.74C98.0512 10.8733 98.0178 10.98 97.9712 11.06C97.9245 11.14 97.8612 11.1967 97.7812 11.23C97.7012 11.2567 97.5978 11.27 97.4712 11.27H91.2912ZM102.594 1.09V16H99.8338V1.09H102.594ZM107.732 5.69V16H104.972V5.69H107.732ZM108.062 2.76C108.062 2.99333 108.015 3.21 107.922 3.41C107.829 3.61 107.702 3.78667 107.542 3.94C107.389 4.09333 107.205 4.21333 106.992 4.3C106.785 4.38667 106.562 4.43 106.322 4.43C106.095 4.43 105.879 4.38667 105.672 4.3C105.472 4.21333 105.295 4.09333 105.142 3.94C104.989 3.78667 104.865 3.61 104.772 3.41C104.685 3.21 104.642 2.99333 104.642 2.76C104.642 2.52667 104.685 2.31 104.772 2.11C104.865 1.90333 104.989 1.72333 105.142 1.57C105.295 1.41667 105.472 1.29667 105.672 1.21C105.879 1.12333 106.095 1.08 106.322 1.08C106.562 1.08 106.785 1.12333 106.992 1.21C107.205 1.29667 107.389 1.41667 107.542 1.57C107.702 1.72333 107.829 1.90333 107.922 2.11C108.015 2.31 108.062 2.52667 108.062 2.76ZM122.19 10.49L120.62 6.05C120.526 5.81667 120.426 5.54333 120.32 5.23C120.22 4.91667 120.123 4.57667 120.03 4.21C119.936 4.58333 119.836 4.93 119.73 5.25C119.63 5.56333 119.533 5.83667 119.44 6.07L117.88 10.49H122.19ZM127.23 16H124.9C124.64 16 124.426 15.94 124.26 15.82C124.1 15.6933 123.98 15.5333 123.9 15.34L122.92 12.57H117.14L116.16 15.34C116.093 15.5067 115.976 15.66 115.81 15.8C115.643 15.9333 115.433 16 115.18 16H112.83L118.5 1.49H121.57L127.23 16ZM130.953 1.09V16H128.193V1.09H130.953ZM133.251 16V5.69H134.951C135.298 5.69 135.528 5.85 135.641 6.17L135.801 6.84C135.981 6.65333 136.165 6.48 136.351 6.32C136.545 6.16 136.751 6.02333 136.971 5.91C137.191 5.79 137.428 5.69667 137.681 5.63C137.941 5.56333 138.221 5.53 138.521 5.53C139.155 5.53 139.678 5.7 140.091 6.04C140.505 6.37333 140.818 6.82 141.031 7.38C141.198 7.05333 141.401 6.77333 141.641 6.54C141.888 6.3 142.155 6.10667 142.441 5.96C142.735 5.81333 143.041 5.70667 143.361 5.64C143.688 5.56667 144.015 5.53 144.341 5.53C144.921 5.53 145.435 5.61667 145.881 5.79C146.328 5.96333 146.701 6.22 147.001 6.56C147.308 6.89333 147.541 7.30333 147.701 7.79C147.861 8.27667 147.941 8.83 147.941 9.45V16H145.181V9.45C145.181 8.24333 144.665 7.64 143.631 7.64C143.398 7.64 143.181 7.68 142.981 7.76C142.788 7.83333 142.615 7.94667 142.461 8.1C142.315 8.25333 142.198 8.44333 142.111 8.67C142.031 8.89667 141.991 9.15667 141.991 9.45V16H139.231V9.45C139.231 8.79667 139.101 8.33333 138.841 8.06C138.588 7.78 138.211 7.64 137.711 7.64C137.391 7.64 137.088 7.71667 136.801 7.87C136.521 8.01667 136.258 8.22333 136.011 8.49V16H133.251ZM156.666 9.63C156.666 9.34333 156.626 9.07 156.546 8.81C156.473 8.55 156.353 8.32 156.186 8.12C156.02 7.92 155.81 7.76333 155.556 7.65C155.303 7.53 155 7.47 154.646 7.47C153.986 7.47 153.47 7.65667 153.096 8.03C152.723 8.40333 152.48 8.93667 152.366 9.63H156.666ZM152.326 11.27C152.413 12.2367 152.686 12.9433 153.146 13.39C153.613 13.8367 154.22 14.06 154.966 14.06C155.346 14.06 155.673 14.0167 155.946 13.93C156.226 13.8367 156.47 13.7367 156.676 13.63C156.89 13.5167 157.08 13.4167 157.246 13.33C157.42 13.2367 157.59 13.19 157.756 13.19C157.97 13.19 158.136 13.27 158.256 13.43L159.056 14.43C158.763 14.77 158.44 15.0533 158.086 15.28C157.733 15.5 157.366 15.6767 156.986 15.81C156.606 15.9367 156.223 16.0233 155.836 16.07C155.45 16.1233 155.076 16.15 154.716 16.15C153.996 16.15 153.323 16.0333 152.696 15.8C152.076 15.56 151.533 15.21 151.066 14.75C150.606 14.2833 150.243 13.7067 149.976 13.02C149.71 12.3333 149.576 11.5367 149.576 10.63C149.576 9.93 149.69 9.27 149.916 8.65C150.15 8.03 150.483 7.49 150.916 7.03C151.35 6.57 151.876 6.20667 152.496 5.94C153.116 5.66667 153.816 5.53 154.596 5.53C155.256 5.53 155.863 5.63667 156.416 5.85C156.976 6.05667 157.456 6.36 157.856 6.76C158.263 7.16 158.576 7.65333 158.796 8.24C159.023 8.82 159.136 9.48333 159.136 10.23C159.136 10.4367 159.126 10.6067 159.106 10.74C159.086 10.8733 159.053 10.98 159.006 11.06C158.96 11.14 158.896 11.1967 158.816 11.23C158.736 11.2567 158.633 11.27 158.506 11.27H152.326ZM163.689 5.69V16H160.929V5.69H163.689ZM164.019 2.76C164.019 2.99333 163.972 3.21 163.879 3.41C163.786 3.61 163.659 3.78667 163.499 3.94C163.346 4.09333 163.162 4.21333 162.949 4.3C162.742 4.38667 162.519 4.43 162.279 4.43C162.052 4.43 161.836 4.38667 161.629 4.3C161.429 4.21333 161.252 4.09333 161.099 3.94C160.946 3.78667 160.822 3.61 160.729 3.41C160.642 3.21 160.599 2.99333 160.599 2.76C160.599 2.52667 160.642 2.31 160.729 2.11C160.822 1.90333 160.946 1.72333 161.099 1.57C161.252 1.41667 161.429 1.29667 161.629 1.21C161.836 1.12333 162.052 1.08 162.279 1.08C162.519 1.08 162.742 1.12333 162.949 1.21C163.162 1.29667 163.346 1.41667 163.499 1.57C163.659 1.72333 163.786 1.90333 163.879 2.11C163.972 2.31 164.019 2.52667 164.019 2.76ZM172.414 8.37C172.154 8.07 171.871 7.86 171.564 7.74C171.264 7.62 170.944 7.56 170.604 7.56C170.271 7.56 169.968 7.62333 169.694 7.75C169.421 7.87667 169.184 8.07667 168.984 8.35C168.791 8.61667 168.641 8.96 168.534 9.38C168.428 9.8 168.374 10.3 168.374 10.88C168.374 11.4533 168.418 11.94 168.504 12.34C168.591 12.74 168.714 13.0633 168.874 13.31C169.041 13.5567 169.241 13.7367 169.474 13.85C169.708 13.9567 169.968 14.01 170.254 14.01C170.741 14.01 171.148 13.9133 171.474 13.72C171.808 13.5267 172.121 13.2533 172.414 12.9V8.37ZM175.174 1.09V16H173.474C173.121 16 172.894 15.84 172.794 15.52L172.564 14.62C172.358 14.8467 172.138 15.0533 171.904 15.24C171.678 15.4267 171.431 15.59 171.164 15.73C170.898 15.8633 170.611 15.9667 170.304 16.04C169.998 16.1133 169.664 16.15 169.304 16.15C168.751 16.15 168.244 16.0333 167.784 15.8C167.324 15.5667 166.924 15.2267 166.584 14.78C166.251 14.3267 165.991 13.7733 165.804 13.12C165.618 12.4667 165.524 11.72 165.524 10.88C165.524 10.1133 165.628 9.4 165.834 8.74C166.048 8.08 166.348 7.51 166.734 7.03C167.121 6.55 167.588 6.17333 168.134 5.9C168.681 5.62667 169.288 5.49 169.954 5.49C170.514 5.49 170.984 5.57333 171.364 5.74C171.751 5.90667 172.101 6.13333 172.414 6.42V1.09H175.174ZM182.86 11.69C182.187 11.7233 181.627 11.7833 181.18 11.87C180.733 11.95 180.377 12.0567 180.11 12.19C179.85 12.3233 179.663 12.4767 179.55 12.65C179.443 12.8167 179.39 13 179.39 13.2C179.39 13.6 179.5 13.8833 179.72 14.05C179.947 14.2167 180.26 14.3 180.66 14.3C181.12 14.3 181.517 14.22 181.85 14.06C182.19 13.8933 182.527 13.6367 182.86 13.29V11.69ZM177.24 7.12C177.847 6.57333 178.517 6.16667 179.25 5.9C179.983 5.62667 180.777 5.49 181.63 5.49C182.243 5.49 182.79 5.59 183.27 5.79C183.757 5.99 184.167 6.27 184.5 6.63C184.84 6.98333 185.1 7.40667 185.28 7.9C185.46 8.39333 185.55 8.93333 185.55 9.52V16H184.29C184.03 16 183.83 15.9633 183.69 15.89C183.557 15.8167 183.447 15.6633 183.36 15.43L183.14 14.77C182.88 14.9967 182.627 15.1967 182.38 15.37C182.14 15.5433 181.89 15.69 181.63 15.81C181.37 15.9233 181.09 16.01 180.79 16.07C180.497 16.13 180.167 16.16 179.8 16.16C179.347 16.16 178.933 16.1 178.56 15.98C178.187 15.86 177.863 15.6833 177.59 15.45C177.323 15.21 177.117 14.9133 176.97 14.56C176.823 14.2067 176.75 13.8 176.75 13.34C176.75 12.96 176.847 12.58 177.04 12.2C177.233 11.82 177.563 11.4767 178.03 11.17C178.503 10.8567 179.13 10.6 179.91 10.4C180.697 10.1933 181.68 10.0767 182.86 10.05V9.52C182.86 8.87333 182.723 8.4 182.45 8.1C182.177 7.79333 181.783 7.64 181.27 7.64C180.89 7.64 180.573 7.68667 180.32 7.78C180.067 7.86667 179.843 7.96333 179.65 8.07C179.463 8.17 179.287 8.26667 179.12 8.36C178.953 8.44667 178.76 8.49 178.54 8.49C178.347 8.49 178.183 8.44333 178.05 8.35C177.923 8.25 177.817 8.13333 177.73 8L177.24 7.12ZM43.5452 22.018L46.9612 30.824C47.1012 31.1787 47.2599 31.4167 47.4372 31.538C47.6146 31.65 47.7779 31.7107 47.9272 31.72V32C47.7406 31.9813 47.5119 31.972 47.2412 31.972C46.9706 31.9627 46.6999 31.958 46.4292 31.958C46.0652 31.958 45.7246 31.9627 45.4072 31.972C45.0899 31.972 44.8332 31.9813 44.6372 32V31.72C45.1132 31.7013 45.4166 31.622 45.5472 31.482C45.6779 31.3327 45.6499 31.02 45.4632 30.544L42.8592 23.586L43.0832 23.404L40.6472 29.732C40.4979 30.1053 40.4092 30.4227 40.3812 30.684C40.3532 30.936 40.3766 31.1367 40.4512 31.286C40.5352 31.4353 40.6706 31.5427 40.8572 31.608C41.0532 31.6733 41.2959 31.7107 41.5852 31.72V32C41.3239 31.9813 41.0486 31.972 40.7592 31.972C40.4792 31.9627 40.2179 31.958 39.9752 31.958C39.7419 31.958 39.5412 31.9627 39.3732 31.972C39.2146 31.972 39.0652 31.9813 38.9252 32V31.72C39.1119 31.6733 39.3032 31.566 39.4992 31.398C39.6952 31.2207 39.8726 30.922 40.0312 30.502L43.3212 22.018C43.3586 22.018 43.3959 22.018 43.4332 22.018C43.4706 22.018 43.5079 22.018 43.5452 22.018ZM45.2532 27.968V28.248H41.0812L41.2212 27.968H45.2532ZM53.2736 21.024V30.698C53.2736 31.09 53.3529 31.356 53.5116 31.496C53.6796 31.636 53.9549 31.706 54.3376 31.706V32C54.1789 31.9907 53.9363 31.9813 53.6096 31.972C53.2923 31.9533 52.9703 31.944 52.6436 31.944C52.3263 31.944 52.0043 31.9533 51.6776 31.972C51.3509 31.9813 51.1083 31.9907 50.9496 32V31.706C51.3323 31.706 51.6029 31.636 51.7616 31.496C51.9296 31.356 52.0136 31.09 52.0136 30.698V22.704C52.0136 22.284 51.9389 21.976 51.7896 21.78C51.6403 21.5747 51.3603 21.472 50.9496 21.472V21.178C51.2483 21.206 51.5376 21.22 51.8176 21.22C52.0883 21.22 52.3449 21.206 52.5876 21.178C52.8396 21.1407 53.0683 21.0893 53.2736 21.024ZM59.4495 21.29C59.6921 21.29 59.9021 21.3787 60.0795 21.556C60.2568 21.7333 60.3455 21.9433 60.3455 22.186C60.3455 22.4287 60.2568 22.6387 60.0795 22.816C59.9021 22.9933 59.6921 23.082 59.4495 23.082C59.2068 23.082 58.9968 22.9933 58.8195 22.816C58.6421 22.6387 58.5535 22.4287 58.5535 22.186C58.5535 21.9433 58.6421 21.7333 58.8195 21.556C58.9968 21.3787 59.2068 21.29 59.4495 21.29ZM60.1775 24.636V30.698C60.1775 31.09 60.2568 31.356 60.4155 31.496C60.5835 31.636 60.8588 31.706 61.2415 31.706V32C61.0828 31.9907 60.8401 31.9813 60.5135 31.972C60.1961 31.9533 59.8741 31.944 59.5475 31.944C59.2301 31.944 58.9081 31.9533 58.5815 31.972C58.2548 31.9813 58.0121 31.9907 57.8535 32V31.706C58.2361 31.706 58.5068 31.636 58.6655 31.496C58.8335 31.356 58.9175 31.09 58.9175 30.698V26.316C58.9175 25.896 58.8428 25.588 58.6935 25.392C58.5441 25.1867 58.2641 25.084 57.8535 25.084V24.79C58.1521 24.818 58.4415 24.832 58.7215 24.832C58.9921 24.832 59.2488 24.818 59.4915 24.79C59.7435 24.7527 59.9721 24.7013 60.1775 24.636ZM66.743 32.098C66.3604 32.098 66.029 32.028 65.749 31.888C65.469 31.7387 65.2544 31.5333 65.105 31.272C64.965 31.0107 64.895 30.7073 64.895 30.362C64.895 29.9513 64.9884 29.6153 65.175 29.354C65.371 29.0927 65.6184 28.8827 65.917 28.724C66.2157 28.5653 66.5284 28.4347 66.855 28.332C67.191 28.22 67.5084 28.1173 67.807 28.024C68.1057 27.9213 68.3484 27.8047 68.535 27.674C68.731 27.5433 68.829 27.3707 68.829 27.156V26.288C68.829 25.896 68.7684 25.5973 68.647 25.392C68.535 25.1867 68.381 25.0513 68.185 24.986C67.989 24.9113 67.7697 24.874 67.527 24.874C67.2937 24.874 67.0417 24.9067 66.771 24.972C66.5097 25.0373 66.2997 25.1727 66.141 25.378C66.3184 25.4153 66.4724 25.5087 66.603 25.658C66.7337 25.8073 66.799 25.9987 66.799 26.232C66.799 26.4653 66.7244 26.652 66.575 26.792C66.4257 26.9227 66.2344 26.988 66.001 26.988C65.7304 26.988 65.5297 26.904 65.399 26.736C65.2777 26.5587 65.217 26.3627 65.217 26.148C65.217 25.9053 65.2777 25.7093 65.399 25.56C65.5204 25.4107 65.6744 25.2707 65.861 25.14C66.0757 24.9907 66.351 24.8647 66.687 24.762C67.0324 24.65 67.4197 24.594 67.849 24.594C68.2317 24.594 68.5584 24.6407 68.829 24.734C69.0997 24.818 69.3237 24.944 69.501 25.112C69.7437 25.336 69.9024 25.6113 69.977 25.938C70.0517 26.2553 70.089 26.638 70.089 27.086V30.978C70.089 31.2113 70.1217 31.3793 70.187 31.482C70.2617 31.5847 70.3737 31.636 70.523 31.636C70.6257 31.636 70.7237 31.6127 70.817 31.566C70.9104 31.5193 71.0224 31.4447 71.153 31.342L71.307 31.58C71.111 31.7293 70.9244 31.8553 70.747 31.958C70.5697 32.0513 70.3317 32.098 70.033 32.098C69.7624 32.098 69.5384 32.0513 69.361 31.958C69.1837 31.8647 69.0484 31.7293 68.955 31.552C68.871 31.3653 68.829 31.132 68.829 30.852C68.577 31.272 68.2737 31.5847 67.919 31.79C67.5737 31.9953 67.1817 32.098 66.743 32.098ZM67.247 31.538C67.555 31.538 67.8397 31.4493 68.101 31.272C68.3717 31.0947 68.6144 30.8287 68.829 30.474V27.73C68.717 27.8887 68.5537 28.024 68.339 28.136C68.1244 28.2387 67.891 28.346 67.639 28.458C67.387 28.5607 67.1444 28.6867 66.911 28.836C66.687 28.976 66.5004 29.1627 66.351 29.396C66.2017 29.6293 66.127 29.9327 66.127 30.306C66.127 30.6793 66.225 30.978 66.421 31.202C66.6264 31.426 66.9017 31.538 67.247 31.538ZM79.2317 24.594C79.5863 24.594 79.8803 24.6407 80.1137 24.734C80.3563 24.8273 80.557 24.958 80.7157 25.126C80.893 25.3127 81.019 25.546 81.0937 25.826C81.1683 26.106 81.2057 26.484 81.2057 26.96V30.698C81.2057 31.09 81.285 31.356 81.4437 31.496C81.6117 31.636 81.887 31.706 82.2697 31.706V32C82.111 31.9907 81.8683 31.9813 81.5417 31.972C81.215 31.9533 80.8977 31.944 80.5897 31.944C80.2817 31.944 79.9783 31.9533 79.6797 31.972C79.3903 31.9813 79.171 31.9907 79.0217 32V31.706C79.3577 31.706 79.5957 31.636 79.7357 31.496C79.8757 31.356 79.9457 31.09 79.9457 30.698V26.652C79.9457 26.3627 79.9223 26.0967 79.8757 25.854C79.829 25.6113 79.7217 25.4153 79.5537 25.266C79.395 25.1167 79.1477 25.042 78.8117 25.042C78.4197 25.042 78.0743 25.154 77.7757 25.378C77.4863 25.602 77.2577 25.91 77.0897 26.302C76.931 26.6847 76.8517 27.114 76.8517 27.59V30.698C76.8517 31.09 76.9217 31.356 77.0617 31.496C77.2017 31.636 77.4397 31.706 77.7757 31.706V32C77.6263 31.9907 77.4023 31.9813 77.1037 31.972C76.8143 31.9533 76.5157 31.944 76.2077 31.944C75.8997 31.944 75.5823 31.9533 75.2557 31.972C74.929 31.9813 74.6863 31.9907 74.5277 32V31.706C74.9103 31.706 75.181 31.636 75.3397 31.496C75.5077 31.356 75.5917 31.09 75.5917 30.698V26.316C75.5917 25.896 75.517 25.588 75.3677 25.392C75.2183 25.1867 74.9383 25.084 74.5277 25.084V24.79C74.8263 24.818 75.1157 24.832 75.3957 24.832C75.6663 24.832 75.923 24.818 76.1657 24.79C76.4177 24.7527 76.6463 24.7013 76.8517 24.636V26.288C77.0943 25.6533 77.4303 25.2147 77.8597 24.972C78.2983 24.72 78.7557 24.594 79.2317 24.594ZM89.1812 24.594C89.4799 24.594 89.7692 24.6313 90.0492 24.706C90.3292 24.7807 90.5812 24.8927 90.8052 25.042C91.0199 25.182 91.1832 25.3453 91.2952 25.532C91.4072 25.7093 91.4632 25.9053 91.4632 26.12C91.4632 26.372 91.3932 26.568 91.2532 26.708C91.1132 26.8387 90.9359 26.904 90.7212 26.904C90.5159 26.904 90.3339 26.8433 90.1752 26.722C90.0259 26.6007 89.9512 26.428 89.9512 26.204C89.9512 25.9893 90.0072 25.8167 90.1192 25.686C90.2405 25.5553 90.3805 25.4713 90.5392 25.434C90.4459 25.266 90.2779 25.126 90.0352 25.014C89.8019 24.902 89.5499 24.846 89.2792 24.846C89.0459 24.846 88.8125 24.902 88.5792 25.014C88.3459 25.126 88.1312 25.3127 87.9352 25.574C87.7392 25.826 87.5805 26.176 87.4592 26.624C87.3379 27.0627 87.2772 27.6133 87.2772 28.276C87.2772 29.0973 87.3705 29.7507 87.5572 30.236C87.7439 30.7213 87.9865 31.0713 88.2852 31.286C88.5932 31.4913 88.9292 31.594 89.2932 31.594C89.5359 31.594 89.7832 31.5473 90.0352 31.454C90.2872 31.3607 90.5252 31.2113 90.7492 31.006C90.9732 30.7913 91.1645 30.5067 91.3232 30.152L91.5892 30.25C91.4959 30.5487 91.3419 30.852 91.1272 31.16C90.9125 31.4587 90.6325 31.706 90.2872 31.902C89.9419 32.098 89.5172 32.196 89.0132 32.196C88.4345 32.196 87.9119 32.0467 87.4452 31.748C86.9785 31.4493 86.6052 31.0247 86.3252 30.474C86.0545 29.914 85.9192 29.2513 85.9192 28.486C85.9192 27.7207 86.0545 27.0487 86.3252 26.47C86.6052 25.882 86.9925 25.4247 87.4872 25.098C87.9819 24.762 88.5465 24.594 89.1812 24.594ZM88.9852 31.916L88.6212 33.008C88.7425 32.98 88.8732 32.9567 89.0132 32.938C89.1532 32.9193 89.2979 32.91 89.4472 32.91C89.7085 32.91 89.9139 32.966 90.0632 33.078C90.2219 33.19 90.3012 33.3533 90.3012 33.568C90.3012 33.8293 90.2125 34.0347 90.0352 34.184C89.8672 34.3427 89.6619 34.4547 89.4192 34.52C89.1765 34.5947 88.9432 34.632 88.7192 34.632C88.4579 34.632 88.2292 34.6133 88.0332 34.576C87.8465 34.548 87.6879 34.5153 87.5572 34.478L87.6132 34.226C87.6599 34.2353 87.7299 34.2447 87.8232 34.254C87.9259 34.2633 88.0332 34.268 88.1452 34.268C88.3319 34.268 88.5185 34.2493 88.7052 34.212C88.9012 34.1747 89.0645 34.1093 89.1952 34.016C89.3352 33.932 89.4052 33.806 89.4052 33.638C89.4052 33.3767 89.2092 33.246 88.8172 33.246C88.7425 33.246 88.6352 33.2507 88.4952 33.26C88.3552 33.2787 88.2339 33.3067 88.1312 33.344L88.6072 31.916H88.9852ZM97.2778 32.098C96.8951 32.098 96.5638 32.028 96.2838 31.888C96.0038 31.7387 95.7891 31.5333 95.6398 31.272C95.4998 31.0107 95.4298 30.7073 95.4298 30.362C95.4298 29.9513 95.5231 29.6153 95.7098 29.354C95.9058 29.0927 96.1531 28.8827 96.4518 28.724C96.7505 28.5653 97.0631 28.4347 97.3898 28.332C97.7258 28.22 98.0431 28.1173 98.3418 28.024C98.6405 27.9213 98.8831 27.8047 99.0698 27.674C99.2658 27.5433 99.3638 27.3707 99.3638 27.156V26.288C99.3638 25.896 99.3031 25.5973 99.1818 25.392C99.0698 25.1867 98.9158 25.0513 98.7198 24.986C98.5238 24.9113 98.3045 24.874 98.0618 24.874C97.8285 24.874 97.5765 24.9067 97.3058 24.972C97.0445 25.0373 96.8345 25.1727 96.6758 25.378C96.8531 25.4153 97.0071 25.5087 97.1378 25.658C97.2685 25.8073 97.3338 25.9987 97.3338 26.232C97.3338 26.4653 97.2591 26.652 97.1098 26.792C96.9605 26.9227 96.7691 26.988 96.5358 26.988C96.2651 26.988 96.0645 26.904 95.9338 26.736C95.8125 26.5587 95.7518 26.3627 95.7518 26.148C95.7518 25.9053 95.8125 25.7093 95.9338 25.56C96.0551 25.4107 96.2091 25.2707 96.3958 25.14C96.6105 24.9907 96.8858 24.8647 97.2218 24.762C97.5671 24.65 97.9545 24.594 98.3838 24.594C98.7665 24.594 99.0931 24.6407 99.3638 24.734C99.6345 24.818 99.8585 24.944 100.036 25.112C100.278 25.336 100.437 25.6113 100.512 25.938C100.586 26.2553 100.624 26.638 100.624 27.086V30.978C100.624 31.2113 100.656 31.3793 100.722 31.482C100.796 31.5847 100.908 31.636 101.058 31.636C101.16 31.636 101.258 31.6127 101.352 31.566C101.445 31.5193 101.557 31.4447 101.688 31.342L101.842 31.58C101.646 31.7293 101.459 31.8553 101.282 31.958C101.104 32.0513 100.866 32.098 100.568 32.098C100.297 32.098 100.073 32.0513 99.8958 31.958C99.7185 31.8647 99.5831 31.7293 99.4898 31.552C99.4058 31.3653 99.3638 31.132 99.3638 30.852C99.1118 31.272 98.8085 31.5847 98.4538 31.79C98.1085 31.9953 97.7165 32.098 97.2778 32.098ZM97.7818 31.538C98.0898 31.538 98.3745 31.4493 98.6358 31.272C98.9065 31.0947 99.1491 30.8287 99.3638 30.474V27.73C99.2518 27.8887 99.0885 28.024 98.8738 28.136C98.6591 28.2387 98.4258 28.346 98.1738 28.458C97.9218 28.5607 97.6791 28.6867 97.4458 28.836C97.2218 28.976 97.0351 29.1627 96.8858 29.396C96.7365 29.6293 96.6618 29.9327 96.6618 30.306C96.6618 30.6793 96.7598 30.978 96.9558 31.202C97.1611 31.426 97.4365 31.538 97.7818 31.538ZM115.077 22.172C115.431 22.172 115.725 22.214 115.959 22.298C116.192 22.3727 116.383 22.4707 116.533 22.592C116.654 22.6853 116.752 22.788 116.827 22.9C116.901 23.012 116.957 23.124 116.995 23.236C117.032 23.348 117.051 23.4553 117.051 23.558C117.051 23.7913 116.967 23.9733 116.799 24.104C116.64 24.2347 116.463 24.3 116.267 24.3C116.08 24.3 115.912 24.2393 115.763 24.118C115.613 23.9967 115.539 23.824 115.539 23.6C115.539 23.3947 115.609 23.222 115.749 23.082C115.889 22.9327 116.066 22.8487 116.281 22.83C116.243 22.7087 116.127 22.606 115.931 22.522C115.744 22.4287 115.506 22.382 115.217 22.382C114.741 22.382 114.349 22.5267 114.041 22.816C113.742 23.096 113.593 23.5067 113.593 24.048C113.593 24.3093 113.639 24.5753 113.733 24.846C113.835 25.1167 114.027 25.3827 114.307 25.644C114.465 25.616 114.629 25.5973 114.797 25.588C114.965 25.5693 115.091 25.56 115.175 25.56C115.343 25.56 115.478 25.588 115.581 25.644C115.683 25.7 115.735 25.7793 115.735 25.882C115.735 25.966 115.697 26.0313 115.623 26.078C115.557 26.1247 115.464 26.148 115.343 26.148C115.165 26.148 114.979 26.1107 114.783 26.036C114.587 25.952 114.433 25.8867 114.321 25.84C113.779 25.9987 113.341 26.26 113.005 26.624C112.669 26.9787 112.501 27.4827 112.501 28.136C112.501 28.78 112.669 29.326 113.005 29.774C113.341 30.222 113.789 30.5673 114.349 30.81C114.918 31.0433 115.553 31.16 116.253 31.16C116.747 31.16 117.214 31.104 117.653 30.992C118.101 30.8707 118.493 30.698 118.829 30.474C119.174 30.25 119.445 29.984 119.641 29.676C119.837 29.3587 119.935 28.9993 119.935 28.598C119.935 28.4207 119.897 28.1967 119.823 27.926C119.748 27.646 119.594 27.3753 119.361 27.114C119.127 26.8433 118.768 26.6333 118.283 26.484L118.451 26.344C119.132 26.5493 119.617 26.8807 119.907 27.338C120.196 27.786 120.341 28.29 120.341 28.85C120.341 29.41 120.173 29.9467 119.837 30.46C119.501 30.9733 119.015 31.3933 118.381 31.72C117.746 32.0373 116.976 32.196 116.071 32.196C115.464 32.196 114.885 32.1167 114.335 31.958C113.793 31.7993 113.313 31.5707 112.893 31.272C112.473 30.964 112.141 30.5953 111.899 30.166C111.656 29.7367 111.535 29.2513 111.535 28.71C111.535 28.206 111.633 27.7767 111.829 27.422C112.025 27.058 112.267 26.7593 112.557 26.526C112.846 26.2927 113.135 26.1153 113.425 25.994C113.714 25.8633 113.947 25.7747 114.125 25.728C113.817 25.588 113.555 25.4247 113.341 25.238C113.135 25.042 112.977 24.832 112.865 24.608C112.762 24.3747 112.711 24.146 112.711 23.922C112.711 23.698 112.762 23.4833 112.865 23.278C112.967 23.0633 113.117 22.872 113.313 22.704C113.509 22.536 113.751 22.4053 114.041 22.312C114.339 22.2187 114.685 22.172 115.077 22.172ZM120.173 21.892C120.751 21.892 121.237 22.06 121.629 22.396C122.021 22.7227 122.217 23.1847 122.217 23.782C122.217 24.0993 122.156 24.384 122.035 24.636C121.923 24.8787 121.764 25.0933 121.559 25.28C121.363 25.4667 121.139 25.6207 120.887 25.742C120.672 25.8447 120.387 25.9567 120.033 26.078C119.687 26.1993 119.314 26.3207 118.913 26.442C118.521 26.5633 118.143 26.6847 117.779 26.806C117.424 26.918 117.135 27.016 116.911 27.1C116.565 27.2307 116.271 27.394 116.029 27.59C115.795 27.7767 115.679 28.0193 115.679 28.318C115.679 28.5607 115.749 28.766 115.889 28.934C116.029 29.102 116.197 29.228 116.393 29.312C116.598 29.396 116.789 29.438 116.967 29.438C117.051 29.438 117.153 29.4287 117.275 29.41C117.405 29.382 117.522 29.3447 117.625 29.298C117.727 29.2513 117.788 29.1953 117.807 29.13C117.657 29.102 117.508 29.0367 117.359 28.934C117.219 28.822 117.149 28.6493 117.149 28.416C117.149 28.192 117.223 28.0147 117.373 27.884C117.522 27.7533 117.704 27.688 117.919 27.688C118.143 27.688 118.32 27.758 118.451 27.898C118.591 28.038 118.661 28.22 118.661 28.444C118.661 28.7053 118.572 28.9293 118.395 29.116C118.227 29.2933 118.012 29.4287 117.751 29.522C117.499 29.606 117.247 29.648 116.995 29.648C116.733 29.648 116.467 29.592 116.197 29.48C115.926 29.368 115.702 29.1953 115.525 28.962C115.347 28.7193 115.259 28.402 115.259 28.01C115.259 27.6833 115.329 27.394 115.469 27.142C115.618 26.89 115.837 26.666 116.127 26.47C116.416 26.274 116.771 26.106 117.191 25.966C117.471 25.8727 117.811 25.77 118.213 25.658C118.614 25.546 119.025 25.4247 119.445 25.294C119.874 25.1633 120.261 25.0187 120.607 24.86C121.073 24.6453 121.391 24.426 121.559 24.202C121.727 23.978 121.811 23.7493 121.811 23.516C121.811 23.2453 121.736 23.0073 121.587 22.802C121.437 22.5873 121.237 22.4193 120.985 22.298C120.742 22.1673 120.476 22.102 120.187 22.102C120.075 22.102 119.981 22.1113 119.907 22.13C119.832 22.1487 119.785 22.1813 119.767 22.228C119.897 22.2933 119.995 22.3867 120.061 22.508C120.126 22.6293 120.159 22.7507 120.159 22.872C120.159 23.068 120.079 23.2313 119.921 23.362C119.771 23.4927 119.589 23.558 119.375 23.558C119.197 23.558 119.029 23.502 118.871 23.39C118.712 23.2687 118.633 23.0913 118.633 22.858C118.633 22.6153 118.712 22.424 118.871 22.284C119.039 22.144 119.239 22.046 119.473 21.99C119.715 21.9247 119.949 21.892 120.173 21.892ZM139.156 22.088C139.118 22.4427 139.09 22.788 139.072 23.124C139.063 23.4507 139.058 23.7027 139.058 23.88C139.058 24.104 139.063 24.314 139.072 24.51C139.081 24.706 139.09 24.8787 139.1 25.028H138.778C138.712 24.3747 138.624 23.8613 138.512 23.488C138.4 23.1053 138.204 22.83 137.924 22.662C137.644 22.494 137.21 22.41 136.622 22.41H135.74C135.422 22.41 135.18 22.438 135.012 22.494C134.853 22.5407 134.746 22.648 134.69 22.816C134.634 22.9747 134.606 23.2267 134.606 23.572V30.516C134.606 30.852 134.638 31.104 134.704 31.272C134.778 31.44 134.918 31.552 135.124 31.608C135.329 31.664 135.628 31.7013 136.02 31.72V32C135.777 31.9813 135.469 31.972 135.096 31.972C134.722 31.9627 134.344 31.958 133.962 31.958C133.598 31.958 133.257 31.9627 132.94 31.972C132.622 31.972 132.366 31.9813 132.17 32V31.72C132.487 31.7013 132.725 31.664 132.884 31.608C133.052 31.552 133.164 31.44 133.22 31.272C133.276 31.104 133.304 30.852 133.304 30.516V23.572C133.304 23.2267 133.276 22.9747 133.22 22.816C133.164 22.648 133.052 22.536 132.884 22.48C132.725 22.4147 132.487 22.3773 132.17 22.368V22.088C132.515 22.0973 132.879 22.1067 133.262 22.116C133.644 22.116 134.022 22.1207 134.396 22.13C134.769 22.13 135.114 22.13 135.432 22.13C135.758 22.13 136.024 22.13 136.23 22.13C136.659 22.13 137.144 22.13 137.686 22.13C138.236 22.1207 138.726 22.1067 139.156 22.088ZM136.986 27.016C136.986 27.016 136.986 27.0627 136.986 27.156C136.986 27.2493 136.986 27.296 136.986 27.296H134.186C134.186 27.296 134.186 27.2493 134.186 27.156C134.186 27.0627 134.186 27.016 134.186 27.016H136.986ZM137.252 25.168C137.214 25.7 137.196 26.106 137.196 26.386C137.205 26.666 137.21 26.9227 137.21 27.156C137.21 27.3893 137.214 27.646 137.224 27.926C137.233 28.206 137.256 28.612 137.294 29.144H136.972C136.934 28.8453 136.888 28.556 136.832 28.276C136.785 27.9867 136.673 27.7533 136.496 27.576C136.328 27.3893 136.038 27.296 135.628 27.296V27.016C135.936 27.016 136.169 26.9553 136.328 26.834C136.496 26.7033 136.617 26.54 136.692 26.344C136.766 26.148 136.818 25.9473 136.846 25.742C136.874 25.5273 136.902 25.336 136.93 25.168H137.252ZM144.355 21.29C144.597 21.29 144.807 21.3787 144.985 21.556C145.162 21.7333 145.251 21.9433 145.251 22.186C145.251 22.4287 145.162 22.6387 144.985 22.816C144.807 22.9933 144.597 23.082 144.355 23.082C144.112 23.082 143.902 22.9933 143.725 22.816C143.547 22.6387 143.459 22.4287 143.459 22.186C143.459 21.9433 143.547 21.7333 143.725 21.556C143.902 21.3787 144.112 21.29 144.355 21.29ZM145.083 24.636V30.698C145.083 31.09 145.162 31.356 145.321 31.496C145.489 31.636 145.764 31.706 146.147 31.706V32C145.988 31.9907 145.745 31.9813 145.419 31.972C145.101 31.9533 144.779 31.944 144.453 31.944C144.135 31.944 143.813 31.9533 143.487 31.972C143.16 31.9813 142.917 31.9907 142.759 32V31.706C143.141 31.706 143.412 31.636 143.571 31.496C143.739 31.356 143.823 31.09 143.823 30.698V26.316C143.823 25.896 143.748 25.588 143.599 25.392C143.449 25.1867 143.169 25.084 142.759 25.084V24.79C143.057 24.818 143.347 24.832 143.627 24.832C143.897 24.832 144.154 24.818 144.397 24.79C144.649 24.7527 144.877 24.7013 145.083 24.636ZM154.364 24.594C154.719 24.594 155.013 24.6407 155.246 24.734C155.489 24.8273 155.689 24.958 155.848 25.126C156.025 25.3127 156.151 25.546 156.226 25.826C156.301 26.106 156.338 26.484 156.338 26.96V30.698C156.338 31.09 156.417 31.356 156.576 31.496C156.744 31.636 157.019 31.706 157.402 31.706V32C157.243 31.9907 157.001 31.9813 156.674 31.972C156.347 31.9533 156.03 31.944 155.722 31.944C155.414 31.944 155.111 31.9533 154.812 31.972C154.523 31.9813 154.303 31.9907 154.154 32V31.706C154.49 31.706 154.728 31.636 154.868 31.496C155.008 31.356 155.078 31.09 155.078 30.698V26.652C155.078 26.3627 155.055 26.0967 155.008 25.854C154.961 25.6113 154.854 25.4153 154.686 25.266C154.527 25.1167 154.28 25.042 153.944 25.042C153.552 25.042 153.207 25.154 152.908 25.378C152.619 25.602 152.39 25.91 152.222 26.302C152.063 26.6847 151.984 27.114 151.984 27.59V30.698C151.984 31.09 152.054 31.356 152.194 31.496C152.334 31.636 152.572 31.706 152.908 31.706V32C152.759 31.9907 152.535 31.9813 152.236 31.972C151.947 31.9533 151.648 31.944 151.34 31.944C151.032 31.944 150.715 31.9533 150.388 31.972C150.061 31.9813 149.819 31.9907 149.66 32V31.706C150.043 31.706 150.313 31.636 150.472 31.496C150.64 31.356 150.724 31.09 150.724 30.698V26.316C150.724 25.896 150.649 25.588 150.5 25.392C150.351 25.1867 150.071 25.084 149.66 25.084V24.79C149.959 24.818 150.248 24.832 150.528 24.832C150.799 24.832 151.055 24.818 151.298 24.79C151.55 24.7527 151.779 24.7013 151.984 24.636V26.288C152.227 25.6533 152.563 25.2147 152.992 24.972C153.431 24.72 153.888 24.594 154.364 24.594ZM162.802 32.098C162.419 32.098 162.088 32.028 161.808 31.888C161.528 31.7387 161.313 31.5333 161.164 31.272C161.024 31.0107 160.954 30.7073 160.954 30.362C160.954 29.9513 161.047 29.6153 161.234 29.354C161.43 29.0927 161.677 28.8827 161.976 28.724C162.274 28.5653 162.587 28.4347 162.914 28.332C163.25 28.22 163.567 28.1173 163.866 28.024C164.164 27.9213 164.407 27.8047 164.594 27.674C164.79 27.5433 164.888 27.3707 164.888 27.156V26.288C164.888 25.896 164.827 25.5973 164.706 25.392C164.594 25.1867 164.44 25.0513 164.244 24.986C164.048 24.9113 163.828 24.874 163.586 24.874C163.352 24.874 163.1 24.9067 162.83 24.972C162.568 25.0373 162.358 25.1727 162.2 25.378C162.377 25.4153 162.531 25.5087 162.662 25.658C162.792 25.8073 162.858 25.9987 162.858 26.232C162.858 26.4653 162.783 26.652 162.634 26.792C162.484 26.9227 162.293 26.988 162.06 26.988C161.789 26.988 161.588 26.904 161.458 26.736C161.336 26.5587 161.276 26.3627 161.276 26.148C161.276 25.9053 161.336 25.7093 161.458 25.56C161.579 25.4107 161.733 25.2707 161.92 25.14C162.134 24.9907 162.41 24.8647 162.746 24.762C163.091 24.65 163.478 24.594 163.908 24.594C164.29 24.594 164.617 24.6407 164.888 24.734C165.158 24.818 165.382 24.944 165.56 25.112C165.802 25.336 165.961 25.6113 166.036 25.938C166.11 26.2553 166.148 26.638 166.148 27.086V30.978C166.148 31.2113 166.18 31.3793 166.246 31.482C166.32 31.5847 166.432 31.636 166.582 31.636C166.684 31.636 166.782 31.6127 166.876 31.566C166.969 31.5193 167.081 31.4447 167.212 31.342L167.366 31.58C167.17 31.7293 166.983 31.8553 166.806 31.958C166.628 32.0513 166.39 32.098 166.092 32.098C165.821 32.098 165.597 32.0513 165.42 31.958C165.242 31.8647 165.107 31.7293 165.014 31.552C164.93 31.3653 164.888 31.132 164.888 30.852C164.636 31.272 164.332 31.5847 163.978 31.79C163.632 31.9953 163.24 32.098 162.802 32.098ZM163.306 31.538C163.614 31.538 163.898 31.4493 164.16 31.272C164.43 31.0947 164.673 30.8287 164.888 30.474V27.73C164.776 27.8887 164.612 28.024 164.398 28.136C164.183 28.2387 163.95 28.346 163.698 28.458C163.446 28.5607 163.203 28.6867 162.97 28.836C162.746 28.976 162.559 29.1627 162.41 29.396C162.26 29.6293 162.186 29.9327 162.186 30.306C162.186 30.6793 162.284 30.978 162.48 31.202C162.685 31.426 162.96 31.538 163.306 31.538ZM175.29 24.594C175.645 24.594 175.939 24.6407 176.172 24.734C176.415 24.8273 176.616 24.958 176.774 25.126C176.952 25.3127 177.078 25.546 177.152 25.826C177.227 26.106 177.264 26.484 177.264 26.96V30.698C177.264 31.09 177.344 31.356 177.502 31.496C177.67 31.636 177.946 31.706 178.328 31.706V32C178.17 31.9907 177.927 31.9813 177.6 31.972C177.274 31.9533 176.956 31.944 176.648 31.944C176.34 31.944 176.037 31.9533 175.738 31.972C175.449 31.9813 175.23 31.9907 175.08 32V31.706C175.416 31.706 175.654 31.636 175.794 31.496C175.934 31.356 176.004 31.09 176.004 30.698V26.652C176.004 26.3627 175.981 26.0967 175.934 25.854C175.888 25.6113 175.78 25.4153 175.612 25.266C175.454 25.1167 175.206 25.042 174.87 25.042C174.478 25.042 174.133 25.154 173.834 25.378C173.545 25.602 173.316 25.91 173.148 26.302C172.99 26.6847 172.91 27.114 172.91 27.59V30.698C172.91 31.09 172.98 31.356 173.12 31.496C173.26 31.636 173.498 31.706 173.834 31.706V32C173.685 31.9907 173.461 31.9813 173.162 31.972C172.873 31.9533 172.574 31.944 172.266 31.944C171.958 31.944 171.641 31.9533 171.314 31.972C170.988 31.9813 170.745 31.9907 170.586 32V31.706C170.969 31.706 171.24 31.636 171.398 31.496C171.566 31.356 171.65 31.09 171.65 30.698V26.316C171.65 25.896 171.576 25.588 171.426 25.392C171.277 25.1867 170.997 25.084 170.586 25.084V24.79C170.885 24.818 171.174 24.832 171.454 24.832C171.725 24.832 171.982 24.818 172.224 24.79C172.476 24.7527 172.705 24.7013 172.91 24.636V26.288C173.153 25.6533 173.489 25.2147 173.918 24.972C174.357 24.72 174.814 24.594 175.29 24.594ZM185.24 24.594C185.538 24.594 185.828 24.6313 186.108 24.706C186.388 24.7807 186.64 24.8927 186.864 25.042C187.078 25.182 187.242 25.3453 187.354 25.532C187.466 25.7093 187.522 25.9053 187.522 26.12C187.522 26.372 187.452 26.568 187.312 26.708C187.172 26.8387 186.994 26.904 186.78 26.904C186.574 26.904 186.392 26.8433 186.234 26.722C186.084 26.6007 186.01 26.428 186.01 26.204C186.01 25.9893 186.066 25.8167 186.178 25.686C186.299 25.5553 186.439 25.4713 186.598 25.434C186.504 25.266 186.336 25.126 186.094 25.014C185.86 24.902 185.608 24.846 185.338 24.846C185.104 24.846 184.871 24.902 184.638 25.014C184.404 25.126 184.19 25.3127 183.994 25.574C183.798 25.826 183.639 26.176 183.518 26.624C183.396 27.0627 183.336 27.6133 183.336 28.276C183.336 29.0973 183.429 29.7507 183.616 30.236C183.802 30.7213 184.045 31.0713 184.344 31.286C184.652 31.4913 184.988 31.594 185.352 31.594C185.594 31.594 185.842 31.5473 186.094 31.454C186.346 31.3607 186.584 31.2113 186.808 31.006C187.032 30.7913 187.223 30.5067 187.382 30.152L187.648 30.25C187.554 30.5487 187.4 30.852 187.186 31.16C186.971 31.4587 186.691 31.706 186.346 31.902C186 32.098 185.576 32.196 185.072 32.196C184.493 32.196 183.97 32.0467 183.504 31.748C183.037 31.4493 182.664 31.0247 182.384 30.474C182.113 29.914 181.978 29.2513 181.978 28.486C181.978 27.7207 182.113 27.0487 182.384 26.47C182.664 25.882 183.051 25.4247 183.546 25.098C184.04 24.762 184.605 24.594 185.24 24.594ZM185.044 31.916L184.68 33.008C184.801 32.98 184.932 32.9567 185.072 32.938C185.212 32.9193 185.356 32.91 185.506 32.91C185.767 32.91 185.972 32.966 186.122 33.078C186.28 33.19 186.36 33.3533 186.36 33.568C186.36 33.8293 186.271 34.0347 186.094 34.184C185.926 34.3427 185.72 34.4547 185.478 34.52C185.235 34.5947 185.002 34.632 184.778 34.632C184.516 34.632 184.288 34.6133 184.092 34.576C183.905 34.548 183.746 34.5153 183.616 34.478L183.672 34.226C183.718 34.2353 183.788 34.2447 183.882 34.254C183.984 34.2633 184.092 34.268 184.204 34.268C184.39 34.268 184.577 34.2493 184.764 34.212C184.96 34.1747 185.123 34.1093 185.254 34.016C185.394 33.932 185.464 33.806 185.464 33.638C185.464 33.3767 185.268 33.246 184.876 33.246C184.801 33.246 184.694 33.2507 184.554 33.26C184.414 33.2787 184.292 33.3067 184.19 33.344L184.666 31.916H185.044ZM193.336 32.098C192.954 32.098 192.622 32.028 192.342 31.888C192.062 31.7387 191.848 31.5333 191.698 31.272C191.558 31.0107 191.488 30.7073 191.488 30.362C191.488 29.9513 191.582 29.6153 191.768 29.354C191.964 29.0927 192.212 28.8827 192.51 28.724C192.809 28.5653 193.122 28.4347 193.448 28.332C193.784 28.22 194.102 28.1173 194.4 28.024C194.699 27.9213 194.942 27.8047 195.128 27.674C195.324 27.5433 195.422 27.3707 195.422 27.156V26.288C195.422 25.896 195.362 25.5973 195.24 25.392C195.128 25.1867 194.974 25.0513 194.778 24.986C194.582 24.9113 194.363 24.874 194.12 24.874C193.887 24.874 193.635 24.9067 193.364 24.972C193.103 25.0373 192.893 25.1727 192.734 25.378C192.912 25.4153 193.066 25.5087 193.196 25.658C193.327 25.8073 193.392 25.9987 193.392 26.232C193.392 26.4653 193.318 26.652 193.168 26.792C193.019 26.9227 192.828 26.988 192.594 26.988C192.324 26.988 192.123 26.904 191.992 26.736C191.871 26.5587 191.81 26.3627 191.81 26.148C191.81 25.9053 191.871 25.7093 191.992 25.56C192.114 25.4107 192.268 25.2707 192.454 25.14C192.669 24.9907 192.944 24.8647 193.28 24.762C193.626 24.65 194.013 24.594 194.442 24.594C194.825 24.594 195.152 24.6407 195.422 24.734C195.693 24.818 195.917 24.944 196.094 25.112C196.337 25.336 196.496 25.6113 196.57 25.938C196.645 26.2553 196.682 26.638 196.682 27.086V30.978C196.682 31.2113 196.715 31.3793 196.78 31.482C196.855 31.5847 196.967 31.636 197.116 31.636C197.219 31.636 197.317 31.6127 197.41 31.566C197.504 31.5193 197.616 31.4447 197.746 31.342L197.9 31.58C197.704 31.7293 197.518 31.8553 197.34 31.958C197.163 32.0513 196.925 32.098 196.626 32.098C196.356 32.098 196.132 32.0513 195.954 31.958C195.777 31.8647 195.642 31.7293 195.548 31.552C195.464 31.3653 195.422 31.132 195.422 30.852C195.17 31.272 194.867 31.5847 194.512 31.79C194.167 31.9953 193.775 32.098 193.336 32.098ZM193.84 31.538C194.148 31.538 194.433 31.4493 194.694 31.272C194.965 31.0947 195.208 30.8287 195.422 30.474V27.73C195.31 27.8887 195.147 28.024 194.932 28.136C194.718 28.2387 194.484 28.346 194.232 28.458C193.98 28.5607 193.738 28.6867 193.504 28.836C193.28 28.976 193.094 29.1627 192.944 29.396C192.795 29.6293 192.72 29.9327 192.72 30.306C192.72 30.6793 192.818 30.978 193.014 31.202C193.22 31.426 193.495 31.538 193.84 31.538ZM203.627 24.594C204 24.594 204.318 24.6547 204.579 24.776C204.84 24.8973 205.032 25.0093 205.153 25.112C205.461 25.364 205.648 25.196 205.713 24.608H206.035C206.016 24.8693 206.002 25.182 205.993 25.546C205.984 25.9007 205.979 26.3813 205.979 26.988H205.657C205.601 26.6427 205.503 26.3067 205.363 25.98C205.232 25.6533 205.036 25.3873 204.775 25.182C204.514 24.9673 204.173 24.86 203.753 24.86C203.426 24.86 203.151 24.9533 202.927 25.14C202.712 25.3173 202.605 25.5833 202.605 25.938C202.605 26.218 202.689 26.4607 202.857 26.666C203.025 26.862 203.244 27.0487 203.515 27.226C203.786 27.394 204.08 27.5807 204.397 27.786C204.752 28.01 205.074 28.2387 205.363 28.472C205.652 28.7053 205.881 28.962 206.049 29.242C206.226 29.522 206.315 29.8533 206.315 30.236C206.315 30.6653 206.203 31.0247 205.979 31.314C205.755 31.6033 205.461 31.8227 205.097 31.972C204.742 32.1213 204.35 32.196 203.921 32.196C203.716 32.196 203.52 32.1773 203.333 32.14C203.156 32.112 202.983 32.0653 202.815 32C202.722 31.9533 202.624 31.8973 202.521 31.832C202.428 31.7667 202.334 31.6967 202.241 31.622C202.148 31.5473 202.064 31.552 201.989 31.636C201.914 31.7107 201.858 31.8647 201.821 32.098H201.499C201.518 31.7993 201.532 31.4353 201.541 31.006C201.55 30.5767 201.555 30.0073 201.555 29.298H201.877C201.942 29.8207 202.036 30.278 202.157 30.67C202.278 31.062 202.47 31.37 202.731 31.594C202.992 31.8087 203.356 31.916 203.823 31.916C204.01 31.916 204.196 31.874 204.383 31.79C204.579 31.706 204.742 31.566 204.873 31.37C205.004 31.174 205.069 30.9127 205.069 30.586C205.069 30.1753 204.92 29.8393 204.621 29.578C204.322 29.3167 203.944 29.0413 203.487 28.752C203.151 28.5373 202.834 28.3227 202.535 28.108C202.246 27.8933 202.008 27.6507 201.821 27.38C201.644 27.1093 201.555 26.7827 201.555 26.4C201.555 25.98 201.648 25.6393 201.835 25.378C202.031 25.1073 202.288 24.9113 202.605 24.79C202.922 24.6593 203.263 24.594 203.627 24.594Z" fill="#1C4140"/>
</g>
<defs>
<filter id="filter0_d_224_229" x="21.4252" y="-16.42" width="202.39" height="68.552" filterUnits="userSpaceOnUse" color-interpolation-filters="sRGB">
<feFlood flood-opacity="0" result="BackgroundImageFix"/>
<feColorMatrix in="SourceAlpha" type="matrix" values="0 0 0 0 0 0 0 0 0 0 0 0 0 0 0 0 0 0 127 0" result="hardAlpha"/>
<feOffset/>
<feGaussianBlur stdDeviation="8.75"/>
<feComposite in2="hardAlpha" operator="out"/>
<feColorMatrix type="matrix" values="0 0 0 0 1 0 0 0 0 1 0 0 0 0 1 0 0 0 0.4 0"/>
<feBlend mode="normal" in2="BackgroundImageFix" result="effect1_dropShadow_224_229"/>
<feBlend mode="normal" in="SourceGraphic" in2="effect1_dropShadow_224_229" result="shape"/>
</filter>
</defs>
</svg>
