<svg width="24" height="25" viewBox="0 0 24 25" fill="none" xmlns="http://www.w3.org/2000/svg">
<path d="M7.66723 7C7.66723 5.71137 8.7116 4.66648 10.0003 4.66648C11.289 4.66648 12.3339 5.71137 12.3339 7C12.3339 8.28863 11.289 9.33352 10.0003 9.33352C8.7116 9.33352 7.66723 8.28863 7.66723 7ZM6.40571 7C6.40571 8.9852 8.01499 10.5944 10.0003 10.5944C11.9856 10.5944 13.5949 8.9852 13.5949 7C13.5949 5.01478 11.9856 3.40557 10.0003 3.40557C8.01499 3.40557 6.40571 5.01478 6.40571 7ZM12.8971 3.26308C12.8971 3.72674 13.2731 4.10331 13.7374 4.10331C14.201 4.10331 14.5776 3.72674 14.5776 3.26308C14.5776 2.79943 14.2016 2.42343 13.7374 2.42343C13.2731 2.42343 12.8971 2.79943 12.8971 3.26308ZM7.17189 12.6978C6.48939 12.6667 6.11846 12.5531 5.87193 12.4569C5.54509 12.3297 5.31213 12.1782 5.06672 11.9334C4.82189 11.6885 4.66978 11.4556 4.54311 11.1287C4.44699 10.8822 4.33334 10.5113 4.30223 9.82884C4.2683 9.09097 4.26152 8.86928 4.26152 7C4.26152 5.13069 4.26887 4.90961 4.30223 4.17116C4.33334 3.48869 4.44755 3.11834 4.54311 2.87125C4.67034 2.54442 4.82189 2.31147 5.06672 2.06607C5.31156 1.82125 5.54453 1.66914 5.87193 1.54248C6.11846 1.44637 6.48939 1.33272 7.17189 1.30161C7.90981 1.26769 8.13146 1.2609 10.0003 1.2609C11.8696 1.2609 12.0908 1.26825 12.8292 1.30161C13.5118 1.33272 13.8821 1.44693 14.1292 1.54248C14.456 1.66914 14.689 1.82125 14.9344 2.06607C15.1792 2.3109 15.3308 2.54442 15.458 2.87125C15.5542 3.11777 15.6678 3.48869 15.6989 4.17116C15.7328 4.90961 15.7396 5.13069 15.7396 7C15.7396 8.86872 15.7328 9.09041 15.6989 9.82884C15.6678 10.5113 15.5536 10.8822 15.458 11.1287C15.3308 11.4556 15.1792 11.6885 14.9344 11.9334C14.6896 12.1782 14.456 12.3297 14.1292 12.4569C13.8826 12.5531 13.5118 12.6667 12.8292 12.6978C12.0913 12.7317 11.8696 12.7385 10.0003 12.7385C8.13146 12.7385 7.90981 12.7317 7.17189 12.6978ZM7.11422 0.042406C6.36895 0.076335 5.86005 0.194509 5.41504 0.367528C4.95477 0.546203 4.5646 0.785946 4.175 1.17496C3.78598 1.56397 3.54622 1.95412 3.36754 2.41494C3.19452 2.85993 3.07634 3.36882 3.04241 4.11405C3.00792 4.86042 3 5.09903 3 7C3 8.90099 3.00792 9.13955 3.04241 9.88596C3.07634 10.6312 3.19452 11.1401 3.36754 11.5851C3.54622 12.0453 3.78541 12.4361 4.175 12.8251C4.56404 13.214 4.9542 13.4532 5.41504 13.6325C5.86062 13.8055 6.36895 13.9237 7.11422 13.9576C7.86118 13.9915 8.09923 14 10.0003 14C11.9019 14 12.1399 13.9921 12.8864 13.9576C13.6316 13.9237 14.1405 13.8055 14.5855 13.6325C15.0458 13.4532 15.4359 13.214 15.8256 12.8251C16.2146 12.4361 16.4538 12.0453 16.633 11.5851C16.806 11.1401 16.9248 10.6312 16.9581 9.88596C16.9921 9.13899 17 8.90099 17 7C17 5.09903 16.9921 4.86042 16.9581 4.11405C16.9243 3.36882 16.806 2.85993 16.633 2.41494C16.4538 1.95469 16.2146 1.56454 15.8256 1.17496C15.4366 0.785946 15.0458 0.546203 14.5861 0.367528C14.1405 0.194509 13.6316 0.075768 12.8869 0.042406C12.1405 0.00848401 11.9019 0 10.0008 0C8.09923 0 7.86118 0.00791701 7.11422 0.042406Z" fill="white"/>
</svg>
