<svg width="24" height="25" viewBox="0 0 24 25" fill="none" xmlns="http://www.w3.org/2000/svg">
<rect width="24" height="25" fill="#4C4C4C"/>
<g id="1*MOBILE" clip-path="url(#clip0_0_1)">
<rect width="320" height="4631" transform="translate(-150 -4574)" fill="url(#paint0_linear_0_1)"/>
<g id="FOOTER">
<rect width="320" height="100" transform="translate(-150 -43)" fill="url(#paint1_linear_0_1)"/>
<g id="REDE SOCIAS">
<g id="svg" clip-path="url(#clip1_0_1)">
<g id="Frame">
<path id="Vector" d="M14.9 0H5.09998C3.69999 0 3 0.700001 3 2.1L3.00041 11.9C3.00041 13.3 3.70014 14 5.10013 14H14.9C16.3 14 17 13.3 17 11.9V2.1C17 0.700001 16.3 0 14.9 0ZM7.66676 11.0834H5.91678V4.66667H7.66676V11.0834ZM6.79177 3.927C6.22828 3.927 5.77095 3.46617 5.77095 2.898C5.77095 2.32983 6.22828 1.869 6.79177 1.869C7.35527 1.869 7.8126 2.32983 7.8126 2.898C7.8126 3.46617 7.35585 3.927 6.79177 3.927ZM14.6667 11.0834H12.9167V7.81437C12.9167 5.84968 10.5834 5.99843 10.5834 7.81437V11.0834H8.83339V4.66667H10.5834V5.69624C11.3977 4.18775 14.6667 4.07634 14.6667 7.14062V11.0834Z" fill="white"/>
</g>
</g>
</g>
<path id="Home Mentorias Sobre Princ&#195;&#173;pios Depoimentos Contato Blog" d="M-68.2605 22.835V30H-69.2305V26.74H-73.0955V30H-74.0655V22.835H-73.0955V26.03H-69.2305V22.835H-68.2605ZM-64.66 24.855C-64.29 24.855 -63.9567 24.9167 -63.66 25.04C-63.3633 25.1633 -63.11 25.3383 -62.9 25.565C-62.69 25.7917 -62.53 26.0667 -62.42 26.39C-62.3067 26.71 -62.25 27.0683 -62.25 27.465C-62.25 27.865 -62.3067 28.225 -62.42 28.545C-62.53 28.865 -62.69 29.1383 -62.9 29.365C-63.11 29.5917 -63.3633 29.7667 -63.66 29.89C-63.9567 30.01 -64.29 30.07 -64.66 30.07C-65.0333 30.07 -65.37 30.01 -65.67 29.89C-65.9667 29.7667 -66.22 29.5917 -66.43 29.365C-66.64 29.1383 -66.8017 28.865 -66.915 28.545C-67.025 28.225 -67.08 27.865 -67.08 27.465C-67.08 27.0683 -67.025 26.71 -66.915 26.39C-66.8017 26.0667 -66.64 25.7917 -66.43 25.565C-66.22 25.3383 -65.9667 25.1633 -65.67 25.04C-65.37 24.9167 -65.0333 24.855 -64.66 24.855ZM-64.66 29.375C-64.16 29.375 -63.7867 29.2083 -63.54 28.875C-63.2933 28.5383 -63.17 28.07 -63.17 27.47C-63.17 26.8667 -63.2933 26.3967 -63.54 26.06C-63.7867 25.7233 -64.16 25.555 -64.66 25.555C-64.9133 25.555 -65.135 25.5983 -65.325 25.685C-65.5117 25.7717 -65.6683 25.8967 -65.795 26.06C-65.9183 26.2233 -66.0117 26.425 -66.075 26.665C-66.135 26.9017 -66.165 27.17 -66.165 27.47C-66.165 28.07 -66.0417 28.5383 -65.795 28.875C-65.545 29.2083 -65.1667 29.375 -64.66 29.375ZM-61.1212 30V24.935H-60.5862C-60.4595 24.935 -60.3812 24.9967 -60.3512 25.12L-60.2862 25.64C-60.0995 25.41 -59.8895 25.2217 -59.6562 25.075C-59.4228 24.9283 -59.1528 24.855 -58.8462 24.855C-58.5062 24.855 -58.2312 24.95 -58.0212 25.14C-57.8078 25.33 -57.6545 25.5867 -57.5612 25.91C-57.4878 25.7267 -57.3945 25.5683 -57.2812 25.435C-57.1645 25.3017 -57.0345 25.1917 -56.8912 25.105C-56.7478 25.0183 -56.5962 24.955 -56.4362 24.915C-56.2728 24.875 -56.1078 24.855 -55.9412 24.855C-55.6745 24.855 -55.4378 24.8983 -55.2312 24.985C-55.0212 25.0683 -54.8445 25.1917 -54.7012 25.355C-54.5545 25.5183 -54.4428 25.72 -54.3662 25.96C-54.2895 26.1967 -54.2512 26.4683 -54.2512 26.775V30H-55.1462V26.775C-55.1462 26.3783 -55.2328 26.0783 -55.4062 25.875C-55.5795 25.6683 -55.8295 25.565 -56.1562 25.565C-56.3028 25.565 -56.4428 25.5917 -56.5762 25.645C-56.7062 25.695 -56.8212 25.77 -56.9212 25.87C-57.0212 25.97 -57.1012 26.0967 -57.1612 26.25C-57.2178 26.4 -57.2462 26.575 -57.2462 26.775V30H-58.1412V26.775C-58.1412 26.3683 -58.2228 26.065 -58.3862 25.865C-58.5495 25.665 -58.7878 25.565 -59.1012 25.565C-59.3212 25.565 -59.5245 25.625 -59.7112 25.745C-59.8978 25.8617 -60.0695 26.0217 -60.2262 26.225V30H-61.1212ZM-49.5085 26.915C-49.5085 26.7083 -49.5385 26.52 -49.5985 26.35C-49.6552 26.1767 -49.7402 26.0283 -49.8535 25.905C-49.9635 25.7783 -50.0985 25.6817 -50.2585 25.615C-50.4185 25.545 -50.6002 25.51 -50.8035 25.51C-51.2302 25.51 -51.5685 25.635 -51.8185 25.885C-52.0652 26.1317 -52.2185 26.475 -52.2785 26.915H-49.5085ZM-48.7885 29.29C-48.8985 29.4233 -49.0302 29.54 -49.1835 29.64C-49.3368 29.7367 -49.5018 29.8167 -49.6785 29.88C-49.8518 29.9433 -50.0318 29.99 -50.2185 30.02C-50.4052 30.0533 -50.5902 30.07 -50.7735 30.07C-51.1235 30.07 -51.4468 30.0117 -51.7435 29.895C-52.0368 29.775 -52.2918 29.6017 -52.5085 29.375C-52.7218 29.145 -52.8885 28.8617 -53.0085 28.525C-53.1285 28.1883 -53.1885 27.8017 -53.1885 27.365C-53.1885 27.0117 -53.1352 26.6817 -53.0285 26.375C-52.9185 26.0683 -52.7618 25.8033 -52.5585 25.58C-52.3552 25.3533 -52.1068 25.1767 -51.8135 25.05C-51.5202 24.92 -51.1902 24.855 -50.8235 24.855C-50.5202 24.855 -50.2402 24.9067 -49.9835 25.01C-49.7235 25.11 -49.5002 25.2567 -49.3135 25.45C-49.1235 25.64 -48.9752 25.8767 -48.8685 26.16C-48.7618 26.44 -48.7085 26.76 -48.7085 27.12C-48.7085 27.26 -48.7235 27.3533 -48.7535 27.4C-48.7835 27.4467 -48.8402 27.47 -48.9235 27.47H-52.3085C-52.2985 27.79 -52.2552 28.0683 -52.1785 28.305C-52.0985 28.5417 -51.9885 28.74 -51.8485 28.9C-51.7085 29.0567 -51.5418 29.175 -51.3485 29.255C-51.1552 29.3317 -50.9385 29.37 -50.6985 29.37C-50.4752 29.37 -50.2835 29.345 -50.1235 29.295C-49.9602 29.2417 -49.8202 29.185 -49.7035 29.125C-49.5868 29.065 -49.4902 29.01 -49.4135 28.96C-49.3335 28.9067 -49.2652 28.88 -49.2085 28.88C-49.1352 28.88 -49.0785 28.9083 -49.0385 28.965L-48.7885 29.29ZM-29.7159 22.835V30H-30.5659V24.735C-30.5659 24.665 -30.5643 24.59 -30.5609 24.51C-30.5543 24.43 -30.5476 24.3483 -30.5409 24.265L-33.0009 28.745C-33.0776 28.895 -33.1943 28.97 -33.3509 28.97H-33.4909C-33.6476 28.97 -33.7643 28.895 -33.8409 28.745L-36.3509 24.245C-36.3309 24.4217 -36.3209 24.585 -36.3209 24.735V30H-37.1709V22.835H-36.4559C-36.3693 22.835 -36.3026 22.8433 -36.2559 22.86C-36.2093 22.8767 -36.1643 22.9233 -36.1209 23L-33.6459 27.41C-33.6059 27.49 -33.5676 27.5733 -33.5309 27.66C-33.4909 27.7467 -33.4543 27.835 -33.4209 27.925C-33.3876 27.835 -33.3526 27.7467 -33.3159 27.66C-33.2793 27.57 -33.2393 27.485 -33.1959 27.405L-30.7659 23C-30.7259 22.9233 -30.6826 22.8767 -30.6359 22.86C-30.5859 22.8433 -30.5176 22.835 -30.4309 22.835H-29.7159ZM-24.8601 26.915C-24.8601 26.7083 -24.8901 26.52 -24.9501 26.35C-25.0067 26.1767 -25.0917 26.0283 -25.2051 25.905C-25.3151 25.7783 -25.4501 25.6817 -25.6101 25.615C-25.7701 25.545 -25.9517 25.51 -26.1551 25.51C-26.5817 25.51 -26.9201 25.635 -27.1701 25.885C-27.4167 26.1317 -27.5701 26.475 -27.6301 26.915H-24.8601ZM-24.1401 29.29C-24.2501 29.4233 -24.3817 29.54 -24.5351 29.64C-24.6884 29.7367 -24.8534 29.8167 -25.0301 29.88C-25.2034 29.9433 -25.3834 29.99 -25.5701 30.02C-25.7567 30.0533 -25.9417 30.07 -26.1251 30.07C-26.4751 30.07 -26.7984 30.0117 -27.0951 29.895C-27.3884 29.775 -27.6434 29.6017 -27.8601 29.375C-28.0734 29.145 -28.2401 28.8617 -28.3601 28.525C-28.4801 28.1883 -28.5401 27.8017 -28.5401 27.365C-28.5401 27.0117 -28.4867 26.6817 -28.3801 26.375C-28.2701 26.0683 -28.1134 25.8033 -27.9101 25.58C-27.7067 25.3533 -27.4584 25.1767 -27.1651 25.05C-26.8717 24.92 -26.5417 24.855 -26.1751 24.855C-25.8717 24.855 -25.5917 24.9067 -25.3351 25.01C-25.0751 25.11 -24.8517 25.2567 -24.6651 25.45C-24.4751 25.64 -24.3267 25.8767 -24.2201 26.16C-24.1134 26.44 -24.0601 26.76 -24.0601 27.12C-24.0601 27.26 -24.0751 27.3533 -24.1051 27.4C-24.1351 27.4467 -24.1917 27.47 -24.2751 27.47H-27.6601C-27.6501 27.79 -27.6067 28.0683 -27.5301 28.305C-27.4501 28.5417 -27.3401 28.74 -27.2001 28.9C-27.0601 29.0567 -26.8934 29.175 -26.7001 29.255C-26.5067 29.3317 -26.2901 29.37 -26.0501 29.37C-25.8267 29.37 -25.6351 29.345 -25.4751 29.295C-25.3117 29.2417 -25.1717 29.185 -25.0551 29.125C-24.9384 29.065 -24.8417 29.01 -24.7651 28.96C-24.6851 28.9067 -24.6167 28.88 -24.5601 28.88C-24.4867 28.88 -24.4301 28.9083 -24.3901 28.965L-24.1401 29.29ZM-22.1269 25.67C-22.0169 25.5467 -21.9002 25.435 -21.7769 25.335C-21.6535 25.235 -21.5235 25.15 -21.3869 25.08C-21.2469 25.0067 -21.1002 24.9517 -20.9469 24.915C-20.7902 24.875 -20.6219 24.855 -20.4419 24.855C-20.1652 24.855 -19.9219 24.9017 -19.7119 24.995C-19.4985 25.085 -19.3219 25.215 -19.1819 25.385C-19.0385 25.5517 -18.9302 25.7533 -18.8569 25.99C-18.7835 26.2267 -18.7469 26.4883 -18.7469 26.775V30H-19.6419V26.775C-19.6419 26.3917 -19.7302 26.095 -19.9069 25.885C-20.0802 25.6717 -20.3452 25.565 -20.7019 25.565C-20.9652 25.565 -21.2119 25.6283 -21.4419 25.755C-21.6685 25.8817 -21.8785 26.0533 -22.0719 26.27V30H-22.9669V24.935H-22.4319C-22.3052 24.935 -22.2269 24.9967 -22.1969 25.12L-22.1269 25.67ZM-15.9041 30.08C-16.3041 30.08 -16.6124 29.9683 -16.8291 29.745C-17.0424 29.5217 -17.1491 29.2 -17.1491 28.78V25.68H-17.7591C-17.8124 25.68 -17.8574 25.665 -17.8941 25.635C-17.9307 25.6017 -17.9491 25.5517 -17.9491 25.485V25.13L-17.1191 25.025L-16.9141 23.46C-16.9041 23.41 -16.8824 23.37 -16.8491 23.34C-16.8124 23.3067 -16.7657 23.29 -16.7091 23.29H-16.2591V25.035H-14.7941V25.68H-16.2591V28.72C-16.2591 28.9333 -16.2074 29.0917 -16.1041 29.195C-16.0007 29.2983 -15.8674 29.35 -15.7041 29.35C-15.6107 29.35 -15.5307 29.3383 -15.4641 29.315C-15.3941 29.2883 -15.3341 29.26 -15.2841 29.23C-15.2341 29.2 -15.1924 29.1733 -15.1591 29.15C-15.1224 29.1233 -15.0907 29.11 -15.0641 29.11C-15.0174 29.11 -14.9757 29.1383 -14.9391 29.195L-14.6791 29.62C-14.8324 29.7633 -15.0174 29.8767 -15.2341 29.96C-15.4507 30.04 -15.6741 30.08 -15.9041 30.08ZM-11.7694 24.855C-11.3994 24.855 -11.066 24.9167 -10.7694 25.04C-10.4727 25.1633 -10.2194 25.3383 -10.0094 25.565C-9.79937 25.7917 -9.63937 26.0667 -9.52937 26.39C-9.41604 26.71 -9.35937 27.0683 -9.35937 27.465C-9.35937 27.865 -9.41604 28.225 -9.52937 28.545C-9.63937 28.865 -9.79937 29.1383 -10.0094 29.365C-10.2194 29.5917 -10.4727 29.7667 -10.7694 29.89C-11.066 30.01 -11.3994 30.07 -11.7694 30.07C-12.1427 30.07 -12.4794 30.01 -12.7794 29.89C-13.076 29.7667 -13.3294 29.5917 -13.5394 29.365C-13.7494 29.1383 -13.911 28.865 -14.0244 28.545C-14.1344 28.225 -14.1894 27.865 -14.1894 27.465C-14.1894 27.0683 -14.1344 26.71 -14.0244 26.39C-13.911 26.0667 -13.7494 25.7917 -13.5394 25.565C-13.3294 25.3383 -13.076 25.1633 -12.7794 25.04C-12.4794 24.9167 -12.1427 24.855 -11.7694 24.855ZM-11.7694 29.375C-11.2694 29.375 -10.896 29.2083 -10.6494 28.875C-10.4027 28.5383 -10.2794 28.07 -10.2794 27.47C-10.2794 26.8667 -10.4027 26.3967 -10.6494 26.06C-10.896 25.7233 -11.2694 25.555 -11.7694 25.555C-12.0227 25.555 -12.2444 25.5983 -12.4344 25.685C-12.621 25.7717 -12.7777 25.8967 -12.9044 26.06C-13.0277 26.2233 -13.121 26.425 -13.1844 26.665C-13.2444 26.9017 -13.2744 27.17 -13.2744 27.47C-13.2744 28.07 -13.151 28.5383 -12.9044 28.875C-12.6544 29.2083 -12.276 29.375 -11.7694 29.375ZM-7.38555 25.95C-7.22555 25.6033 -7.02888 25.3333 -6.79555 25.14C-6.56221 24.9433 -6.27721 24.845 -5.94055 24.845C-5.83388 24.845 -5.73221 24.8567 -5.63555 24.88C-5.53555 24.9033 -5.44721 24.94 -5.37055 24.99L-5.43555 25.655C-5.45555 25.7383 -5.50555 25.78 -5.58555 25.78C-5.63221 25.78 -5.70055 25.77 -5.79055 25.75C-5.88055 25.73 -5.98221 25.72 -6.09555 25.72C-6.25555 25.72 -6.39888 25.7433 -6.52555 25.79C-6.64888 25.8367 -6.76055 25.9067 -6.86055 26C-6.95721 26.09 -7.04555 26.2033 -7.12555 26.34C-7.20221 26.4733 -7.27221 26.6267 -7.33555 26.8V30H-8.23055V24.935H-7.72055C-7.62388 24.935 -7.55721 24.9533 -7.52055 24.99C-7.48388 25.0267 -7.45888 25.09 -7.44555 25.18L-7.38555 25.95ZM-3.64797 24.935V30H-4.53797V24.935H-3.64797ZM-3.45797 23.345C-3.45797 23.4317 -3.4763 23.5133 -3.51297 23.59C-3.5463 23.6633 -3.59297 23.73 -3.65297 23.79C-3.70964 23.8467 -3.77797 23.8917 -3.85797 23.925C-3.93464 23.9583 -4.0163 23.975 -4.10297 23.975C-4.18964 23.975 -4.2713 23.9583 -4.34797 23.925C-4.4213 23.8917 -4.4863 23.8467 -4.54297 23.79C-4.59964 23.73 -4.64464 23.6633 -4.67797 23.59C-4.7113 23.5133 -4.72797 23.4317 -4.72797 23.345C-4.72797 23.2583 -4.7113 23.1767 -4.67797 23.1C-4.64464 23.02 -4.59964 22.9517 -4.54297 22.895C-4.4863 22.835 -4.4213 22.7883 -4.34797 22.755C-4.2713 22.7217 -4.18964 22.705 -4.10297 22.705C-4.0163 22.705 -3.93464 22.7217 -3.85797 22.755C-3.77797 22.7883 -3.70964 22.835 -3.65297 22.895C-3.59297 22.9517 -3.5463 23.02 -3.51297 23.1C-3.4763 23.1767 -3.45797 23.2583 -3.45797 23.345ZM0.559375 27.72C0.149375 27.7333 -0.200625 27.7667 -0.490625 27.82C-0.777292 27.87 -1.01229 27.9367 -1.19562 28.02C-1.37562 28.1033 -1.50729 28.2017 -1.59062 28.315C-1.67062 28.4283 -1.71062 28.555 -1.71062 28.695C-1.71062 28.8283 -1.68896 28.9433 -1.64562 29.04C-1.60229 29.1367 -1.54396 29.2167 -1.47062 29.28C-1.39396 29.34 -1.30562 29.385 -1.20562 29.415C-1.10229 29.4417 -0.992292 29.455 -0.875625 29.455C-0.718958 29.455 -0.575625 29.44 -0.445625 29.41C-0.315625 29.3767 -0.193958 29.33 -0.0806248 29.27C0.0360417 29.21 0.146042 29.1383 0.249375 29.055C0.356042 28.9717 0.459375 28.8767 0.559375 28.77V27.72ZM-2.31562 25.65C-2.03562 25.38 -1.73396 25.1783 -1.41062 25.045C-1.08729 24.9117 -0.728958 24.845 -0.335625 24.845C-0.0522916 24.845 0.199375 24.8917 0.419375 24.985C0.639375 25.0783 0.824375 25.2083 0.974375 25.375C1.12438 25.5417 1.23771 25.7433 1.31438 25.98C1.39104 26.2167 1.42938 26.4767 1.42938 26.76V30H1.03438C0.947709 30 0.881042 29.9867 0.834375 29.96C0.787708 29.93 0.751042 29.8733 0.724375 29.79L0.624375 29.31C0.491042 29.4333 0.361042 29.5433 0.234375 29.64C0.107708 29.7333 -0.0256249 29.8133 -0.165625 29.88C-0.305625 29.9433 -0.455625 29.9917 -0.615625 30.025C-0.772292 30.0617 -0.947292 30.08 -1.14062 30.08C-1.33729 30.08 -1.52229 30.0533 -1.69562 30C-1.86896 29.9433 -2.02062 29.86 -2.15062 29.75C-2.27729 29.64 -2.37896 29.5017 -2.45562 29.335C-2.52896 29.165 -2.56562 28.965 -2.56562 28.735C-2.56562 28.535 -2.51062 28.3433 -2.40062 28.16C-2.29062 27.9733 -2.11229 27.8083 -1.86562 27.665C-1.61896 27.5217 -1.29729 27.405 -0.900625 27.315C-0.503958 27.2217 -0.0172915 27.1683 0.559375 27.155V26.76C0.559375 26.3667 0.474375 26.07 0.304375 25.87C0.134375 25.6667 -0.113958 25.565 -0.440625 25.565C-0.660625 25.565 -0.845625 25.5933 -0.995625 25.65C-1.14229 25.7033 -1.27062 25.765 -1.38062 25.835C-1.48729 25.9017 -1.58062 25.9633 -1.66062 26.02C-1.73729 26.0733 -1.81396 26.1 -1.89062 26.1C-1.95062 26.1 -2.00229 26.085 -2.04562 26.055C-2.08896 26.0217 -2.12562 25.9817 -2.15563 25.935L-2.31562 25.65ZM5.73508 25.77C5.69508 25.8433 5.63341 25.88 5.55008 25.88C5.50008 25.88 5.44341 25.8617 5.38008 25.825C5.31674 25.7883 5.23841 25.7483 5.14508 25.705C5.05508 25.6583 4.94674 25.6167 4.82008 25.58C4.69341 25.54 4.54341 25.52 4.37008 25.52C4.22008 25.52 4.08508 25.54 3.96508 25.58C3.84508 25.6167 3.74174 25.6683 3.65508 25.735C3.57174 25.8017 3.50674 25.88 3.46008 25.97C3.41674 26.0567 3.39508 26.1517 3.39508 26.255C3.39508 26.385 3.43174 26.4933 3.50508 26.58C3.58174 26.6667 3.68174 26.7417 3.80508 26.805C3.92841 26.8683 4.06841 26.925 4.22508 26.975C4.38174 27.0217 4.54174 27.0733 4.70508 27.13C4.87175 27.1833 5.03341 27.2433 5.19008 27.31C5.34674 27.3767 5.48674 27.46 5.61008 27.56C5.73341 27.66 5.83174 27.7833 5.90508 27.93C5.98175 28.0733 6.02008 28.2467 6.02008 28.45C6.02008 28.6833 5.97841 28.9 5.89508 29.1C5.81174 29.2967 5.68841 29.4683 5.52508 29.615C5.36174 29.7583 5.16174 29.8717 4.92508 29.955C4.68841 30.0383 4.41508 30.08 4.10508 30.08C3.75174 30.08 3.43174 30.0233 3.14508 29.91C2.85841 29.7933 2.61508 29.645 2.41508 29.465L2.62508 29.125C2.65174 29.0817 2.68341 29.0483 2.72008 29.025C2.75674 29.0017 2.80341 28.99 2.86008 28.99C2.92008 28.99 2.98341 29.0133 3.05008 29.06C3.11674 29.1067 3.19674 29.1583 3.29008 29.215C3.38674 29.2717 3.50341 29.3233 3.64008 29.37C3.77674 29.4167 3.94674 29.44 4.15008 29.44C4.32341 29.44 4.47508 29.4183 4.60508 29.375C4.73508 29.3283 4.84341 29.2667 4.93008 29.19C5.01674 29.1133 5.08008 29.025 5.12008 28.925C5.16341 28.825 5.18508 28.7183 5.18508 28.605C5.18508 28.465 5.14675 28.35 5.07008 28.26C4.99674 28.1667 4.89841 28.0883 4.77508 28.025C4.65174 27.9583 4.51008 27.9017 4.35008 27.855C4.19341 27.805 4.03174 27.7533 3.86508 27.7C3.70174 27.6467 3.54008 27.5867 3.38008 27.52C3.22341 27.45 3.08341 27.3633 2.96008 27.26C2.83674 27.1567 2.73674 27.03 2.66008 26.88C2.58674 26.7267 2.55008 26.5417 2.55008 26.325C2.55008 26.1317 2.59008 25.9467 2.67008 25.77C2.75008 25.59 2.86674 25.4333 3.02008 25.3C3.17341 25.1633 3.36174 25.055 3.58508 24.975C3.80841 24.895 4.06341 24.855 4.35008 24.855C4.68341 24.855 4.98174 24.9083 5.24508 25.015C5.51175 25.1183 5.74175 25.2617 5.93508 25.445L5.73508 25.77ZM21.2206 23.955C21.1906 24.005 21.1573 24.0433 21.1206 24.07C21.0873 24.0933 21.0456 24.105 20.9956 24.105C20.939 24.105 20.8723 24.0767 20.7956 24.02C20.719 23.9633 20.6223 23.9017 20.5056 23.835C20.3923 23.765 20.254 23.7017 20.0906 23.645C19.9306 23.5883 19.7356 23.56 19.5056 23.56C19.289 23.56 19.0973 23.59 18.9306 23.65C18.7673 23.7067 18.629 23.785 18.5156 23.885C18.4056 23.985 18.3223 24.1033 18.2656 24.24C18.209 24.3733 18.1806 24.5183 18.1806 24.675C18.1806 24.875 18.229 25.0417 18.3256 25.175C18.4256 25.305 18.5556 25.4167 18.7156 25.51C18.879 25.6033 19.0623 25.685 19.2656 25.755C19.4723 25.8217 19.6823 25.8917 19.8956 25.965C20.1123 26.0383 20.3223 26.1217 20.5256 26.215C20.7323 26.305 20.9156 26.42 21.0756 26.56C21.239 26.7 21.369 26.8717 21.4656 27.075C21.5656 27.2783 21.6156 27.5283 21.6156 27.825C21.6156 28.1383 21.5623 28.4333 21.4556 28.71C21.349 28.9833 21.1923 29.2217 20.9856 29.425C20.7823 29.6283 20.5306 29.7883 20.2306 29.905C19.934 30.0217 19.5956 30.08 19.2156 30.08C18.749 30.08 18.3256 29.9967 17.9456 29.83C17.5656 29.66 17.2406 29.4317 16.9706 29.145L17.2506 28.685C17.2773 28.6483 17.309 28.6183 17.3456 28.595C17.3856 28.5683 17.429 28.555 17.4756 28.555C17.519 28.555 17.5673 28.5733 17.6206 28.61C17.6773 28.6433 17.7406 28.6867 17.8106 28.74C17.8806 28.7933 17.9606 28.8517 18.0506 28.915C18.1406 28.9783 18.2423 29.0367 18.3556 29.09C18.4723 29.1433 18.604 29.1883 18.7506 29.225C18.8973 29.2583 19.0623 29.275 19.2456 29.275C19.4756 29.275 19.6806 29.2433 19.8606 29.18C20.0406 29.1167 20.1923 29.0283 20.3156 28.915C20.4423 28.7983 20.539 28.66 20.6056 28.5C20.6723 28.34 20.7056 28.1617 20.7056 27.965C20.7056 27.7483 20.6556 27.5717 20.5556 27.435C20.459 27.295 20.3306 27.1783 20.1706 27.085C20.0106 26.9917 19.8273 26.9133 19.6206 26.85C19.414 26.7833 19.204 26.7167 18.9906 26.65C18.7773 26.58 18.5673 26.5 18.3606 26.41C18.154 26.32 17.9706 26.2033 17.8106 26.06C17.6506 25.9167 17.5206 25.7383 17.4206 25.525C17.324 25.3083 17.2756 25.0417 17.2756 24.725C17.2756 24.4717 17.324 24.2267 17.4206 23.99C17.5206 23.7533 17.664 23.5433 17.8506 23.36C18.0406 23.1767 18.2723 23.03 18.5456 22.92C18.8223 22.81 19.139 22.755 19.4956 22.755C19.8956 22.755 20.259 22.8183 20.5856 22.945C20.9156 23.0717 21.2056 23.255 21.4556 23.495L21.2206 23.955ZM24.881 24.855C25.251 24.855 25.5843 24.9167 25.881 25.04C26.1777 25.1633 26.431 25.3383 26.641 25.565C26.851 25.7917 27.011 26.0667 27.121 26.39C27.2343 26.71 27.291 27.0683 27.291 27.465C27.291 27.865 27.2343 28.225 27.121 28.545C27.011 28.865 26.851 29.1383 26.641 29.365C26.431 29.5917 26.1777 29.7667 25.881 29.89C25.5843 30.01 25.251 30.07 24.881 30.07C24.5077 30.07 24.171 30.01 23.871 29.89C23.5743 29.7667 23.321 29.5917 23.111 29.365C22.901 29.1383 22.7393 28.865 22.626 28.545C22.516 28.225 22.461 27.865 22.461 27.465C22.461 27.0683 22.516 26.71 22.626 26.39C22.7393 26.0667 22.901 25.7917 23.111 25.565C23.321 25.3383 23.5743 25.1633 23.871 25.04C24.171 24.9167 24.5077 24.855 24.881 24.855ZM24.881 29.375C25.381 29.375 25.7543 29.2083 26.001 28.875C26.2477 28.5383 26.371 28.07 26.371 27.47C26.371 26.8667 26.2477 26.3967 26.001 26.06C25.7543 25.7233 25.381 25.555 24.881 25.555C24.6277 25.555 24.406 25.5983 24.216 25.685C24.0293 25.7717 23.8727 25.8967 23.746 26.06C23.6227 26.2233 23.5293 26.425 23.466 26.665C23.406 26.9017 23.376 27.17 23.376 27.47C23.376 28.07 23.4993 28.5383 23.746 28.875C23.996 29.2083 24.3743 29.375 24.881 29.375ZM29.3148 28.78C29.4782 29 29.6565 29.155 29.8498 29.245C30.0465 29.335 30.2615 29.38 30.4948 29.38C30.9715 29.38 31.3365 29.2117 31.5898 28.875C31.8432 28.5383 31.9698 28.0367 31.9698 27.37C31.9698 26.75 31.8565 26.295 31.6298 26.005C31.4065 25.7117 31.0865 25.565 30.6698 25.565C30.3798 25.565 30.1265 25.6317 29.9098 25.765C29.6965 25.8983 29.4982 26.0867 29.3148 26.33V28.78ZM29.3148 25.665C29.5282 25.4183 29.7682 25.2217 30.0348 25.075C30.3048 24.9283 30.6148 24.855 30.9648 24.855C31.2615 24.855 31.5282 24.9117 31.7648 25.025C32.0048 25.1383 32.2082 25.3033 32.3748 25.52C32.5415 25.7333 32.6682 25.9933 32.7548 26.3C32.8448 26.6067 32.8898 26.9517 32.8898 27.335C32.8898 27.745 32.8398 28.1183 32.7398 28.455C32.6398 28.7917 32.4948 29.08 32.3048 29.32C32.1182 29.5567 31.8898 29.7417 31.6198 29.875C31.3498 30.005 31.0465 30.07 30.7098 30.07C30.3765 30.07 30.0948 30.0083 29.8648 29.885C29.6382 29.7583 29.4398 29.58 29.2698 29.35L29.2248 29.81C29.1982 29.9367 29.1215 30 28.9948 30H28.4198V22.635H29.3148V25.665ZM34.8605 25.95C35.0205 25.6033 35.2172 25.3333 35.4505 25.14C35.6839 24.9433 35.9689 24.845 36.3055 24.845C36.4122 24.845 36.5139 24.8567 36.6105 24.88C36.7105 24.9033 36.7989 24.94 36.8755 24.99L36.8105 25.655C36.7905 25.7383 36.7405 25.78 36.6605 25.78C36.6139 25.78 36.5455 25.77 36.4555 25.75C36.3655 25.73 36.2639 25.72 36.1505 25.72C35.9905 25.72 35.8472 25.7433 35.7205 25.79C35.5972 25.8367 35.4855 25.9067 35.3855 26C35.2889 26.09 35.2005 26.2033 35.1205 26.34C35.0439 26.4733 34.9739 26.6267 34.9105 26.8V30H34.0155V24.935H34.5255C34.6222 24.935 34.6889 24.9533 34.7255 24.99C34.7622 25.0267 34.7872 25.09 34.8005 25.18L34.8605 25.95ZM40.843 26.915C40.843 26.7083 40.813 26.52 40.753 26.35C40.6964 26.1767 40.6114 26.0283 40.498 25.905C40.388 25.7783 40.253 25.6817 40.093 25.615C39.933 25.545 39.7514 25.51 39.548 25.51C39.1214 25.51 38.783 25.635 38.533 25.885C38.2864 26.1317 38.133 26.475 38.073 26.915H40.843ZM41.563 29.29C41.453 29.4233 41.3214 29.54 41.168 29.64C41.0147 29.7367 40.8497 29.8167 40.673 29.88C40.4997 29.9433 40.3197 29.99 40.133 30.02C39.9464 30.0533 39.7614 30.07 39.578 30.07C39.228 30.07 38.9047 30.0117 38.608 29.895C38.3147 29.775 38.0597 29.6017 37.843 29.375C37.6297 29.145 37.463 28.8617 37.343 28.525C37.223 28.1883 37.163 27.8017 37.163 27.365C37.163 27.0117 37.2164 26.6817 37.323 26.375C37.433 26.0683 37.5897 25.8033 37.793 25.58C37.9964 25.3533 38.2447 25.1767 38.538 25.05C38.8314 24.92 39.1614 24.855 39.528 24.855C39.8314 24.855 40.1114 24.9067 40.368 25.01C40.628 25.11 40.8514 25.2567 41.038 25.45C41.228 25.64 41.3764 25.8767 41.483 26.16C41.5897 26.44 41.643 26.76 41.643 27.12C41.643 27.26 41.628 27.3533 41.598 27.4C41.568 27.4467 41.5114 27.47 41.428 27.47H38.043C38.053 27.79 38.0964 28.0683 38.173 28.305C38.253 28.5417 38.363 28.74 38.503 28.9C38.643 29.0567 38.8097 29.175 39.003 29.255C39.1964 29.3317 39.413 29.37 39.653 29.37C39.8764 29.37 40.068 29.345 40.228 29.295C40.3914 29.2417 40.5314 29.185 40.648 29.125C40.7647 29.065 40.8614 29.01 40.938 28.96C41.018 28.9067 41.0864 28.88 41.143 28.88C41.2164 28.88 41.273 28.9083 41.313 28.965L41.563 29.29ZM55.2956 26.55C55.5723 26.55 55.8156 26.5133 56.0256 26.44C56.239 26.3667 56.4173 26.265 56.5606 26.135C56.7073 26.0017 56.8173 25.8433 56.8906 25.66C56.964 25.4767 57.0006 25.275 57.0006 25.055C57.0006 24.5983 56.859 24.2417 56.5756 23.985C56.2956 23.7283 55.869 23.6 55.2956 23.6H54.1456V26.55H55.2956ZM55.2956 22.835C55.749 22.835 56.1423 22.8883 56.4756 22.995C56.8123 23.0983 57.0906 23.2467 57.3106 23.44C57.5306 23.6333 57.694 23.8667 57.8006 24.14C57.9106 24.4133 57.9656 24.7183 57.9656 25.055C57.9656 25.3883 57.9073 25.6933 57.7906 25.97C57.674 26.2467 57.5023 26.485 57.2756 26.685C57.0523 26.885 56.774 27.0417 56.4406 27.155C56.1106 27.265 55.729 27.32 55.2956 27.32H54.1456V30H53.1806V22.835H55.2956ZM59.7238 25.95C59.8838 25.6033 60.0805 25.3333 60.3138 25.14C60.5472 24.9433 60.8322 24.845 61.1688 24.845C61.2755 24.845 61.3772 24.8567 61.4738 24.88C61.5738 24.9033 61.6622 24.94 61.7388 24.99L61.6738 25.655C61.6538 25.7383 61.6038 25.78 61.5238 25.78C61.4772 25.78 61.4088 25.77 61.3188 25.75C61.2288 25.73 61.1272 25.72 61.0138 25.72C60.8538 25.72 60.7105 25.7433 60.5838 25.79C60.4605 25.8367 60.3488 25.9067 60.2488 26C60.1522 26.09 60.0638 26.2033 59.9838 26.34C59.9072 26.4733 59.8372 26.6267 59.7738 26.8V30H58.8788V24.935H59.3888C59.4855 24.935 59.5522 24.9533 59.5888 24.99C59.6255 25.0267 59.6505 25.09 59.6638 25.18L59.7238 25.95ZM63.4614 24.935V30H62.5714V24.935H63.4614ZM63.6514 23.345C63.6514 23.4317 63.6331 23.5133 63.5964 23.59C63.5631 23.6633 63.5164 23.73 63.4564 23.79C63.3997 23.8467 63.3314 23.8917 63.2514 23.925C63.1747 23.9583 63.0931 23.975 63.0064 23.975C62.9197 23.975 62.8381 23.9583 62.7614 23.925C62.6881 23.8917 62.6231 23.8467 62.5664 23.79C62.5097 23.73 62.4647 23.6633 62.4314 23.59C62.3981 23.5133 62.3814 23.4317 62.3814 23.345C62.3814 23.2583 62.3981 23.1767 62.4314 23.1C62.4647 23.02 62.5097 22.9517 62.5664 22.895C62.6231 22.835 62.6881 22.7883 62.7614 22.755C62.8381 22.7217 62.9197 22.705 63.0064 22.705C63.0931 22.705 63.1747 22.7217 63.2514 22.755C63.3314 22.7883 63.3997 22.835 63.4564 22.895C63.5164 22.9517 63.5631 23.02 63.5964 23.1C63.6331 23.1767 63.6514 23.2583 63.6514 23.345ZM65.7638 25.67C65.8738 25.5467 65.9904 25.435 66.1138 25.335C66.2371 25.235 66.3671 25.15 66.5038 25.08C66.6438 25.0067 66.7904 24.9517 66.9438 24.915C67.1004 24.875 67.2688 24.855 67.4488 24.855C67.7254 24.855 67.9688 24.9017 68.1788 24.995C68.3921 25.085 68.5688 25.215 68.7088 25.385C68.8521 25.5517 68.9604 25.7533 69.0338 25.99C69.1071 26.2267 69.1438 26.4883 69.1438 26.775V30H68.2488V26.775C68.2488 26.3917 68.1604 26.095 67.9838 25.885C67.8104 25.6717 67.5454 25.565 67.1888 25.565C66.9254 25.565 66.6788 25.6283 66.4488 25.755C66.2221 25.8817 66.0121 26.0533 65.8188 26.27V30H64.9238V24.935H65.4588C65.5854 24.935 65.6638 24.9967 65.6938 25.12L65.7638 25.67ZM74.0249 25.835C73.9983 25.8717 73.9716 25.9 73.9449 25.92C73.9183 25.94 73.8816 25.95 73.8349 25.95C73.7849 25.95 73.7299 25.93 73.6699 25.89C73.6099 25.8467 73.5349 25.8 73.4449 25.75C73.3583 25.7 73.2499 25.655 73.1199 25.615C72.9933 25.5717 72.8366 25.55 72.6499 25.55C72.3999 25.55 72.1799 25.595 71.9899 25.685C71.7999 25.7717 71.6399 25.8983 71.5099 26.065C71.3833 26.2317 71.2866 26.4333 71.2199 26.67C71.1566 26.9067 71.1249 27.1717 71.1249 27.465C71.1249 27.7717 71.1599 28.045 71.2299 28.285C71.2999 28.5217 71.3983 28.7217 71.5249 28.885C71.6549 29.045 71.8099 29.1683 71.9899 29.255C72.1733 29.3383 72.3783 29.38 72.6049 29.38C72.8216 29.38 72.9999 29.355 73.1399 29.305C73.2799 29.2517 73.3949 29.1933 73.4849 29.13C73.5783 29.0667 73.6549 29.01 73.7149 28.96C73.7783 28.9067 73.8399 28.88 73.8999 28.88C73.9733 28.88 74.0299 28.9083 74.0699 28.965L74.3199 29.29C74.2099 29.4267 74.0849 29.5433 73.9449 29.64C73.8049 29.7367 73.6533 29.8183 73.4899 29.885C73.3299 29.9483 73.1616 29.995 72.9849 30.025C72.8083 30.055 72.6283 30.07 72.4449 30.07C72.1283 30.07 71.8333 30.0117 71.5599 29.895C71.2899 29.7783 71.0549 29.61 70.8549 29.39C70.6549 29.1667 70.4983 28.8933 70.3849 28.57C70.2716 28.2467 70.2149 27.8783 70.2149 27.465C70.2149 27.0883 70.2666 26.74 70.3699 26.42C70.4766 26.1 70.6299 25.825 70.8299 25.595C71.0333 25.3617 71.2816 25.18 71.5749 25.05C71.8716 24.92 72.2116 24.855 72.5949 24.855C72.9516 24.855 73.2649 24.9133 73.5349 25.03C73.8083 25.1433 74.0499 25.305 74.2599 25.515L74.0249 25.835ZM76.2203 24.935V30H75.3253V24.935H76.2203ZM77.2503 22.755L76.0853 24.045C76.0386 24.095 75.992 24.1317 75.9453 24.155C75.902 24.175 75.8453 24.185 75.7753 24.185H75.2453L75.9853 22.975C76.032 22.8983 76.082 22.8433 76.1353 22.81C76.192 22.7733 76.2736 22.755 76.3803 22.755H77.2503ZM78.5727 28.78C78.736 29 78.9143 29.155 79.1077 29.245C79.301 29.335 79.5177 29.38 79.7577 29.38C80.231 29.38 80.5943 29.2117 80.8477 28.875C81.101 28.5383 81.2277 28.0583 81.2277 27.435C81.2277 27.105 81.1977 26.8217 81.1377 26.585C81.081 26.3483 80.9977 26.155 80.8877 26.005C80.7777 25.8517 80.6427 25.74 80.4827 25.67C80.3227 25.6 80.141 25.565 79.9377 25.565C79.6477 25.565 79.3927 25.6317 79.1727 25.765C78.956 25.8983 78.756 26.0867 78.5727 26.33V28.78ZM78.5277 25.72C78.741 25.4567 78.9877 25.245 79.2677 25.085C79.5477 24.925 79.8677 24.845 80.2277 24.845C80.521 24.845 80.786 24.9017 81.0227 25.015C81.2593 25.125 81.461 25.29 81.6277 25.51C81.7943 25.7267 81.9227 25.9967 82.0127 26.32C82.1027 26.6433 82.1477 27.015 82.1477 27.435C82.1477 27.8083 82.0977 28.1567 81.9977 28.48C81.8977 28.8 81.7527 29.0783 81.5627 29.315C81.376 29.5483 81.146 29.7333 80.8727 29.87C80.6027 30.0033 80.2977 30.07 79.9577 30.07C79.6477 30.07 79.381 30.0183 79.1577 29.915C78.9377 29.8083 78.7427 29.6617 78.5727 29.475V31.715H77.6777V24.935H78.2127C78.3393 24.935 78.4177 24.9967 78.4477 25.12L78.5277 25.72ZM84.2231 24.935V30H83.3331V24.935H84.2231ZM84.4131 23.345C84.4131 23.4317 84.3948 23.5133 84.3581 23.59C84.3248 23.6633 84.2781 23.73 84.2181 23.79C84.1615 23.8467 84.0931 23.8917 84.0131 23.925C83.9365 23.9583 83.8548 23.975 83.7681 23.975C83.6815 23.975 83.5998 23.9583 83.5231 23.925C83.4498 23.8917 83.3848 23.8467 83.3281 23.79C83.2715 23.73 83.2265 23.6633 83.1931 23.59C83.1598 23.5133 83.1431 23.4317 83.1431 23.345C83.1431 23.2583 83.1598 23.1767 83.1931 23.1C83.2265 23.02 83.2715 22.9517 83.3281 22.895C83.3848 22.835 83.4498 22.7883 83.5231 22.755C83.5998 22.7217 83.6815 22.705 83.7681 22.705C83.8548 22.705 83.9365 22.7217 84.0131 22.755C84.0931 22.7883 84.1615 22.835 84.2181 22.895C84.2781 22.9517 84.3248 23.02 84.3581 23.1C84.3948 23.1767 84.4131 23.2583 84.4131 23.345ZM87.8205 24.855C88.1905 24.855 88.5238 24.9167 88.8205 25.04C89.1171 25.1633 89.3705 25.3383 89.5805 25.565C89.7905 25.7917 89.9505 26.0667 90.0605 26.39C90.1738 26.71 90.2305 27.0683 90.2305 27.465C90.2305 27.865 90.1738 28.225 90.0605 28.545C89.9505 28.865 89.7905 29.1383 89.5805 29.365C89.3705 29.5917 89.1171 29.7667 88.8205 29.89C88.5238 30.01 88.1905 30.07 87.8205 30.07C87.4471 30.07 87.1105 30.01 86.8105 29.89C86.5138 29.7667 86.2605 29.5917 86.0505 29.365C85.8405 29.1383 85.6788 28.865 85.5655 28.545C85.4555 28.225 85.4005 27.865 85.4005 27.465C85.4005 27.0683 85.4555 26.71 85.5655 26.39C85.6788 26.0667 85.8405 25.7917 86.0505 25.565C86.2605 25.3383 86.5138 25.1633 86.8105 25.04C87.1105 24.9167 87.4471 24.855 87.8205 24.855ZM87.8205 29.375C88.3205 29.375 88.6938 29.2083 88.9405 28.875C89.1871 28.5383 89.3105 28.07 89.3105 27.47C89.3105 26.8667 89.1871 26.3967 88.9405 26.06C88.6938 25.7233 88.3205 25.555 87.8205 25.555C87.5671 25.555 87.3455 25.5983 87.1555 25.685C86.9688 25.7717 86.8121 25.8967 86.6855 26.06C86.5621 26.2233 86.4688 26.425 86.4055 26.665C86.3455 26.9017 86.3155 27.17 86.3155 27.47C86.3155 28.07 86.4388 28.5383 86.6855 28.875C86.9355 29.2083 87.3138 29.375 87.8205 29.375ZM94.3093 25.77C94.2693 25.8433 94.2076 25.88 94.1243 25.88C94.0743 25.88 94.0176 25.8617 93.9543 25.825C93.891 25.7883 93.8126 25.7483 93.7193 25.705C93.6293 25.6583 93.521 25.6167 93.3943 25.58C93.2676 25.54 93.1176 25.52 92.9443 25.52C92.7943 25.52 92.6593 25.54 92.5393 25.58C92.4193 25.6167 92.316 25.6683 92.2293 25.735C92.146 25.8017 92.081 25.88 92.0343 25.97C91.991 26.0567 91.9693 26.1517 91.9693 26.255C91.9693 26.385 92.006 26.4933 92.0793 26.58C92.156 26.6667 92.256 26.7417 92.3793 26.805C92.5026 26.8683 92.6426 26.925 92.7993 26.975C92.956 27.0217 93.116 27.0733 93.2793 27.13C93.446 27.1833 93.6076 27.2433 93.7643 27.31C93.921 27.3767 94.061 27.46 94.1843 27.56C94.3076 27.66 94.406 27.7833 94.4793 27.93C94.556 28.0733 94.5943 28.2467 94.5943 28.45C94.5943 28.6833 94.5526 28.9 94.4693 29.1C94.386 29.2967 94.2626 29.4683 94.0993 29.615C93.936 29.7583 93.736 29.8717 93.4993 29.955C93.2626 30.0383 92.9893 30.08 92.6793 30.08C92.326 30.08 92.006 30.0233 91.7193 29.91C91.4326 29.7933 91.1893 29.645 90.9893 29.465L91.1993 29.125C91.226 29.0817 91.2576 29.0483 91.2943 29.025C91.331 29.0017 91.3776 28.99 91.4343 28.99C91.4943 28.99 91.5576 29.0133 91.6243 29.06C91.691 29.1067 91.771 29.1583 91.8643 29.215C91.961 29.2717 92.0776 29.3233 92.2143 29.37C92.351 29.4167 92.521 29.44 92.7243 29.44C92.8976 29.44 93.0493 29.4183 93.1793 29.375C93.3093 29.3283 93.4176 29.2667 93.5043 29.19C93.591 29.1133 93.6543 29.025 93.6943 28.925C93.7376 28.825 93.7593 28.7183 93.7593 28.605C93.7593 28.465 93.721 28.35 93.6443 28.26C93.571 28.1667 93.4726 28.0883 93.3493 28.025C93.226 27.9583 93.0843 27.9017 92.9243 27.855C92.7676 27.805 92.606 27.7533 92.4393 27.7C92.276 27.6467 92.1143 27.5867 91.9543 27.52C91.7976 27.45 91.6576 27.3633 91.5343 27.26C91.411 27.1567 91.311 27.03 91.2343 26.88C91.161 26.7267 91.1243 26.5417 91.1243 26.325C91.1243 26.1317 91.1643 25.9467 91.2443 25.77C91.3243 25.59 91.441 25.4333 91.5943 25.3C91.7476 25.1633 91.936 25.055 92.1593 24.975C92.3826 24.895 92.6376 24.855 92.9243 24.855C93.2576 24.855 93.556 24.9083 93.8193 25.015C94.086 25.1183 94.316 25.2617 94.5093 25.445L94.3093 25.77ZM-50.1699 38.42C-50.1699 38.9567 -50.2549 39.445 -50.4249 39.885C-50.5949 40.325 -50.8349 40.7017 -51.1449 41.015C-51.4549 41.3283 -51.8283 41.5717 -52.2649 41.745C-52.6983 41.915 -53.1783 42 -53.7049 42H-56.3799V34.835H-53.7049C-53.1783 34.835 -52.6983 34.9217 -52.2649 35.095C-51.8283 35.265 -51.4549 35.5083 -51.1449 35.825C-50.8349 36.1383 -50.5949 36.515 -50.4249 36.955C-50.2549 37.395 -50.1699 37.8833 -50.1699 38.42ZM-51.1649 38.42C-51.1649 37.98 -51.2249 37.5867 -51.3449 37.24C-51.4649 36.8933 -51.6349 36.6 -51.8549 36.36C-52.0749 36.12 -52.3416 35.9367 -52.6549 35.81C-52.9683 35.6833 -53.3183 35.62 -53.7049 35.62H-55.4099V41.215H-53.7049C-53.3183 41.215 -52.9683 41.1517 -52.6549 41.025C-52.3416 40.8983 -52.0749 40.7167 -51.8549 40.48C-51.6349 40.24 -51.4649 39.9467 -51.3449 39.6C-51.2249 39.2533 -51.1649 38.86 -51.1649 38.42ZM-45.6609 38.915C-45.6609 38.7083 -45.6909 38.52 -45.7509 38.35C-45.8075 38.1767 -45.8925 38.0283 -46.0059 37.905C-46.1159 37.7783 -46.2509 37.6817 -46.4109 37.615C-46.5709 37.545 -46.7525 37.51 -46.9559 37.51C-47.3825 37.51 -47.7209 37.635 -47.9709 37.885C-48.2175 38.1317 -48.3709 38.475 -48.4309 38.915H-45.6609ZM-44.9409 41.29C-45.0509 41.4233 -45.1825 41.54 -45.3359 41.64C-45.4892 41.7367 -45.6542 41.8167 -45.8309 41.88C-46.0042 41.9433 -46.1842 41.99 -46.3709 42.02C-46.5575 42.0533 -46.7425 42.07 -46.9259 42.07C-47.2759 42.07 -47.5992 42.0117 -47.8959 41.895C-48.1892 41.775 -48.4442 41.6017 -48.6609 41.375C-48.8742 41.145 -49.0409 40.8617 -49.1609 40.525C-49.2809 40.1883 -49.3409 39.8017 -49.3409 39.365C-49.3409 39.0117 -49.2875 38.6817 -49.1809 38.375C-49.0709 38.0683 -48.9142 37.8033 -48.7109 37.58C-48.5075 37.3533 -48.2592 37.1767 -47.9659 37.05C-47.6725 36.92 -47.3425 36.855 -46.9759 36.855C-46.6725 36.855 -46.3925 36.9067 -46.1359 37.01C-45.8759 37.11 -45.6525 37.2567 -45.4659 37.45C-45.2759 37.64 -45.1275 37.8767 -45.0209 38.16C-44.9142 38.44 -44.8609 38.76 -44.8609 39.12C-44.8609 39.26 -44.8759 39.3533 -44.9059 39.4C-44.9359 39.4467 -44.9925 39.47 -45.0759 39.47H-48.4609C-48.4509 39.79 -48.4075 40.0683 -48.3309 40.305C-48.2509 40.5417 -48.1409 40.74 -48.0009 40.9C-47.8609 41.0567 -47.6942 41.175 -47.5009 41.255C-47.3075 41.3317 -47.0909 41.37 -46.8509 41.37C-46.6275 41.37 -46.4359 41.345 -46.2759 41.295C-46.1125 41.2417 -45.9725 41.185 -45.8559 41.125C-45.7392 41.065 -45.6425 41.01 -45.5659 40.96C-45.4859 40.9067 -45.4175 40.88 -45.3609 40.88C-45.2875 40.88 -45.2309 40.9083 -45.1909 40.965L-44.9409 41.29ZM-42.8727 40.78C-42.7093 41 -42.531 41.155 -42.3377 41.245C-42.1443 41.335 -41.9277 41.38 -41.6877 41.38C-41.2143 41.38 -40.851 41.2117 -40.5977 40.875C-40.3443 40.5383 -40.2177 40.0583 -40.2177 39.435C-40.2177 39.105 -40.2477 38.8217 -40.3077 38.585C-40.3643 38.3483 -40.4477 38.155 -40.5577 38.005C-40.6677 37.8517 -40.8027 37.74 -40.9627 37.67C-41.1227 37.6 -41.3043 37.565 -41.5077 37.565C-41.7977 37.565 -42.0527 37.6317 -42.2727 37.765C-42.4893 37.8983 -42.6893 38.0867 -42.8727 38.33V40.78ZM-42.9177 37.72C-42.7043 37.4567 -42.4577 37.245 -42.1777 37.085C-41.8977 36.925 -41.5777 36.845 -41.2177 36.845C-40.9243 36.845 -40.6593 36.9017 -40.4227 37.015C-40.186 37.125 -39.9843 37.29 -39.8177 37.51C-39.651 37.7267 -39.5227 37.9967 -39.4327 38.32C-39.3427 38.6433 -39.2977 39.015 -39.2977 39.435C-39.2977 39.8083 -39.3477 40.1567 -39.4477 40.48C-39.5477 40.8 -39.6927 41.0783 -39.8827 41.315C-40.0693 41.5483 -40.2993 41.7333 -40.5727 41.87C-40.8427 42.0033 -41.1477 42.07 -41.4877 42.07C-41.7977 42.07 -42.0643 42.0183 -42.2877 41.915C-42.5077 41.8083 -42.7027 41.6617 -42.8727 41.475V43.715H-43.7677V36.935H-43.2327C-43.106 36.935 -43.0277 36.9967 -42.9977 37.12L-42.9177 37.72ZM-36.0272 36.855C-35.6572 36.855 -35.3239 36.9167 -35.0272 37.04C-34.7305 37.1633 -34.4772 37.3383 -34.2672 37.565C-34.0572 37.7917 -33.8972 38.0667 -33.7872 38.39C-33.6739 38.71 -33.6172 39.0683 -33.6172 39.465C-33.6172 39.865 -33.6739 40.225 -33.7872 40.545C-33.8972 40.865 -34.0572 41.1383 -34.2672 41.365C-34.4772 41.5917 -34.7305 41.7667 -35.0272 41.89C-35.3239 42.01 -35.6572 42.07 -36.0272 42.07C-36.4005 42.07 -36.7372 42.01 -37.0372 41.89C-37.3339 41.7667 -37.5872 41.5917 -37.7972 41.365C-38.0072 41.1383 -38.1689 40.865 -38.2822 40.545C-38.3922 40.225 -38.4472 39.865 -38.4472 39.465C-38.4472 39.0683 -38.3922 38.71 -38.2822 38.39C-38.1689 38.0667 -38.0072 37.7917 -37.7972 37.565C-37.5872 37.3383 -37.3339 37.1633 -37.0372 37.04C-36.7372 36.9167 -36.4005 36.855 -36.0272 36.855ZM-36.0272 41.375C-35.5272 41.375 -35.1539 41.2083 -34.9072 40.875C-34.6605 40.5383 -34.5372 40.07 -34.5372 39.47C-34.5372 38.8667 -34.6605 38.3967 -34.9072 38.06C-35.1539 37.7233 -35.5272 37.555 -36.0272 37.555C-36.2805 37.555 -36.5022 37.5983 -36.6922 37.685C-36.8789 37.7717 -37.0355 37.8967 -37.1622 38.06C-37.2855 38.2233 -37.3789 38.425 -37.4422 38.665C-37.5022 38.9017 -37.5322 39.17 -37.5322 39.47C-37.5322 40.07 -37.4089 40.5383 -37.1622 40.875C-36.9122 41.2083 -36.5339 41.375 -36.0272 41.375ZM-31.5484 36.935V42H-32.4384V36.935H-31.5484ZM-31.3584 35.345C-31.3584 35.4317 -31.3767 35.5133 -31.4134 35.59C-31.4467 35.6633 -31.4934 35.73 -31.5534 35.79C-31.61 35.8467 -31.6784 35.8917 -31.7584 35.925C-31.835 35.9583 -31.9167 35.975 -32.0034 35.975C-32.09 35.975 -32.1717 35.9583 -32.2484 35.925C-32.3217 35.8917 -32.3867 35.8467 -32.4434 35.79C-32.5 35.73 -32.545 35.6633 -32.5784 35.59C-32.6117 35.5133 -32.6284 35.4317 -32.6284 35.345C-32.6284 35.2583 -32.6117 35.1767 -32.5784 35.1C-32.545 35.02 -32.5 34.9517 -32.4434 34.895C-32.3867 34.835 -32.3217 34.7883 -32.2484 34.755C-32.1717 34.7217 -32.09 34.705 -32.0034 34.705C-31.9167 34.705 -31.835 34.7217 -31.7584 34.755C-31.6784 34.7883 -31.61 34.835 -31.5534 34.895C-31.4934 34.9517 -31.4467 35.02 -31.4134 35.1C-31.3767 35.1767 -31.3584 35.2583 -31.3584 35.345ZM-30.086 42V36.935H-29.551C-29.4243 36.935 -29.346 36.9967 -29.316 37.12L-29.251 37.64C-29.0643 37.41 -28.8543 37.2217 -28.621 37.075C-28.3877 36.9283 -28.1177 36.855 -27.811 36.855C-27.471 36.855 -27.196 36.95 -26.986 37.14C-26.7727 37.33 -26.6193 37.5867 -26.526 37.91C-26.4527 37.7267 -26.3593 37.5683 -26.246 37.435C-26.1293 37.3017 -25.9993 37.1917 -25.856 37.105C-25.7127 37.0183 -25.561 36.955 -25.401 36.915C-25.2377 36.875 -25.0727 36.855 -24.906 36.855C-24.6393 36.855 -24.4027 36.8983 -24.196 36.985C-23.986 37.0683 -23.8093 37.1917 -23.666 37.355C-23.5193 37.5183 -23.4077 37.72 -23.331 37.96C-23.2543 38.1967 -23.216 38.4683 -23.216 38.775V42H-24.111V38.775C-24.111 38.3783 -24.1977 38.0783 -24.371 37.875C-24.5443 37.6683 -24.7943 37.565 -25.121 37.565C-25.2677 37.565 -25.4077 37.5917 -25.541 37.645C-25.671 37.695 -25.786 37.77 -25.886 37.87C-25.986 37.97 -26.066 38.0967 -26.126 38.25C-26.1827 38.4 -26.211 38.575 -26.211 38.775V42H-27.106V38.775C-27.106 38.3683 -27.1877 38.065 -27.351 37.865C-27.5143 37.665 -27.7527 37.565 -28.066 37.565C-28.286 37.565 -28.4893 37.625 -28.676 37.745C-28.8627 37.8617 -29.0343 38.0217 -29.191 38.225V42H-30.086ZM-18.4734 38.915C-18.4734 38.7083 -18.5034 38.52 -18.5634 38.35C-18.62 38.1767 -18.705 38.0283 -18.8184 37.905C-18.9284 37.7783 -19.0634 37.6817 -19.2234 37.615C-19.3834 37.545 -19.565 37.51 -19.7684 37.51C-20.195 37.51 -20.5334 37.635 -20.7834 37.885C-21.03 38.1317 -21.1834 38.475 -21.2434 38.915H-18.4734ZM-17.7534 41.29C-17.8634 41.4233 -17.995 41.54 -18.1484 41.64C-18.3017 41.7367 -18.4667 41.8167 -18.6434 41.88C-18.8167 41.9433 -18.9967 41.99 -19.1834 42.02C-19.37 42.0533 -19.555 42.07 -19.7384 42.07C-20.0884 42.07 -20.4117 42.0117 -20.7084 41.895C-21.0017 41.775 -21.2567 41.6017 -21.4734 41.375C-21.6867 41.145 -21.8534 40.8617 -21.9734 40.525C-22.0934 40.1883 -22.1534 39.8017 -22.1534 39.365C-22.1534 39.0117 -22.1 38.6817 -21.9934 38.375C-21.8834 38.0683 -21.7267 37.8033 -21.5234 37.58C-21.32 37.3533 -21.0717 37.1767 -20.7784 37.05C-20.485 36.92 -20.155 36.855 -19.7884 36.855C-19.485 36.855 -19.205 36.9067 -18.9484 37.01C-18.6884 37.11 -18.465 37.2567 -18.2784 37.45C-18.0884 37.64 -17.94 37.8767 -17.8334 38.16C-17.7267 38.44 -17.6734 38.76 -17.6734 39.12C-17.6734 39.26 -17.6884 39.3533 -17.7184 39.4C-17.7484 39.4467 -17.805 39.47 -17.8884 39.47H-21.2734C-21.2634 39.79 -21.22 40.0683 -21.1434 40.305C-21.0634 40.5417 -20.9534 40.74 -20.8134 40.9C-20.6734 41.0567 -20.5067 41.175 -20.3134 41.255C-20.12 41.3317 -19.9034 41.37 -19.6634 41.37C-19.44 41.37 -19.2484 41.345 -19.0884 41.295C-18.925 41.2417 -18.785 41.185 -18.6684 41.125C-18.5517 41.065 -18.455 41.01 -18.3784 40.96C-18.2984 40.9067 -18.23 40.88 -18.1734 40.88C-18.1 40.88 -18.0434 40.9083 -18.0034 40.965L-17.7534 41.29ZM-15.7402 37.67C-15.6302 37.5467 -15.5135 37.435 -15.3902 37.335C-15.2668 37.235 -15.1368 37.15 -15.0002 37.08C-14.8602 37.0067 -14.7135 36.9517 -14.5602 36.915C-14.4035 36.875 -14.2352 36.855 -14.0552 36.855C-13.7785 36.855 -13.5352 36.9017 -13.3252 36.995C-13.1118 37.085 -12.9352 37.215 -12.7952 37.385C-12.6518 37.5517 -12.5435 37.7533 -12.4702 37.99C-12.3968 38.2267 -12.3602 38.4883 -12.3602 38.775V42H-13.2552V38.775C-13.2552 38.3917 -13.3435 38.095 -13.5202 37.885C-13.6935 37.6717 -13.9585 37.565 -14.3152 37.565C-14.5785 37.565 -14.8252 37.6283 -15.0552 37.755C-15.2818 37.8817 -15.4918 38.0533 -15.6852 38.27V42H-16.5802V36.935H-16.0452C-15.9185 36.935 -15.8402 36.9967 -15.8102 37.12L-15.7402 37.67ZM-9.51734 42.08C-9.91734 42.08 -10.2257 41.9683 -10.4423 41.745C-10.6557 41.5217 -10.7623 41.2 -10.7623 40.78V37.68H-11.3723C-11.4257 37.68 -11.4707 37.665 -11.5073 37.635C-11.544 37.6017 -11.5623 37.5517 -11.5623 37.485V37.13L-10.7323 37.025L-10.5273 35.46C-10.5173 35.41 -10.4957 35.37 -10.4623 35.34C-10.4257 35.3067 -10.379 35.29 -10.3223 35.29H-9.87234V37.035H-8.40734V37.68H-9.87234V40.72C-9.87234 40.9333 -9.82068 41.0917 -9.71734 41.195C-9.61401 41.2983 -9.48068 41.35 -9.31734 41.35C-9.22401 41.35 -9.14401 41.3383 -9.07734 41.315C-9.00734 41.2883 -8.94734 41.26 -8.89734 41.23C-8.84734 41.2 -8.80568 41.1733 -8.77234 41.15C-8.73568 41.1233 -8.70401 41.11 -8.67734 41.11C-8.63068 41.11 -8.58901 41.1383 -8.55234 41.195L-8.29234 41.62C-8.44568 41.7633 -8.63068 41.8767 -8.84734 41.96C-9.06401 42.04 -9.28734 42.08 -9.51734 42.08ZM-5.38266 36.855C-5.01266 36.855 -4.67932 36.9167 -4.38266 37.04C-4.08599 37.1633 -3.83266 37.3383 -3.62266 37.565C-3.41266 37.7917 -3.25266 38.0667 -3.14266 38.39C-3.02932 38.71 -2.97266 39.0683 -2.97266 39.465C-2.97266 39.865 -3.02932 40.225 -3.14266 40.545C-3.25266 40.865 -3.41266 41.1383 -3.62266 41.365C-3.83266 41.5917 -4.08599 41.7667 -4.38266 41.89C-4.67932 42.01 -5.01266 42.07 -5.38266 42.07C-5.75599 42.07 -6.09266 42.01 -6.39266 41.89C-6.68932 41.7667 -6.94266 41.5917 -7.15266 41.365C-7.36266 41.1383 -7.52432 40.865 -7.63766 40.545C-7.74766 40.225 -7.80266 39.865 -7.80266 39.465C-7.80266 39.0683 -7.74766 38.71 -7.63766 38.39C-7.52432 38.0667 -7.36266 37.7917 -7.15266 37.565C-6.94266 37.3383 -6.68932 37.1633 -6.39266 37.04C-6.09266 36.9167 -5.75599 36.855 -5.38266 36.855ZM-5.38266 41.375C-4.88266 41.375 -4.50932 41.2083 -4.26266 40.875C-4.01599 40.5383 -3.89266 40.07 -3.89266 39.47C-3.89266 38.8667 -4.01599 38.3967 -4.26266 38.06C-4.50932 37.7233 -4.88266 37.555 -5.38266 37.555C-5.63599 37.555 -5.85766 37.5983 -6.04766 37.685C-6.23432 37.7717 -6.39099 37.8967 -6.51766 38.06C-6.64099 38.2233 -6.73432 38.425 -6.79766 38.665C-6.85766 38.9017 -6.88766 39.17 -6.88766 39.47C-6.88766 40.07 -6.76432 40.5383 -6.51766 40.875C-6.26766 41.2083 -5.88932 41.375 -5.38266 41.375ZM1.10617 37.77C1.06617 37.8433 1.00451 37.88 0.921172 37.88C0.871172 37.88 0.814505 37.8617 0.751172 37.825C0.687839 37.7883 0.609505 37.7483 0.516172 37.705C0.426172 37.6583 0.317839 37.6167 0.191172 37.58C0.0645054 37.54 -0.0854946 37.52 -0.258828 37.52C-0.408828 37.52 -0.543828 37.54 -0.663828 37.58C-0.783828 37.6167 -0.887161 37.6683 -0.973828 37.735C-1.05716 37.8017 -1.12216 37.88 -1.16883 37.97C-1.21216 38.0567 -1.23383 38.1517 -1.23383 38.255C-1.23383 38.385 -1.19716 38.4933 -1.12383 38.58C-1.04716 38.6667 -0.947161 38.7417 -0.823828 38.805C-0.700495 38.8683 -0.560495 38.925 -0.403828 38.975C-0.247161 39.0217 -0.0871614 39.0733 0.0761721 39.13C0.242839 39.1833 0.404505 39.2433 0.561172 39.31C0.717839 39.3767 0.857839 39.46 0.981172 39.56C1.10451 39.66 1.20284 39.7833 1.27617 39.93C1.35284 40.0733 1.39117 40.2467 1.39117 40.45C1.39117 40.6833 1.34951 40.9 1.26617 41.1C1.18284 41.2967 1.05951 41.4683 0.896172 41.615C0.732839 41.7583 0.532839 41.8717 0.296172 41.955C0.0595053 42.0383 -0.213828 42.08 -0.523828 42.08C-0.877161 42.08 -1.19716 42.0233 -1.48383 41.91C-1.77049 41.7933 -2.01383 41.645 -2.21383 41.465L-2.00383 41.125C-1.97716 41.0817 -1.94549 41.0483 -1.90883 41.025C-1.87216 41.0017 -1.82549 40.99 -1.76883 40.99C-1.70883 40.99 -1.64549 41.0133 -1.57883 41.06C-1.51216 41.1067 -1.43216 41.1583 -1.33883 41.215C-1.24216 41.2717 -1.12549 41.3233 -0.988828 41.37C-0.852161 41.4167 -0.682161 41.44 -0.478828 41.44C-0.305495 41.44 -0.153828 41.4183 -0.0238281 41.375C0.106172 41.3283 0.214505 41.2667 0.301172 41.19C0.387839 41.1133 0.451172 41.025 0.491172 40.925C0.534505 40.825 0.556172 40.7183 0.556172 40.605C0.556172 40.465 0.517839 40.35 0.441172 40.26C0.367839 40.1667 0.269505 40.0883 0.146172 40.025C0.0228387 39.9583 -0.118828 39.9017 -0.278828 39.855C-0.435495 39.805 -0.597161 39.7533 -0.763828 39.7C-0.927161 39.6467 -1.08883 39.5867 -1.24883 39.52C-1.40549 39.45 -1.54549 39.3633 -1.66883 39.26C-1.79216 39.1567 -1.89216 39.03 -1.96883 38.88C-2.04216 38.7267 -2.07883 38.5417 -2.07883 38.325C-2.07883 38.1317 -2.03883 37.9467 -1.95883 37.77C-1.87883 37.59 -1.76216 37.4333 -1.60883 37.3C-1.45549 37.1633 -1.26716 37.055 -1.04383 36.975C-0.820495 36.895 -0.565495 36.855 -0.278828 36.855C0.0545053 36.855 0.352839 36.9083 0.616172 37.015C0.882839 37.1183 1.11284 37.2617 1.30617 37.445L1.10617 37.77ZM17.9567 40.52C18.0101 40.52 18.0567 40.5417 18.0967 40.585L18.4817 41C18.1884 41.34 17.8317 41.605 17.4117 41.795C16.9951 41.985 16.4901 42.08 15.8967 42.08C15.3834 42.08 14.9167 41.9917 14.4967 41.815C14.0767 41.635 13.7184 41.385 13.4217 41.065C13.1251 40.7417 12.8951 40.355 12.7317 39.905C12.5684 39.455 12.4867 38.96 12.4867 38.42C12.4867 37.88 12.5717 37.385 12.7417 36.935C12.9117 36.485 13.1501 36.0983 13.4567 35.775C13.7667 35.4517 14.1367 35.2017 14.5667 35.025C14.9967 34.845 15.4717 34.755 15.9917 34.755C16.5017 34.755 16.9517 34.8367 17.3417 35C17.7317 35.1633 18.0751 35.385 18.3717 35.665L18.0517 36.11C18.0317 36.1433 18.0051 36.1717 17.9717 36.195C17.9417 36.215 17.9001 36.225 17.8467 36.225C17.7867 36.225 17.7134 36.1933 17.6267 36.13C17.5401 36.0633 17.4267 35.99 17.2867 35.91C17.1467 35.83 16.9717 35.7583 16.7617 35.695C16.5517 35.6283 16.2934 35.595 15.9867 35.595C15.6167 35.595 15.2784 35.66 14.9717 35.79C14.6651 35.9167 14.4001 36.1017 14.1767 36.345C13.9567 36.5883 13.7851 36.885 13.6617 37.235C13.5384 37.585 13.4767 37.98 13.4767 38.42C13.4767 38.8667 13.5401 39.265 13.6667 39.615C13.7967 39.965 13.9717 40.2617 14.1917 40.505C14.4151 40.745 14.6767 40.9283 14.9767 41.055C15.2801 41.1817 15.6067 41.245 15.9567 41.245C16.1701 41.245 16.3617 41.2333 16.5317 41.21C16.7051 41.1833 16.8634 41.1433 17.0067 41.09C17.1534 41.0367 17.2884 40.97 17.4117 40.89C17.5384 40.8067 17.6634 40.7083 17.7867 40.595C17.8434 40.545 17.9001 40.52 17.9567 40.52ZM21.4338 36.855C21.8038 36.855 22.1371 36.9167 22.4338 37.04C22.7304 37.1633 22.9838 37.3383 23.1938 37.565C23.4038 37.7917 23.5638 38.0667 23.6738 38.39C23.7871 38.71 23.8438 39.0683 23.8438 39.465C23.8438 39.865 23.7871 40.225 23.6738 40.545C23.5638 40.865 23.4038 41.1383 23.1938 41.365C22.9838 41.5917 22.7304 41.7667 22.4338 41.89C22.1371 42.01 21.8038 42.07 21.4338 42.07C21.0604 42.07 20.7238 42.01 20.4238 41.89C20.1271 41.7667 19.8738 41.5917 19.6638 41.365C19.4538 41.1383 19.2921 40.865 19.1788 40.545C19.0688 40.225 19.0138 39.865 19.0138 39.465C19.0138 39.0683 19.0688 38.71 19.1788 38.39C19.2921 38.0667 19.4538 37.7917 19.6638 37.565C19.8738 37.3383 20.1271 37.1633 20.4238 37.04C20.7238 36.9167 21.0604 36.855 21.4338 36.855ZM21.4338 41.375C21.9338 41.375 22.3071 41.2083 22.5538 40.875C22.8004 40.5383 22.9238 40.07 22.9238 39.47C22.9238 38.8667 22.8004 38.3967 22.5538 38.06C22.3071 37.7233 21.9338 37.555 21.4338 37.555C21.1804 37.555 20.9588 37.5983 20.7688 37.685C20.5821 37.7717 20.4254 37.8967 20.2988 38.06C20.1754 38.2233 20.0821 38.425 20.0188 38.665C19.9588 38.9017 19.9288 39.17 19.9288 39.47C19.9288 40.07 20.0521 40.5383 20.2988 40.875C20.5488 41.2083 20.9271 41.375 21.4338 41.375ZM25.8126 37.67C25.9226 37.5467 26.0392 37.435 26.1626 37.335C26.2859 37.235 26.4159 37.15 26.5526 37.08C26.6926 37.0067 26.8392 36.9517 26.9926 36.915C27.1492 36.875 27.3176 36.855 27.4976 36.855C27.7742 36.855 28.0176 36.9017 28.2276 36.995C28.4409 37.085 28.6176 37.215 28.7576 37.385C28.9009 37.5517 29.0092 37.7533 29.0826 37.99C29.1559 38.2267 29.1926 38.4883 29.1926 38.775V42H28.2976V38.775C28.2976 38.3917 28.2092 38.095 28.0326 37.885C27.8592 37.6717 27.5942 37.565 27.2376 37.565C26.9742 37.565 26.7276 37.6283 26.4976 37.755C26.2709 37.8817 26.0609 38.0533 25.8676 38.27V42H24.9726V36.935H25.5076C25.6342 36.935 25.7126 36.9967 25.7426 37.12L25.8126 37.67ZM32.0354 42.08C31.6354 42.08 31.3271 41.9683 31.1104 41.745C30.8971 41.5217 30.7904 41.2 30.7904 40.78V37.68H30.1804C30.1271 37.68 30.0821 37.665 30.0454 37.635C30.0087 37.6017 29.9904 37.5517 29.9904 37.485V37.13L30.8204 37.025L31.0254 35.46C31.0354 35.41 31.0571 35.37 31.0904 35.34C31.1271 35.3067 31.1737 35.29 31.2304 35.29H31.6804V37.035H33.1454V37.68H31.6804V40.72C31.6804 40.9333 31.7321 41.0917 31.8354 41.195C31.9387 41.2983 32.0721 41.35 32.2354 41.35C32.3287 41.35 32.4087 41.3383 32.4754 41.315C32.5454 41.2883 32.6054 41.26 32.6554 41.23C32.7054 41.2 32.7471 41.1733 32.7804 41.15C32.8171 41.1233 32.8487 41.11 32.8754 41.11C32.9221 41.11 32.9637 41.1383 33.0004 41.195L33.2604 41.62C33.1071 41.7633 32.9221 41.8767 32.7054 41.96C32.4887 42.04 32.2654 42.08 32.0354 42.08ZM36.8094 39.72C36.3994 39.7333 36.0494 39.7667 35.7594 39.82C35.4727 39.87 35.2377 39.9367 35.0544 40.02C34.8744 40.1033 34.7427 40.2017 34.6594 40.315C34.5794 40.4283 34.5394 40.555 34.5394 40.695C34.5394 40.8283 34.561 40.9433 34.6044 41.04C34.6477 41.1367 34.706 41.2167 34.7794 41.28C34.856 41.34 34.9444 41.385 35.0444 41.415C35.1477 41.4417 35.2577 41.455 35.3744 41.455C35.531 41.455 35.6744 41.44 35.8044 41.41C35.9344 41.3767 36.056 41.33 36.1694 41.27C36.286 41.21 36.396 41.1383 36.4994 41.055C36.606 40.9717 36.7094 40.8767 36.8094 40.77V39.72ZM33.9344 37.65C34.2144 37.38 34.516 37.1783 34.8394 37.045C35.1627 36.9117 35.521 36.845 35.9144 36.845C36.1977 36.845 36.4494 36.8917 36.6694 36.985C36.8894 37.0783 37.0744 37.2083 37.2244 37.375C37.3744 37.5417 37.4877 37.7433 37.5644 37.98C37.641 38.2167 37.6794 38.4767 37.6794 38.76V42H37.2844C37.1977 42 37.131 41.9867 37.0844 41.96C37.0377 41.93 37.001 41.8733 36.9744 41.79L36.8744 41.31C36.741 41.4333 36.611 41.5433 36.4844 41.64C36.3577 41.7333 36.2244 41.8133 36.0844 41.88C35.9444 41.9433 35.7944 41.9917 35.6344 42.025C35.4777 42.0617 35.3027 42.08 35.1094 42.08C34.9127 42.08 34.7277 42.0533 34.5544 42C34.381 41.9433 34.2294 41.86 34.0994 41.75C33.9727 41.64 33.871 41.5017 33.7944 41.335C33.721 41.165 33.6844 40.965 33.6844 40.735C33.6844 40.535 33.7394 40.3433 33.8494 40.16C33.9594 39.9733 34.1377 39.8083 34.3844 39.665C34.631 39.5217 34.9527 39.405 35.3494 39.315C35.746 39.2217 36.2327 39.1683 36.8094 39.155V38.76C36.8094 38.3667 36.7244 38.07 36.5544 37.87C36.3844 37.6667 36.136 37.565 35.8094 37.565C35.5894 37.565 35.4044 37.5933 35.2544 37.65C35.1077 37.7033 34.9794 37.765 34.8694 37.835C34.7627 37.9017 34.6694 37.9633 34.5894 38.02C34.5127 38.0733 34.436 38.1 34.3594 38.1C34.2994 38.1 34.2477 38.085 34.2044 38.055C34.161 38.0217 34.1244 37.9817 34.0944 37.935L33.9344 37.65ZM40.5217 42.08C40.1217 42.08 39.8134 41.9683 39.5967 41.745C39.3834 41.5217 39.2767 41.2 39.2767 40.78V37.68H38.6667C38.6134 37.68 38.5684 37.665 38.5317 37.635C38.4951 37.6017 38.4767 37.5517 38.4767 37.485V37.13L39.3067 37.025L39.5117 35.46C39.5217 35.41 39.5434 35.37 39.5767 35.34C39.6134 35.3067 39.6601 35.29 39.7167 35.29H40.1667V37.035H41.6317V37.68H40.1667V40.72C40.1667 40.9333 40.2184 41.0917 40.3217 41.195C40.4251 41.2983 40.5584 41.35 40.7217 41.35C40.8151 41.35 40.8951 41.3383 40.9617 41.315C41.0317 41.2883 41.0917 41.26 41.1417 41.23C41.1917 41.2 41.2334 41.1733 41.2667 41.15C41.3034 41.1233 41.3351 41.11 41.3617 41.11C41.4084 41.11 41.4501 41.1383 41.4867 41.195L41.7467 41.62C41.5934 41.7633 41.4084 41.8767 41.1917 41.96C40.9751 42.04 40.7517 42.08 40.5217 42.08ZM44.6564 36.855C45.0264 36.855 45.3597 36.9167 45.6564 37.04C45.9531 37.1633 46.2064 37.3383 46.4164 37.565C46.6264 37.7917 46.7864 38.0667 46.8964 38.39C47.0097 38.71 47.0664 39.0683 47.0664 39.465C47.0664 39.865 47.0097 40.225 46.8964 40.545C46.7864 40.865 46.6264 41.1383 46.4164 41.365C46.2064 41.5917 45.9531 41.7667 45.6564 41.89C45.3597 42.01 45.0264 42.07 44.6564 42.07C44.2831 42.07 43.9464 42.01 43.6464 41.89C43.3497 41.7667 43.0964 41.5917 42.8864 41.365C42.6764 41.1383 42.5147 40.865 42.4014 40.545C42.2914 40.225 42.2364 39.865 42.2364 39.465C42.2364 39.0683 42.2914 38.71 42.4014 38.39C42.5147 38.0667 42.6764 37.7917 42.8864 37.565C43.0964 37.3383 43.3497 37.1633 43.6464 37.04C43.9464 36.9167 44.2831 36.855 44.6564 36.855ZM44.6564 41.375C45.1564 41.375 45.5297 41.2083 45.7764 40.875C46.0231 40.5383 46.1464 40.07 46.1464 39.47C46.1464 38.8667 46.0231 38.3967 45.7764 38.06C45.5297 37.7233 45.1564 37.555 44.6564 37.555C44.4031 37.555 44.1814 37.5983 43.9914 37.685C43.8047 37.7717 43.6481 37.8967 43.5214 38.06C43.3981 38.2233 43.3047 38.425 43.2414 38.665C43.1814 38.9017 43.1514 39.17 43.1514 39.47C43.1514 40.07 43.2747 40.5383 43.5214 40.875C43.7714 41.2083 44.1497 41.375 44.6564 41.375ZM61.1546 41.23C61.4313 41.23 61.6696 41.1983 61.8696 41.135C62.0696 41.0717 62.2329 40.9833 62.3596 40.87C62.4896 40.7533 62.5846 40.6167 62.6446 40.46C62.7046 40.3 62.7346 40.125 62.7346 39.935C62.7346 39.565 62.6029 39.2733 62.3396 39.06C62.0763 38.8433 61.6813 38.735 61.1546 38.735H59.6046V41.23H61.1546ZM59.6046 35.6V38.045H60.8846C61.1579 38.045 61.3946 38.015 61.5946 37.955C61.7979 37.895 61.9646 37.8117 62.0946 37.705C62.2279 37.5983 62.3263 37.47 62.3896 37.32C62.4529 37.1667 62.4846 37 62.4846 36.82C62.4846 36.3967 62.3579 36.0883 62.1046 35.895C61.8513 35.6983 61.4579 35.6 60.9246 35.6H59.6046ZM60.9246 34.835C61.3646 34.835 61.7429 34.8783 62.0596 34.965C62.3796 35.0517 62.6413 35.175 62.8446 35.335C63.0513 35.495 63.2029 35.6917 63.2996 35.925C63.3963 36.155 63.4446 36.415 63.4446 36.705C63.4446 36.8817 63.4163 37.0517 63.3596 37.215C63.3063 37.375 63.2246 37.525 63.1146 37.665C63.0046 37.805 62.8646 37.9317 62.6946 38.045C62.5279 38.155 62.3313 38.245 62.1046 38.315C62.6313 38.415 63.0263 38.6033 63.2896 38.88C63.5563 39.1533 63.6896 39.5133 63.6896 39.96C63.6896 40.2633 63.6329 40.54 63.5196 40.79C63.4096 41.04 63.2463 41.255 63.0296 41.435C62.8163 41.615 62.5529 41.755 62.2396 41.855C61.9263 41.9517 61.5696 42 61.1696 42H58.6396V34.835H60.9246ZM65.7168 34.635V42H64.8268V34.635H65.7168ZM69.2951 36.855C69.6651 36.855 69.9984 36.9167 70.2951 37.04C70.5917 37.1633 70.8451 37.3383 71.0551 37.565C71.2651 37.7917 71.4251 38.0667 71.5351 38.39C71.6484 38.71 71.7051 39.0683 71.7051 39.465C71.7051 39.865 71.6484 40.225 71.5351 40.545C71.4251 40.865 71.2651 41.1383 71.0551 41.365C70.8451 41.5917 70.5917 41.7667 70.2951 41.89C69.9984 42.01 69.6651 42.07 69.2951 42.07C68.9217 42.07 68.5851 42.01 68.2851 41.89C67.9884 41.7667 67.7351 41.5917 67.5251 41.365C67.3151 41.1383 67.1534 40.865 67.0401 40.545C66.9301 40.225 66.8751 39.865 66.8751 39.465C66.8751 39.0683 66.9301 38.71 67.0401 38.39C67.1534 38.0667 67.3151 37.7917 67.5251 37.565C67.7351 37.3383 67.9884 37.1633 68.2851 37.04C68.5851 36.9167 68.9217 36.855 69.2951 36.855ZM69.2951 41.375C69.7951 41.375 70.1684 41.2083 70.4151 40.875C70.6617 40.5383 70.7851 40.07 70.7851 39.47C70.7851 38.8667 70.6617 38.3967 70.4151 38.06C70.1684 37.7233 69.7951 37.555 69.2951 37.555C69.0417 37.555 68.8201 37.5983 68.6301 37.685C68.4434 37.7717 68.2867 37.8967 68.1601 38.06C68.0367 38.2233 67.9434 38.425 67.8801 38.665C67.8201 38.9017 67.7901 39.17 67.7901 39.47C67.7901 40.07 67.9134 40.5383 68.1601 40.875C68.4101 41.2083 68.7884 41.375 69.2951 41.375ZM74.5696 39.525C74.7496 39.525 74.9079 39.5 75.0446 39.45C75.1813 39.4 75.2963 39.33 75.3896 39.24C75.4829 39.15 75.5529 39.0433 75.5996 38.92C75.6463 38.7933 75.6696 38.655 75.6696 38.505C75.6696 38.195 75.5746 37.9483 75.3846 37.765C75.1979 37.5817 74.9263 37.49 74.5696 37.49C74.2096 37.49 73.9346 37.5817 73.7446 37.765C73.5579 37.9483 73.4646 38.195 73.4646 38.505C73.4646 38.655 73.4879 38.7933 73.5346 38.92C73.5846 39.0433 73.6563 39.15 73.7496 39.24C73.8429 39.33 73.9579 39.4 74.0946 39.45C74.2313 39.5 74.3896 39.525 74.5696 39.525ZM76.1746 42.275C76.1746 42.1517 76.1396 42.0517 76.0696 41.975C75.9996 41.8983 75.9046 41.8383 75.7846 41.795C75.6679 41.7517 75.5313 41.7217 75.3746 41.705C75.2179 41.685 75.0513 41.67 74.8746 41.66C74.7013 41.65 74.5246 41.64 74.3446 41.63C74.1646 41.62 73.9913 41.6033 73.8246 41.58C73.6379 41.6667 73.4846 41.7767 73.3646 41.91C73.2479 42.04 73.1896 42.1933 73.1896 42.37C73.1896 42.4833 73.2179 42.5883 73.2746 42.685C73.3346 42.785 73.4246 42.87 73.5446 42.94C73.6646 43.0133 73.8146 43.07 73.9946 43.11C74.1779 43.1533 74.3929 43.175 74.6396 43.175C74.8796 43.175 75.0946 43.1533 75.2846 43.11C75.4746 43.0667 75.6346 43.005 75.7646 42.925C75.8979 42.845 75.9996 42.75 76.0696 42.64C76.1396 42.53 76.1746 42.4083 76.1746 42.275ZM77.0796 37.135V37.465C77.0796 37.575 77.0096 37.645 76.8696 37.675L76.2946 37.75C76.4079 37.97 76.4646 38.2133 76.4646 38.48C76.4646 38.7267 76.4163 38.9517 76.3196 39.155C76.2263 39.355 76.0963 39.5267 75.9296 39.67C75.7629 39.8133 75.5629 39.9233 75.3296 40C75.0963 40.0767 74.8429 40.115 74.5696 40.115C74.3329 40.115 74.1096 40.0867 73.8996 40.03C73.7929 40.0967 73.7113 40.1683 73.6546 40.245C73.5979 40.3183 73.5696 40.3933 73.5696 40.47C73.5696 40.59 73.6179 40.6817 73.7146 40.745C73.8146 40.805 73.9446 40.8483 74.1046 40.875C74.2646 40.9017 74.4463 40.9183 74.6496 40.925C74.8563 40.9317 75.0663 40.9433 75.2796 40.96C75.4963 40.9733 75.7063 40.9983 75.9096 41.035C76.1163 41.0717 76.2996 41.1317 76.4596 41.215C76.6196 41.2983 76.7479 41.4133 76.8446 41.56C76.9446 41.7067 76.9946 41.8967 76.9946 42.13C76.9946 42.3467 76.9396 42.5567 76.8296 42.76C76.7229 42.9633 76.5679 43.1433 76.3646 43.3C76.1613 43.46 75.9113 43.5867 75.6146 43.68C75.3213 43.7767 74.9896 43.825 74.6196 43.825C74.2496 43.825 73.9263 43.7883 73.6496 43.715C73.3729 43.6417 73.1429 43.5433 72.9596 43.42C72.7763 43.2967 72.6379 43.1533 72.5446 42.99C72.4546 42.83 72.4096 42.6617 72.4096 42.485C72.4096 42.235 72.4879 42.0233 72.6446 41.85C72.8013 41.6767 73.0163 41.5383 73.2896 41.435C73.1396 41.3683 73.0196 41.28 72.9296 41.17C72.8429 41.0567 72.7996 40.905 72.7996 40.715C72.7996 40.6417 72.8129 40.5667 72.8396 40.49C72.8663 40.41 72.9063 40.3317 72.9596 40.255C73.0163 40.175 73.0846 40.1 73.1646 40.03C73.2446 39.96 73.3379 39.8983 73.4446 39.845C73.1946 39.705 72.9996 39.52 72.8596 39.29C72.7196 39.0567 72.6496 38.7867 72.6496 38.48C72.6496 38.2333 72.6963 38.01 72.7896 37.81C72.8863 37.6067 73.0196 37.435 73.1896 37.295C73.3596 37.1517 73.5613 37.0417 73.7946 36.965C74.0313 36.8883 74.2896 36.85 74.5696 36.85C74.7896 36.85 74.9946 36.875 75.1846 36.925C75.3746 36.9717 75.5479 37.0417 75.7046 37.135H77.0796Z" fill="white"/>
</g>
</g>
<defs>
<linearGradient id="paint0_linear_0_1" x1="320" y1="2315.5" x2="-2.56245e-05" y2="2315.5" gradientUnits="userSpaceOnUse">
<stop stop-color="white"/>
<stop offset="0.5" stop-color="#FFF6D1"/>
<stop offset="1" stop-color="#FAEAA5"/>
</linearGradient>
<linearGradient id="paint1_linear_0_1" x1="160" y1="0" x2="160" y2="100" gradientUnits="userSpaceOnUse">
<stop stop-color="#1C4140"/>
<stop offset="1" stop-color="#2A5B5A"/>
</linearGradient>
<clipPath id="clip0_0_1">
<rect width="320" height="4631" fill="white" transform="translate(-150 -4574)"/>
</clipPath>
<clipPath id="clip1_0_1">
<rect width="24" height="24" fill="white" transform="translate(0 0.461426)"/>
</clipPath>
</defs>
</svg>
