<svg width="168" height="34" viewBox="0 0 168 34" fill="none" xmlns="http://www.w3.org/2000/svg">
<path d="M29.5135 7.54652H34.4935V13.5365C33.7535 14.0765 32.9635 14.4732 32.1235 14.7265C31.2901 14.9732 30.4068 15.0965 29.4735 15.0965C28.2801 15.0965 27.2001 14.9132 26.2335 14.5465C25.2668 14.1732 24.4401 13.6565 23.7535 12.9965C23.0668 12.3365 22.5368 11.5532 22.1635 10.6465C21.7901 9.73986 21.6035 8.74986 21.6035 7.67652C21.6035 6.58986 21.7801 5.59319 22.1335 4.68652C22.4935 3.77986 23.0035 2.99986 23.6635 2.34652C24.3235 1.69319 25.1201 1.18319 26.0535 0.816523C26.9935 0.449856 28.0435 0.266522 29.2035 0.266522C29.8035 0.266522 30.3635 0.316523 30.8835 0.416523C31.4035 0.509856 31.8835 0.643189 32.3235 0.816523C32.7635 0.983189 33.1668 1.18319 33.5335 1.41652C33.9001 1.64986 34.2335 1.90652 34.5335 2.18652L33.6635 3.52652C33.5301 3.73986 33.3568 3.86986 33.1435 3.91652C32.9301 3.96319 32.6968 3.90986 32.4435 3.75652C32.2035 3.60986 31.9668 3.47986 31.7335 3.36652C31.5068 3.24652 31.2635 3.14319 31.0035 3.05652C30.7435 2.96986 30.4601 2.90319 30.1535 2.85652C29.8468 2.80986 29.4935 2.78652 29.0935 2.78652C28.4201 2.78652 27.8101 2.90319 27.2635 3.13652C26.7168 3.36986 26.2501 3.69986 25.8635 4.12652C25.4835 4.55319 25.1901 5.06652 24.9835 5.66652C24.7768 6.26652 24.6735 6.93652 24.6735 7.67652C24.6735 8.47652 24.7868 9.19319 25.0135 9.82652C25.2401 10.4532 25.5601 10.9832 25.9735 11.4165C26.3868 11.8499 26.8801 12.1799 27.4535 12.4065C28.0335 12.6332 28.6768 12.7465 29.3835 12.7465C29.8635 12.7465 30.2901 12.6999 30.6635 12.6065C31.0435 12.5065 31.4135 12.3732 31.7735 12.2065V9.76652H30.1335C29.9401 9.76652 29.7868 9.71652 29.6735 9.61652C29.5668 9.50986 29.5135 9.37652 29.5135 9.21652V7.54652ZM39.3861 4.62652V14.9365H36.6261V4.62652H39.3861ZM39.7161 1.69652C39.7161 1.92986 39.6695 2.14652 39.5761 2.34652C39.4828 2.54652 39.3561 2.72319 39.1961 2.87652C39.0428 3.02986 38.8595 3.14986 38.6461 3.23652C38.4395 3.32319 38.2161 3.36652 37.9761 3.36652C37.7495 3.36652 37.5328 3.32319 37.3261 3.23652C37.1261 3.14986 36.9495 3.02986 36.7961 2.87652C36.6428 2.72319 36.5195 2.54652 36.4261 2.34652C36.3395 2.14652 36.2961 1.92986 36.2961 1.69652C36.2961 1.46319 36.3395 1.24652 36.4261 1.04652C36.5195 0.839856 36.6428 0.659856 36.7961 0.506523C36.9495 0.353189 37.1261 0.233189 37.3261 0.146523C37.5328 0.0598558 37.7495 0.0165224 37.9761 0.0165224C38.2161 0.0165224 38.4395 0.0598558 38.6461 0.146523C38.8595 0.233189 39.0428 0.353189 39.1961 0.506523C39.3561 0.659856 39.4828 0.839856 39.5761 1.04652C39.6695 1.24652 39.7161 1.46319 39.7161 1.69652ZM48.1514 6.74652C48.0781 6.85986 48.0014 6.94319 47.9214 6.99652C47.8481 7.04319 47.7448 7.06652 47.6114 7.06652C47.4781 7.06652 47.3414 7.03319 47.2014 6.96652C47.0614 6.89986 46.9048 6.82986 46.7314 6.75652C46.5581 6.67652 46.3581 6.60319 46.1314 6.53652C45.9114 6.46986 45.6548 6.43652 45.3614 6.43652C44.9148 6.43652 44.5681 6.52986 44.3214 6.71652C44.0748 6.89652 43.9514 7.13652 43.9514 7.43652C43.9514 7.64319 44.0214 7.81652 44.1614 7.95652C44.3014 8.09652 44.4848 8.21986 44.7114 8.32652C44.9448 8.42652 45.2081 8.52319 45.5014 8.61652C45.7948 8.70319 46.0948 8.79986 46.4014 8.90652C46.7148 9.01319 47.0181 9.13652 47.3114 9.27652C47.6048 9.41652 47.8648 9.59319 48.0914 9.80652C48.3248 10.0132 48.5114 10.2665 48.6514 10.5665C48.7914 10.8599 48.8614 11.2165 48.8614 11.6365C48.8614 12.1365 48.7681 12.5999 48.5814 13.0265C48.4014 13.4465 48.1348 13.8099 47.7814 14.1165C47.4281 14.4232 46.9881 14.6632 46.4614 14.8365C45.9348 15.0099 45.3281 15.0965 44.6414 15.0965C44.2881 15.0965 43.9381 15.0632 43.5914 14.9965C43.2448 14.9365 42.9148 14.8499 42.6014 14.7365C42.2881 14.6165 41.9948 14.4799 41.7214 14.3265C41.4481 14.1732 41.2114 14.0065 41.0114 13.8265L41.6514 12.7965C41.7248 12.6765 41.8148 12.5832 41.9214 12.5165C42.0348 12.4499 42.1781 12.4165 42.3514 12.4165C42.5181 12.4165 42.6714 12.4599 42.8114 12.5465C42.9514 12.6265 43.1081 12.7165 43.2814 12.8165C43.4548 12.9099 43.6581 12.9999 43.8914 13.0865C44.1314 13.1665 44.4281 13.2065 44.7814 13.2065C45.0481 13.2065 45.2781 13.1765 45.4714 13.1165C45.6648 13.0565 45.8214 12.9765 45.9414 12.8765C46.0614 12.7699 46.1481 12.6532 46.2014 12.5265C46.2614 12.3932 46.2914 12.2565 46.2914 12.1165C46.2914 11.8899 46.2181 11.7065 46.0714 11.5665C45.9314 11.4199 45.7448 11.2932 45.5114 11.1865C45.2848 11.0799 45.0214 10.9832 44.7214 10.8965C44.4214 10.8099 44.1148 10.7132 43.8014 10.6065C43.4948 10.4999 43.1914 10.3732 42.8914 10.2265C42.5981 10.0799 42.3348 9.89652 42.1014 9.67652C41.8748 9.44986 41.6881 9.17319 41.5414 8.84652C41.4014 8.51986 41.3314 8.12319 41.3314 7.65652C41.3314 7.22986 41.4148 6.82652 41.5814 6.44652C41.7481 6.05986 41.9981 5.71986 42.3314 5.42652C42.6648 5.13319 43.0781 4.89986 43.5714 4.72652C44.0714 4.55319 44.6481 4.46652 45.3014 4.46652C46.0348 4.46652 46.7014 4.58652 47.3014 4.82652C47.9014 5.06652 48.3948 5.37986 48.7814 5.76652L48.1514 6.74652ZM57.1291 8.56652C57.1291 8.27986 57.0891 8.00652 57.0091 7.74652C56.9358 7.48652 56.8158 7.25652 56.6491 7.05652C56.4824 6.85652 56.2724 6.69986 56.0191 6.58652C55.7658 6.46652 55.4624 6.40652 55.1091 6.40652C54.4491 6.40652 53.9324 6.59319 53.5591 6.96652C53.1858 7.33986 52.9424 7.87319 52.8291 8.56652H57.1291ZM52.7891 10.2065C52.8758 11.1732 53.1491 11.8799 53.6091 12.3265C54.0758 12.7732 54.6824 12.9965 55.4291 12.9965C55.8091 12.9965 56.1358 12.9532 56.4091 12.8665C56.6891 12.7732 56.9324 12.6732 57.1391 12.5665C57.3524 12.4532 57.5424 12.3532 57.7091 12.2665C57.8824 12.1732 58.0524 12.1265 58.2191 12.1265C58.4324 12.1265 58.5991 12.2065 58.7191 12.3665L59.5191 13.3665C59.2258 13.7065 58.9024 13.9899 58.5491 14.2165C58.1958 14.4365 57.8291 14.6132 57.4491 14.7465C57.0691 14.8732 56.6858 14.9599 56.2991 15.0065C55.9124 15.0599 55.5391 15.0865 55.1791 15.0865C54.4591 15.0865 53.7858 14.9699 53.1591 14.7365C52.5391 14.4965 51.9958 14.1465 51.5291 13.6865C51.0691 13.2199 50.7058 12.6432 50.4391 11.9565C50.1724 11.2699 50.0391 10.4732 50.0391 9.56652C50.0391 8.86652 50.1524 8.20652 50.3791 7.58652C50.6124 6.96652 50.9458 6.42652 51.3791 5.96652C51.8124 5.50652 52.3391 5.14319 52.9591 4.87652C53.5791 4.60319 54.2791 4.46652 55.0591 4.46652C55.7191 4.46652 56.3258 4.57319 56.8791 4.78652C57.4391 4.99319 57.9191 5.29652 58.3191 5.69652C58.7258 6.09652 59.0391 6.58986 59.2591 7.17652C59.4858 7.75652 59.5991 8.41986 59.5991 9.16652C59.5991 9.37319 59.5891 9.54319 59.5691 9.67652C59.5491 9.80986 59.5158 9.91652 59.4691 9.99652C59.4224 10.0765 59.3591 10.1332 59.2791 10.1665C59.1991 10.1932 59.0958 10.2065 58.9691 10.2065H52.7891ZM64.0918 0.0265229V14.9365H61.3318V0.0265229H64.0918ZM69.2299 4.62652V14.9365H66.4699V4.62652H69.2299ZM69.5599 1.69652C69.5599 1.92986 69.5132 2.14652 69.4199 2.34652C69.3265 2.54652 69.1999 2.72319 69.0399 2.87652C68.8865 3.02986 68.7032 3.14986 68.4899 3.23652C68.2832 3.32319 68.0599 3.36652 67.8199 3.36652C67.5932 3.36652 67.3765 3.32319 67.1699 3.23652C66.9699 3.14986 66.7932 3.02986 66.6399 2.87652C66.4865 2.72319 66.3632 2.54652 66.2699 2.34652C66.1832 2.14652 66.1399 1.92986 66.1399 1.69652C66.1399 1.46319 66.1832 1.24652 66.2699 1.04652C66.3632 0.839856 66.4865 0.659856 66.6399 0.506523C66.7932 0.353189 66.9699 0.233189 67.1699 0.146523C67.3765 0.0598558 67.5932 0.0165224 67.8199 0.0165224C68.0599 0.0165224 68.2832 0.0598558 68.4899 0.146523C68.7032 0.233189 68.8865 0.353189 69.0399 0.506523C69.1999 0.659856 69.3265 0.839856 69.4199 1.04652C69.5132 1.24652 69.5599 1.46319 69.5599 1.69652ZM83.6877 9.42652L82.1177 4.98652C82.0244 4.75319 81.9244 4.47986 81.8177 4.16652C81.7177 3.85319 81.621 3.51319 81.5277 3.14652C81.4344 3.51986 81.3344 3.86652 81.2277 4.18652C81.1277 4.49986 81.031 4.77319 80.9377 5.00652L79.3777 9.42652H83.6877ZM88.7277 14.9365H86.3977C86.1377 14.9365 85.9244 14.8765 85.7577 14.7565C85.5977 14.6299 85.4777 14.4699 85.3977 14.2765L84.4177 11.5065H78.6377L77.6577 14.2765C77.591 14.4432 77.4744 14.5965 77.3077 14.7365C77.141 14.8699 76.931 14.9365 76.6777 14.9365H74.3277L79.9977 0.426522H83.0677L88.7277 14.9365ZM92.4511 0.0265229V14.9365H89.6911V0.0265229H92.4511ZM94.7493 14.9365V4.62652H96.4493C96.7959 4.62652 97.0259 4.78652 97.1393 5.10652L97.2993 5.77652C97.4793 5.58986 97.6626 5.41652 97.8493 5.25652C98.0426 5.09652 98.2493 4.95986 98.4693 4.84652C98.6893 4.72652 98.9259 4.63319 99.1793 4.56652C99.4393 4.49986 99.7193 4.46652 100.019 4.46652C100.653 4.46652 101.176 4.63652 101.589 4.97652C102.003 5.30986 102.316 5.75652 102.529 6.31652C102.696 5.98986 102.899 5.70986 103.139 5.47652C103.386 5.23652 103.653 5.04319 103.939 4.89652C104.233 4.74986 104.539 4.64319 104.859 4.57652C105.186 4.50319 105.513 4.46652 105.839 4.46652C106.419 4.46652 106.933 4.55319 107.379 4.72652C107.826 4.89986 108.199 5.15652 108.499 5.49652C108.806 5.82986 109.039 6.23986 109.199 6.72652C109.359 7.21319 109.439 7.76652 109.439 8.38652V14.9365H106.679V8.38652C106.679 7.17986 106.163 6.57652 105.129 6.57652C104.896 6.57652 104.679 6.61652 104.479 6.69652C104.286 6.76986 104.113 6.88319 103.959 7.03652C103.813 7.18986 103.696 7.37986 103.609 7.60652C103.529 7.83319 103.489 8.09319 103.489 8.38652V14.9365H100.729V8.38652C100.729 7.73319 100.599 7.26986 100.339 6.99652C100.086 6.71652 99.7093 6.57652 99.2093 6.57652C98.8893 6.57652 98.5859 6.65319 98.2993 6.80652C98.0193 6.95319 97.7559 7.15986 97.5093 7.42652V14.9365H94.7493ZM118.164 8.56652C118.164 8.27986 118.124 8.00652 118.044 7.74652C117.971 7.48652 117.851 7.25652 117.684 7.05652C117.518 6.85652 117.308 6.69986 117.054 6.58652C116.801 6.46652 116.498 6.40652 116.144 6.40652C115.484 6.40652 114.968 6.59319 114.594 6.96652C114.221 7.33986 113.978 7.87319 113.864 8.56652H118.164ZM113.824 10.2065C113.911 11.1732 114.184 11.8799 114.644 12.3265C115.111 12.7732 115.718 12.9965 116.464 12.9965C116.844 12.9965 117.171 12.9532 117.444 12.8665C117.724 12.7732 117.968 12.6732 118.174 12.5665C118.388 12.4532 118.578 12.3532 118.744 12.2665C118.918 12.1732 119.088 12.1265 119.254 12.1265C119.468 12.1265 119.634 12.2065 119.754 12.3665L120.554 13.3665C120.261 13.7065 119.938 13.9899 119.584 14.2165C119.231 14.4365 118.864 14.6132 118.484 14.7465C118.104 14.8732 117.721 14.9599 117.334 15.0065C116.948 15.0599 116.574 15.0865 116.214 15.0865C115.494 15.0865 114.821 14.9699 114.194 14.7365C113.574 14.4965 113.031 14.1465 112.564 13.6865C112.104 13.2199 111.741 12.6432 111.474 11.9565C111.208 11.2699 111.074 10.4732 111.074 9.56652C111.074 8.86652 111.188 8.20652 111.414 7.58652C111.648 6.96652 111.981 6.42652 112.414 5.96652C112.848 5.50652 113.374 5.14319 113.994 4.87652C114.614 4.60319 115.314 4.46652 116.094 4.46652C116.754 4.46652 117.361 4.57319 117.914 4.78652C118.474 4.99319 118.954 5.29652 119.354 5.69652C119.761 6.09652 120.074 6.58986 120.294 7.17652C120.521 7.75652 120.634 8.41986 120.634 9.16652C120.634 9.37319 120.624 9.54319 120.604 9.67652C120.584 9.80986 120.551 9.91652 120.504 9.99652C120.458 10.0765 120.394 10.1332 120.314 10.1665C120.234 10.1932 120.131 10.2065 120.004 10.2065H113.824ZM125.187 4.62652V14.9365H122.427V4.62652H125.187ZM125.517 1.69652C125.517 1.92986 125.47 2.14652 125.377 2.34652C125.284 2.54652 125.157 2.72319 124.997 2.87652C124.844 3.02986 124.66 3.14986 124.447 3.23652C124.24 3.32319 124.017 3.36652 123.777 3.36652C123.55 3.36652 123.334 3.32319 123.127 3.23652C122.927 3.14986 122.75 3.02986 122.597 2.87652C122.444 2.72319 122.32 2.54652 122.227 2.34652C122.14 2.14652 122.097 1.92986 122.097 1.69652C122.097 1.46319 122.14 1.24652 122.227 1.04652C122.32 0.839856 122.444 0.659856 122.597 0.506523C122.75 0.353189 122.927 0.233189 123.127 0.146523C123.334 0.0598558 123.55 0.0165224 123.777 0.0165224C124.017 0.0165224 124.24 0.0598558 124.447 0.146523C124.66 0.233189 124.844 0.353189 124.997 0.506523C125.157 0.659856 125.284 0.839856 125.377 1.04652C125.47 1.24652 125.517 1.46319 125.517 1.69652ZM133.912 7.30652C133.652 7.00652 133.369 6.79652 133.062 6.67652C132.762 6.55652 132.442 6.49652 132.102 6.49652C131.769 6.49652 131.466 6.55986 131.192 6.68652C130.919 6.81319 130.682 7.01319 130.482 7.28652C130.289 7.55319 130.139 7.89652 130.032 8.31652C129.926 8.73652 129.872 9.23652 129.872 9.81652C129.872 10.3899 129.916 10.8765 130.002 11.2765C130.089 11.6765 130.212 11.9999 130.372 12.2465C130.539 12.4932 130.739 12.6732 130.972 12.7865C131.206 12.8932 131.466 12.9465 131.752 12.9465C132.239 12.9465 132.646 12.8499 132.972 12.6565C133.306 12.4632 133.619 12.1899 133.912 11.8365V7.30652ZM136.672 0.0265229V14.9365H134.972C134.619 14.9365 134.392 14.7765 134.292 14.4565L134.062 13.5565C133.856 13.7832 133.636 13.9899 133.402 14.1765C133.176 14.3632 132.929 14.5265 132.662 14.6665C132.396 14.7999 132.109 14.9032 131.802 14.9765C131.496 15.0499 131.162 15.0865 130.802 15.0865C130.249 15.0865 129.742 14.9699 129.282 14.7365C128.822 14.5032 128.422 14.1632 128.082 13.7165C127.749 13.2632 127.489 12.7099 127.302 12.0565C127.116 11.4032 127.022 10.6565 127.022 9.81652C127.022 9.04986 127.126 8.33652 127.332 7.67652C127.546 7.01652 127.846 6.44652 128.232 5.96652C128.619 5.48652 129.086 5.10986 129.632 4.83652C130.179 4.56319 130.786 4.42652 131.452 4.42652C132.012 4.42652 132.482 4.50986 132.862 4.67652C133.249 4.84319 133.599 5.06986 133.912 5.35652V0.0265229H136.672ZM144.358 10.6265C143.685 10.6599 143.125 10.7199 142.678 10.8065C142.231 10.8865 141.875 10.9932 141.608 11.1265C141.348 11.2599 141.161 11.4132 141.048 11.5865C140.941 11.7532 140.888 11.9365 140.888 12.1365C140.888 12.5365 140.998 12.8199 141.218 12.9865C141.445 13.1532 141.758 13.2365 142.158 13.2365C142.618 13.2365 143.015 13.1565 143.348 12.9965C143.688 12.8299 144.025 12.5732 144.358 12.2265V10.6265ZM138.738 6.05652C139.345 5.50986 140.015 5.10319 140.748 4.83652C141.481 4.56319 142.275 4.42652 143.128 4.42652C143.741 4.42652 144.288 4.52652 144.768 4.72652C145.255 4.92652 145.665 5.20652 145.998 5.56652C146.338 5.91986 146.598 6.34319 146.778 6.83652C146.958 7.32986 147.048 7.86986 147.048 8.45652V14.9365H145.788C145.528 14.9365 145.328 14.8999 145.188 14.8265C145.055 14.7532 144.945 14.5999 144.858 14.3665L144.638 13.7065C144.378 13.9332 144.125 14.1332 143.878 14.3065C143.638 14.4799 143.388 14.6265 143.128 14.7465C142.868 14.8599 142.588 14.9465 142.288 15.0065C141.995 15.0665 141.665 15.0965 141.298 15.0965C140.845 15.0965 140.431 15.0365 140.058 14.9165C139.685 14.7965 139.361 14.6199 139.088 14.3865C138.821 14.1465 138.615 13.8499 138.468 13.4965C138.321 13.1432 138.248 12.7365 138.248 12.2765C138.248 11.8965 138.345 11.5165 138.538 11.1365C138.731 10.7565 139.061 10.4132 139.528 10.1065C140.001 9.79319 140.628 9.53652 141.408 9.33652C142.195 9.12986 143.178 9.01319 144.358 8.98652V8.45652C144.358 7.80986 144.221 7.33652 143.948 7.03652C143.675 6.72986 143.281 6.57652 142.768 6.57652C142.388 6.57652 142.071 6.62319 141.818 6.71652C141.565 6.80319 141.341 6.89986 141.148 7.00652C140.961 7.10652 140.785 7.20319 140.618 7.29652C140.451 7.38319 140.258 7.42652 140.038 7.42652C139.845 7.42652 139.681 7.37986 139.548 7.28652C139.421 7.18652 139.315 7.06986 139.228 6.93652L138.738 6.05652ZM5.04316 20.9545L8.45916 29.7605C8.59916 30.1152 8.75783 30.3532 8.93516 30.4745C9.1125 30.5865 9.27583 30.6472 9.42516 30.6565V30.9365C9.2385 30.9179 9.00983 30.9085 8.73916 30.9085C8.4685 30.8992 8.19783 30.8945 7.92716 30.8945C7.56316 30.8945 7.2225 30.8992 6.90516 30.9085C6.58783 30.9085 6.33116 30.9179 6.13516 30.9365V30.6565C6.61116 30.6379 6.9145 30.5585 7.04516 30.4185C7.17583 30.2692 7.14783 29.9565 6.96116 29.4805L4.35716 22.5225L4.58116 22.3405L2.14516 28.6685C1.99583 29.0419 1.90716 29.3592 1.87916 29.6205C1.85116 29.8725 1.8745 30.0732 1.94916 30.2225C2.03316 30.3719 2.1685 30.4792 2.35516 30.5445C2.55116 30.6099 2.79383 30.6472 3.08316 30.6565V30.9365C2.82183 30.9179 2.5465 30.9085 2.25716 30.9085C1.97716 30.8992 1.71583 30.8945 1.47316 30.8945C1.23983 30.8945 1.03916 30.8992 0.871164 30.9085C0.712497 30.9085 0.563164 30.9179 0.423164 30.9365V30.6565C0.609831 30.6099 0.801164 30.5025 0.997164 30.3345C1.19316 30.1572 1.3705 29.8585 1.52916 29.4385L4.81916 20.9545C4.8565 20.9545 4.89383 20.9545 4.93116 20.9545C4.9685 20.9545 5.00583 20.9545 5.04316 20.9545ZM6.75116 26.9045V27.1845H2.57916L2.71916 26.9045H6.75116ZM14.7715 19.9605V29.6345C14.7715 30.0265 14.8509 30.2925 15.0095 30.4325C15.1775 30.5725 15.4529 30.6425 15.8355 30.6425V30.9365C15.6769 30.9272 15.4342 30.9179 15.1075 30.9085C14.7902 30.8899 14.4682 30.8805 14.1415 30.8805C13.8242 30.8805 13.5022 30.8899 13.1755 30.9085C12.8489 30.9179 12.6062 30.9272 12.4475 30.9365V30.6425C12.8302 30.6425 13.1009 30.5725 13.2595 30.4325C13.4275 30.2925 13.5115 30.0265 13.5115 29.6345V21.6405C13.5115 21.2205 13.4369 20.9125 13.2875 20.7165C13.1382 20.5112 12.8582 20.4085 12.4475 20.4085V20.1145C12.7462 20.1425 13.0355 20.1565 13.3155 20.1565C13.5862 20.1565 13.8429 20.1425 14.0855 20.1145C14.3375 20.0772 14.5662 20.0259 14.7715 19.9605ZM20.9474 20.2265C21.19 20.2265 21.4 20.3152 21.5774 20.4925C21.7547 20.6699 21.8434 20.8799 21.8434 21.1225C21.8434 21.3652 21.7547 21.5752 21.5774 21.7525C21.4 21.9299 21.19 22.0185 20.9474 22.0185C20.7047 22.0185 20.4947 21.9299 20.3174 21.7525C20.14 21.5752 20.0514 21.3652 20.0514 21.1225C20.0514 20.8799 20.14 20.6699 20.3174 20.4925C20.4947 20.3152 20.7047 20.2265 20.9474 20.2265ZM21.6754 23.5725V29.6345C21.6754 30.0265 21.7547 30.2925 21.9134 30.4325C22.0814 30.5725 22.3567 30.6425 22.7394 30.6425V30.9365C22.5807 30.9272 22.338 30.9179 22.0114 30.9085C21.694 30.8899 21.372 30.8805 21.0454 30.8805C20.728 30.8805 20.406 30.8899 20.0794 30.9085C19.7527 30.9179 19.51 30.9272 19.3514 30.9365V30.6425C19.734 30.6425 20.0047 30.5725 20.1634 30.4325C20.3314 30.2925 20.4154 30.0265 20.4154 29.6345V25.2525C20.4154 24.8325 20.3407 24.5245 20.1914 24.3285C20.042 24.1232 19.762 24.0205 19.3514 24.0205V23.7265C19.65 23.7545 19.9394 23.7685 20.2194 23.7685C20.49 23.7685 20.7467 23.7545 20.9894 23.7265C21.2414 23.6892 21.47 23.6379 21.6754 23.5725ZM28.2409 31.0345C27.8583 31.0345 27.5269 30.9645 27.2469 30.8245C26.9669 30.6752 26.7523 30.4699 26.6029 30.2085C26.4629 29.9472 26.3929 29.6439 26.3929 29.2985C26.3929 28.8879 26.4863 28.5519 26.6729 28.2905C26.8689 28.0292 27.1163 27.8192 27.4149 27.6605C27.7136 27.5019 28.0263 27.3712 28.3529 27.2685C28.6889 27.1565 29.0063 27.0539 29.3049 26.9605C29.6036 26.8579 29.8463 26.7412 30.0329 26.6105C30.2289 26.4799 30.3269 26.3072 30.3269 26.0925V25.2245C30.3269 24.8325 30.2663 24.5339 30.1449 24.3285C30.0329 24.1232 29.8789 23.9879 29.6829 23.9225C29.4869 23.8479 29.2676 23.8105 29.0249 23.8105C28.7916 23.8105 28.5396 23.8432 28.2689 23.9085C28.0076 23.9739 27.7976 24.1092 27.6389 24.3145C27.8163 24.3519 27.9703 24.4452 28.1009 24.5945C28.2316 24.7439 28.2969 24.9352 28.2969 25.1685C28.2969 25.4019 28.2223 25.5885 28.0729 25.7285C27.9236 25.8592 27.7323 25.9245 27.4989 25.9245C27.2283 25.9245 27.0276 25.8405 26.8969 25.6725C26.7756 25.4952 26.7149 25.2992 26.7149 25.0845C26.7149 24.8419 26.7756 24.6459 26.8969 24.4965C27.0183 24.3472 27.1723 24.2072 27.3589 24.0765C27.5736 23.9272 27.8489 23.8012 28.1849 23.6985C28.5303 23.5865 28.9176 23.5305 29.3469 23.5305C29.7296 23.5305 30.0563 23.5772 30.3269 23.6705C30.5976 23.7545 30.8216 23.8805 30.9989 24.0485C31.2416 24.2725 31.4003 24.5479 31.4749 24.8745C31.5496 25.1919 31.5869 25.5745 31.5869 26.0225V29.9145C31.5869 30.1479 31.6196 30.3159 31.6849 30.4185C31.7596 30.5212 31.8716 30.5725 32.0209 30.5725C32.1236 30.5725 32.2216 30.5492 32.3149 30.5025C32.4083 30.4559 32.5203 30.3812 32.6509 30.2785L32.8049 30.5165C32.6089 30.6659 32.4223 30.7919 32.2449 30.8945C32.0676 30.9879 31.8296 31.0345 31.5309 31.0345C31.2603 31.0345 31.0363 30.9879 30.8589 30.8945C30.6816 30.8012 30.5463 30.6659 30.4529 30.4885C30.3689 30.3019 30.3269 30.0685 30.3269 29.7885C30.0749 30.2085 29.7716 30.5212 29.4169 30.7265C29.0716 30.9319 28.6796 31.0345 28.2409 31.0345ZM28.7449 30.4745C29.0529 30.4745 29.3376 30.3859 29.5989 30.2085C29.8696 30.0312 30.1123 29.7652 30.3269 29.4105V26.6665C30.2149 26.8252 30.0516 26.9605 29.8369 27.0725C29.6223 27.1752 29.3889 27.2825 29.1369 27.3945C28.8849 27.4972 28.6423 27.6232 28.4089 27.7725C28.1849 27.9125 27.9983 28.0992 27.8489 28.3325C27.6996 28.5659 27.6249 28.8692 27.6249 29.2425C27.6249 29.6159 27.7229 29.9145 27.9189 30.1385C28.1243 30.3625 28.3996 30.4745 28.7449 30.4745ZM40.7296 23.5305C41.0843 23.5305 41.3783 23.5772 41.6116 23.6705C41.8543 23.7639 42.0549 23.8945 42.2136 24.0625C42.3909 24.2492 42.5169 24.4825 42.5916 24.7625C42.6663 25.0425 42.7036 25.4205 42.7036 25.8965V29.6345C42.7036 30.0265 42.7829 30.2925 42.9416 30.4325C43.1096 30.5725 43.3849 30.6425 43.7676 30.6425V30.9365C43.6089 30.9272 43.3663 30.9179 43.0396 30.9085C42.7129 30.8899 42.3956 30.8805 42.0876 30.8805C41.7796 30.8805 41.4763 30.8899 41.1776 30.9085C40.8883 30.9179 40.6689 30.9272 40.5196 30.9365V30.6425C40.8556 30.6425 41.0936 30.5725 41.2336 30.4325C41.3736 30.2925 41.4436 30.0265 41.4436 29.6345V25.5885C41.4436 25.2992 41.4203 25.0332 41.3736 24.7905C41.3269 24.5479 41.2196 24.3519 41.0516 24.2025C40.8929 24.0532 40.6456 23.9785 40.3096 23.9785C39.9176 23.9785 39.5723 24.0905 39.2736 24.3145C38.9843 24.5385 38.7556 24.8465 38.5876 25.2385C38.4289 25.6212 38.3496 26.0505 38.3496 26.5265V29.6345C38.3496 30.0265 38.4196 30.2925 38.5596 30.4325C38.6996 30.5725 38.9376 30.6425 39.2736 30.6425V30.9365C39.1243 30.9272 38.9003 30.9179 38.6016 30.9085C38.3123 30.8899 38.0136 30.8805 37.7056 30.8805C37.3976 30.8805 37.0803 30.8899 36.7536 30.9085C36.4269 30.9179 36.1843 30.9272 36.0256 30.9365V30.6425C36.4083 30.6425 36.6789 30.5725 36.8376 30.4325C37.0056 30.2925 37.0896 30.0265 37.0896 29.6345V25.2525C37.0896 24.8325 37.0149 24.5245 36.8656 24.3285C36.7163 24.1232 36.4363 24.0205 36.0256 24.0205V23.7265C36.3243 23.7545 36.6136 23.7685 36.8936 23.7685C37.1643 23.7685 37.4209 23.7545 37.6636 23.7265C37.9156 23.6892 38.1443 23.6379 38.3496 23.5725V25.2245C38.5923 24.5899 38.9283 24.1512 39.3576 23.9085C39.7963 23.6565 40.2536 23.5305 40.7296 23.5305ZM50.6791 23.5305C50.9778 23.5305 51.2671 23.5679 51.5471 23.6425C51.8271 23.7172 52.0791 23.8292 52.3031 23.9785C52.5178 24.1185 52.6811 24.2819 52.7931 24.4685C52.9051 24.6459 52.9611 24.8419 52.9611 25.0565C52.9611 25.3085 52.8911 25.5045 52.7511 25.6445C52.6111 25.7752 52.4338 25.8405 52.2191 25.8405C52.0138 25.8405 51.8318 25.7799 51.6731 25.6585C51.5238 25.5372 51.4491 25.3645 51.4491 25.1405C51.4491 24.9259 51.5051 24.7532 51.6171 24.6225C51.7385 24.4919 51.8785 24.4079 52.0371 24.3705C51.9438 24.2025 51.7758 24.0625 51.5331 23.9505C51.2998 23.8385 51.0478 23.7825 50.7771 23.7825C50.5438 23.7825 50.3105 23.8385 50.0771 23.9505C49.8438 24.0625 49.6291 24.2492 49.4331 24.5105C49.2371 24.7625 49.0785 25.1125 48.9571 25.5605C48.8358 25.9992 48.7751 26.5499 48.7751 27.2125C48.7751 28.0339 48.8685 28.6872 49.0551 29.1725C49.2418 29.6579 49.4845 30.0079 49.7831 30.2225C50.0911 30.4279 50.4271 30.5305 50.7911 30.5305C51.0338 30.5305 51.2811 30.4839 51.5331 30.3905C51.7851 30.2972 52.0231 30.1479 52.2471 29.9425C52.4711 29.7279 52.6625 29.4432 52.8211 29.0885L53.0871 29.1865C52.9938 29.4852 52.8398 29.7885 52.6251 30.0965C52.4105 30.3952 52.1305 30.6425 51.7851 30.8385C51.4398 31.0345 51.0151 31.1325 50.5111 31.1325C49.9325 31.1325 49.4098 30.9832 48.9431 30.6845C48.4765 30.3859 48.1031 29.9612 47.8231 29.4105C47.5525 28.8505 47.4171 28.1879 47.4171 27.4225C47.4171 26.6572 47.5525 25.9852 47.8231 25.4065C48.1031 24.8185 48.4905 24.3612 48.9851 24.0345C49.4798 23.6985 50.0445 23.5305 50.6791 23.5305ZM50.4831 30.8525L50.1191 31.9445C50.2405 31.9165 50.3711 31.8932 50.5111 31.8745C50.6511 31.8559 50.7958 31.8465 50.9451 31.8465C51.2065 31.8465 51.4118 31.9025 51.5611 32.0145C51.7198 32.1265 51.7991 32.2899 51.7991 32.5045C51.7991 32.7659 51.7105 32.9712 51.5331 33.1205C51.3651 33.2792 51.1598 33.3912 50.9171 33.4565C50.6745 33.5312 50.4411 33.5685 50.2171 33.5685C49.9558 33.5685 49.7271 33.5499 49.5311 33.5125C49.3445 33.4845 49.1858 33.4519 49.0551 33.4145L49.1111 33.1625C49.1578 33.1719 49.2278 33.1812 49.3211 33.1905C49.4238 33.1999 49.5311 33.2045 49.6431 33.2045C49.8298 33.2045 50.0165 33.1859 50.2031 33.1485C50.3991 33.1112 50.5625 33.0459 50.6931 32.9525C50.8331 32.8685 50.9031 32.7425 50.9031 32.5745C50.9031 32.3132 50.7071 32.1825 50.3151 32.1825C50.2405 32.1825 50.1331 32.1872 49.9931 32.1965C49.8531 32.2152 49.7318 32.2432 49.6291 32.2805L50.1051 30.8525H50.4831ZM58.7757 31.0345C58.393 31.0345 58.0617 30.9645 57.7817 30.8245C57.5017 30.6752 57.287 30.4699 57.1377 30.2085C56.9977 29.9472 56.9277 29.6439 56.9277 29.2985C56.9277 28.8879 57.021 28.5519 57.2077 28.2905C57.4037 28.0292 57.651 27.8192 57.9497 27.6605C58.2484 27.5019 58.561 27.3712 58.8877 27.2685C59.2237 27.1565 59.541 27.0539 59.8397 26.9605C60.1384 26.8579 60.381 26.7412 60.5677 26.6105C60.7637 26.4799 60.8617 26.3072 60.8617 26.0925V25.2245C60.8617 24.8325 60.801 24.5339 60.6797 24.3285C60.5677 24.1232 60.4137 23.9879 60.2177 23.9225C60.0217 23.8479 59.8024 23.8105 59.5597 23.8105C59.3264 23.8105 59.0744 23.8432 58.8037 23.9085C58.5424 23.9739 58.3324 24.1092 58.1737 24.3145C58.351 24.3519 58.505 24.4452 58.6357 24.5945C58.7664 24.7439 58.8317 24.9352 58.8317 25.1685C58.8317 25.4019 58.757 25.5885 58.6077 25.7285C58.4584 25.8592 58.267 25.9245 58.0337 25.9245C57.763 25.9245 57.5624 25.8405 57.4317 25.6725C57.3104 25.4952 57.2497 25.2992 57.2497 25.0845C57.2497 24.8419 57.3104 24.6459 57.4317 24.4965C57.553 24.3472 57.707 24.2072 57.8937 24.0765C58.1084 23.9272 58.3837 23.8012 58.7197 23.6985C59.065 23.5865 59.4524 23.5305 59.8817 23.5305C60.2644 23.5305 60.591 23.5772 60.8617 23.6705C61.1324 23.7545 61.3564 23.8805 61.5337 24.0485C61.7764 24.2725 61.935 24.5479 62.0097 24.8745C62.0844 25.1919 62.1217 25.5745 62.1217 26.0225V29.9145C62.1217 30.1479 62.1544 30.3159 62.2197 30.4185C62.2944 30.5212 62.4064 30.5725 62.5557 30.5725C62.6584 30.5725 62.7564 30.5492 62.8497 30.5025C62.943 30.4559 63.055 30.3812 63.1857 30.2785L63.3397 30.5165C63.1437 30.6659 62.957 30.7919 62.7797 30.8945C62.6024 30.9879 62.3644 31.0345 62.0657 31.0345C61.795 31.0345 61.571 30.9879 61.3937 30.8945C61.2164 30.8012 61.081 30.6659 60.9877 30.4885C60.9037 30.3019 60.8617 30.0685 60.8617 29.7885C60.6097 30.2085 60.3064 30.5212 59.9517 30.7265C59.6064 30.9319 59.2144 31.0345 58.7757 31.0345ZM59.2797 30.4745C59.5877 30.4745 59.8724 30.3859 60.1337 30.2085C60.4044 30.0312 60.647 29.7652 60.8617 29.4105V26.6665C60.7497 26.8252 60.5864 26.9605 60.3717 27.0725C60.157 27.1752 59.9237 27.2825 59.6717 27.3945C59.4197 27.4972 59.177 27.6232 58.9437 27.7725C58.7197 27.9125 58.533 28.0992 58.3837 28.3325C58.2344 28.5659 58.1597 28.8692 58.1597 29.2425C58.1597 29.6159 58.2577 29.9145 58.4537 30.1385C58.659 30.3625 58.9344 30.4745 59.2797 30.4745ZM76.5746 21.1085C76.9293 21.1085 77.2233 21.1505 77.4566 21.2345C77.69 21.3092 77.8813 21.4072 78.0306 21.5285C78.152 21.6219 78.25 21.7245 78.3246 21.8365C78.3993 21.9485 78.4553 22.0605 78.4926 22.1725C78.53 22.2845 78.5486 22.3919 78.5486 22.4945C78.5486 22.7279 78.4646 22.9099 78.2966 23.0405C78.138 23.1712 77.9606 23.2365 77.7646 23.2365C77.578 23.2365 77.41 23.1759 77.2606 23.0545C77.1113 22.9332 77.0366 22.7605 77.0366 22.5365C77.0366 22.3312 77.1066 22.1585 77.2466 22.0185C77.3866 21.8692 77.564 21.7852 77.7786 21.7665C77.7413 21.6452 77.6246 21.5425 77.4286 21.4585C77.242 21.3652 77.004 21.3185 76.7146 21.3185C76.2386 21.3185 75.8466 21.4632 75.5386 21.7525C75.24 22.0325 75.0906 22.4432 75.0906 22.9845C75.0906 23.2459 75.1373 23.5119 75.2306 23.7825C75.3333 24.0532 75.5246 24.3192 75.8046 24.5805C75.9633 24.5525 76.1266 24.5339 76.2946 24.5245C76.4626 24.5059 76.5886 24.4965 76.6726 24.4965C76.8406 24.4965 76.976 24.5245 77.0786 24.5805C77.1813 24.6365 77.2326 24.7159 77.2326 24.8185C77.2326 24.9025 77.1953 24.9679 77.1206 25.0145C77.0553 25.0612 76.962 25.0845 76.8406 25.0845C76.6633 25.0845 76.4766 25.0472 76.2806 24.9725C76.0846 24.8885 75.9306 24.8232 75.8186 24.7765C75.2773 24.9352 74.8386 25.1965 74.5026 25.5605C74.1666 25.9152 73.9986 26.4192 73.9986 27.0725C73.9986 27.7165 74.1666 28.2625 74.5026 28.7105C74.8386 29.1585 75.2866 29.5039 75.8466 29.7465C76.416 29.9799 77.0506 30.0965 77.7506 30.0965C78.2453 30.0965 78.712 30.0405 79.1506 29.9285C79.5986 29.8072 79.9906 29.6345 80.3266 29.4105C80.672 29.1865 80.9426 28.9205 81.1386 28.6125C81.3346 28.2952 81.4326 27.9359 81.4326 27.5345C81.4326 27.3572 81.3953 27.1332 81.3206 26.8625C81.246 26.5825 81.092 26.3119 80.8586 26.0505C80.6253 25.7799 80.266 25.5699 79.7806 25.4205L79.9486 25.2805C80.63 25.4859 81.1153 25.8172 81.4046 26.2745C81.694 26.7225 81.8386 27.2265 81.8386 27.7865C81.8386 28.3465 81.6706 28.8832 81.3346 29.3965C80.9986 29.9099 80.5133 30.3299 79.8786 30.6565C79.244 30.9739 78.474 31.1325 77.5686 31.1325C76.962 31.1325 76.3833 31.0532 75.8326 30.8945C75.2913 30.7359 74.8106 30.5072 74.3906 30.2085C73.9706 29.9005 73.6393 29.5319 73.3966 29.1025C73.154 28.6732 73.0326 28.1879 73.0326 27.6465C73.0326 27.1425 73.1306 26.7132 73.3266 26.3585C73.5226 25.9945 73.7653 25.6959 74.0546 25.4625C74.344 25.2292 74.6333 25.0519 74.9226 24.9305C75.212 24.7999 75.4453 24.7112 75.6226 24.6645C75.3146 24.5245 75.0533 24.3612 74.8386 24.1745C74.6333 23.9785 74.4746 23.7685 74.3626 23.5445C74.26 23.3112 74.2086 23.0825 74.2086 22.8585C74.2086 22.6345 74.26 22.4199 74.3626 22.2145C74.4653 21.9999 74.6146 21.8085 74.8106 21.6405C75.0066 21.4725 75.2493 21.3419 75.5386 21.2485C75.8373 21.1552 76.1826 21.1085 76.5746 21.1085ZM81.6706 20.8285C82.2493 20.8285 82.7346 20.9965 83.1266 21.3325C83.5186 21.6592 83.7146 22.1212 83.7146 22.7185C83.7146 23.0359 83.654 23.3205 83.5326 23.5725C83.4206 23.8152 83.262 24.0299 83.0566 24.2165C82.8606 24.4032 82.6366 24.5572 82.3846 24.6785C82.17 24.7812 81.8853 24.8932 81.5306 25.0145C81.1853 25.1359 80.812 25.2572 80.4106 25.3785C80.0186 25.4999 79.6406 25.6212 79.2766 25.7425C78.922 25.8545 78.6326 25.9525 78.4086 26.0365C78.0633 26.1672 77.7693 26.3305 77.5266 26.5265C77.2933 26.7132 77.1766 26.9559 77.1766 27.2545C77.1766 27.4972 77.2466 27.7025 77.3866 27.8705C77.5266 28.0385 77.6946 28.1645 77.8906 28.2485C78.096 28.3325 78.2873 28.3745 78.4646 28.3745C78.5486 28.3745 78.6513 28.3652 78.7726 28.3465C78.9033 28.3185 79.02 28.2812 79.1226 28.2345C79.2253 28.1879 79.286 28.1319 79.3046 28.0665C79.1553 28.0385 79.006 27.9732 78.8566 27.8705C78.7166 27.7585 78.6466 27.5859 78.6466 27.3525C78.6466 27.1285 78.7213 26.9512 78.8706 26.8205C79.02 26.6899 79.202 26.6245 79.4166 26.6245C79.6406 26.6245 79.818 26.6945 79.9486 26.8345C80.0886 26.9745 80.1586 27.1565 80.1586 27.3805C80.1586 27.6419 80.07 27.8659 79.8926 28.0525C79.7246 28.2299 79.51 28.3652 79.2486 28.4585C78.9966 28.5425 78.7446 28.5845 78.4926 28.5845C78.2313 28.5845 77.9653 28.5285 77.6946 28.4165C77.424 28.3045 77.2 28.1319 77.0226 27.8985C76.8453 27.6559 76.7566 27.3385 76.7566 26.9465C76.7566 26.6199 76.8266 26.3305 76.9666 26.0785C77.116 25.8265 77.3353 25.6025 77.6246 25.4065C77.914 25.2105 78.2686 25.0425 78.6886 24.9025C78.9686 24.8092 79.3093 24.7065 79.7106 24.5945C80.112 24.4825 80.5226 24.3612 80.9426 24.2305C81.372 24.0999 81.7593 23.9552 82.1046 23.7965C82.5713 23.5819 82.8886 23.3625 83.0566 23.1385C83.2246 22.9145 83.3086 22.6859 83.3086 22.4525C83.3086 22.1819 83.234 21.9439 83.0846 21.7385C82.9353 21.5239 82.7346 21.3559 82.4826 21.2345C82.24 21.1039 81.974 21.0385 81.6846 21.0385C81.5726 21.0385 81.4793 21.0479 81.4046 21.0665C81.33 21.0852 81.2833 21.1179 81.2646 21.1645C81.3953 21.2299 81.4933 21.3232 81.5586 21.4445C81.624 21.5659 81.6566 21.6872 81.6566 21.8085C81.6566 22.0045 81.5773 22.1679 81.4186 22.2985C81.2693 22.4292 81.0873 22.4945 80.8726 22.4945C80.6953 22.4945 80.5273 22.4385 80.3686 22.3265C80.21 22.2052 80.1306 22.0279 80.1306 21.7945C80.1306 21.5519 80.21 21.3605 80.3686 21.2205C80.5366 21.0805 80.7373 20.9825 80.9706 20.9265C81.2133 20.8612 81.4466 20.8285 81.6706 20.8285ZM100.654 21.0245C100.616 21.3792 100.588 21.7245 100.57 22.0605C100.56 22.3872 100.556 22.6392 100.556 22.8165C100.556 23.0405 100.56 23.2505 100.57 23.4465C100.579 23.6425 100.588 23.8152 100.598 23.9645H100.276C100.21 23.3112 100.122 22.7979 100.01 22.4245C99.8978 22.0419 99.7018 21.7665 99.4218 21.5985C99.1418 21.4305 98.7078 21.3465 98.1198 21.3465H97.2378C96.9204 21.3465 96.6778 21.3745 96.5098 21.4305C96.3511 21.4772 96.2438 21.5845 96.1878 21.7525C96.1318 21.9112 96.1038 22.1632 96.1038 22.5085V29.4525C96.1038 29.7885 96.1364 30.0405 96.2018 30.2085C96.2764 30.3765 96.4164 30.4885 96.6218 30.5445C96.8271 30.6005 97.1258 30.6379 97.5178 30.6565V30.9365C97.2751 30.9179 96.9671 30.9085 96.5938 30.9085C96.2204 30.8992 95.8424 30.8945 95.4598 30.8945C95.0958 30.8945 94.7551 30.8992 94.4378 30.9085C94.1204 30.9085 93.8638 30.9179 93.6678 30.9365V30.6565C93.9851 30.6379 94.2231 30.6005 94.3818 30.5445C94.5498 30.4885 94.6618 30.3765 94.7178 30.2085C94.7738 30.0405 94.8018 29.7885 94.8018 29.4525V22.5085C94.8018 22.1632 94.7738 21.9112 94.7178 21.7525C94.6618 21.5845 94.5498 21.4725 94.3818 21.4165C94.2231 21.3512 93.9851 21.3139 93.6678 21.3045V21.0245C94.0131 21.0339 94.3771 21.0432 94.7598 21.0525C95.1424 21.0525 95.5204 21.0572 95.8938 21.0665C96.2671 21.0665 96.6124 21.0665 96.9298 21.0665C97.2564 21.0665 97.5224 21.0665 97.7278 21.0665C98.1571 21.0665 98.6424 21.0665 99.1838 21.0665C99.7344 21.0572 100.224 21.0432 100.654 21.0245ZM98.4838 25.9525C98.4838 25.9525 98.4838 25.9992 98.4838 26.0925C98.4838 26.1859 98.4838 26.2325 98.4838 26.2325H95.6838C95.6838 26.2325 95.6838 26.1859 95.6838 26.0925C95.6838 25.9992 95.6838 25.9525 95.6838 25.9525H98.4838ZM98.7498 24.1045C98.7124 24.6365 98.6938 25.0425 98.6938 25.3225C98.7031 25.6025 98.7078 25.8592 98.7078 26.0925C98.7078 26.3259 98.7124 26.5825 98.7218 26.8625C98.7311 27.1425 98.7544 27.5485 98.7918 28.0805H98.4698C98.4324 27.7819 98.3858 27.4925 98.3298 27.2125C98.2831 26.9232 98.1711 26.6899 97.9938 26.5125C97.8258 26.3259 97.5364 26.2325 97.1258 26.2325V25.9525C97.4338 25.9525 97.6671 25.8919 97.8258 25.7705C97.9938 25.6399 98.1151 25.4765 98.1898 25.2805C98.2644 25.0845 98.3158 24.8839 98.3438 24.6785C98.3718 24.4639 98.3998 24.2725 98.4278 24.1045H98.7498ZM105.852 20.2265C106.095 20.2265 106.305 20.3152 106.482 20.4925C106.66 20.6699 106.748 20.8799 106.748 21.1225C106.748 21.3652 106.66 21.5752 106.482 21.7525C106.305 21.9299 106.095 22.0185 105.852 22.0185C105.61 22.0185 105.4 21.9299 105.222 21.7525C105.045 21.5752 104.956 21.3652 104.956 21.1225C104.956 20.8799 105.045 20.6699 105.222 20.4925C105.4 20.3152 105.61 20.2265 105.852 20.2265ZM106.58 23.5725V29.6345C106.58 30.0265 106.66 30.2925 106.818 30.4325C106.986 30.5725 107.262 30.6425 107.644 30.6425V30.9365C107.486 30.9272 107.243 30.9179 106.916 30.9085C106.599 30.8899 106.277 30.8805 105.95 30.8805C105.633 30.8805 105.311 30.8899 104.984 30.9085C104.658 30.9179 104.415 30.9272 104.256 30.9365V30.6425C104.639 30.6425 104.91 30.5725 105.068 30.4325C105.236 30.2925 105.32 30.0265 105.32 29.6345V25.2525C105.32 24.8325 105.246 24.5245 105.096 24.3285C104.947 24.1232 104.667 24.0205 104.256 24.0205V23.7265C104.555 23.7545 104.844 23.7685 105.124 23.7685C105.395 23.7685 105.652 23.7545 105.894 23.7265C106.146 23.6892 106.375 23.6379 106.58 23.5725ZM115.862 23.5305C116.217 23.5305 116.511 23.5772 116.744 23.6705C116.987 23.7639 117.187 23.8945 117.346 24.0625C117.523 24.2492 117.649 24.4825 117.724 24.7625C117.799 25.0425 117.836 25.4205 117.836 25.8965V29.6345C117.836 30.0265 117.915 30.2925 118.074 30.4325C118.242 30.5725 118.517 30.6425 118.9 30.6425V30.9365C118.741 30.9272 118.499 30.9179 118.172 30.9085C117.845 30.8899 117.528 30.8805 117.22 30.8805C116.912 30.8805 116.609 30.8899 116.31 30.9085C116.021 30.9179 115.801 30.9272 115.652 30.9365V30.6425C115.988 30.6425 116.226 30.5725 116.366 30.4325C116.506 30.2925 116.576 30.0265 116.576 29.6345V25.5885C116.576 25.2992 116.553 25.0332 116.506 24.7905C116.459 24.5479 116.352 24.3519 116.184 24.2025C116.025 24.0532 115.778 23.9785 115.442 23.9785C115.05 23.9785 114.705 24.0905 114.406 24.3145C114.117 24.5385 113.888 24.8465 113.72 25.2385C113.561 25.6212 113.482 26.0505 113.482 26.5265V29.6345C113.482 30.0265 113.552 30.2925 113.692 30.4325C113.832 30.5725 114.07 30.6425 114.406 30.6425V30.9365C114.257 30.9272 114.033 30.9179 113.734 30.9085C113.445 30.8899 113.146 30.8805 112.838 30.8805C112.53 30.8805 112.213 30.8899 111.886 30.9085C111.559 30.9179 111.317 30.9272 111.158 30.9365V30.6425C111.541 30.6425 111.811 30.5725 111.97 30.4325C112.138 30.2925 112.222 30.0265 112.222 29.6345V25.2525C112.222 24.8325 112.147 24.5245 111.998 24.3285C111.849 24.1232 111.569 24.0205 111.158 24.0205V23.7265C111.457 23.7545 111.746 23.7685 112.026 23.7685C112.297 23.7685 112.553 23.7545 112.796 23.7265C113.048 23.6892 113.277 23.6379 113.482 23.5725V25.2245C113.725 24.5899 114.061 24.1512 114.49 23.9085C114.929 23.6565 115.386 23.5305 115.862 23.5305ZM124.3 31.0345C123.917 31.0345 123.586 30.9645 123.306 30.8245C123.026 30.6752 122.811 30.4699 122.662 30.2085C122.522 29.9472 122.452 29.6439 122.452 29.2985C122.452 28.8879 122.545 28.5519 122.732 28.2905C122.928 28.0292 123.175 27.8192 123.474 27.6605C123.772 27.5019 124.085 27.3712 124.412 27.2685C124.748 27.1565 125.065 27.0539 125.364 26.9605C125.662 26.8579 125.905 26.7412 126.092 26.6105C126.288 26.4799 126.386 26.3072 126.386 26.0925V25.2245C126.386 24.8325 126.325 24.5339 126.204 24.3285C126.092 24.1232 125.938 23.9879 125.742 23.9225C125.546 23.8479 125.326 23.8105 125.084 23.8105C124.85 23.8105 124.598 23.8432 124.328 23.9085C124.066 23.9739 123.856 24.1092 123.698 24.3145C123.875 24.3519 124.029 24.4452 124.16 24.5945C124.29 24.7439 124.356 24.9352 124.356 25.1685C124.356 25.4019 124.281 25.5885 124.132 25.7285C123.982 25.8592 123.791 25.9245 123.558 25.9245C123.287 25.9245 123.086 25.8405 122.956 25.6725C122.834 25.4952 122.774 25.2992 122.774 25.0845C122.774 24.8419 122.834 24.6459 122.956 24.4965C123.077 24.3472 123.231 24.2072 123.418 24.0765C123.632 23.9272 123.908 23.8012 124.244 23.6985C124.589 23.5865 124.976 23.5305 125.406 23.5305C125.788 23.5305 126.115 23.5772 126.386 23.6705C126.656 23.7545 126.88 23.8805 127.058 24.0485C127.3 24.2725 127.459 24.5479 127.534 24.8745C127.608 25.1919 127.646 25.5745 127.646 26.0225V29.9145C127.646 30.1479 127.678 30.3159 127.744 30.4185C127.818 30.5212 127.93 30.5725 128.08 30.5725C128.182 30.5725 128.28 30.5492 128.374 30.5025C128.467 30.4559 128.579 30.3812 128.71 30.2785L128.864 30.5165C128.668 30.6659 128.481 30.7919 128.304 30.8945C128.126 30.9879 127.888 31.0345 127.59 31.0345C127.319 31.0345 127.095 30.9879 126.918 30.8945C126.74 30.8012 126.605 30.6659 126.512 30.4885C126.428 30.3019 126.386 30.0685 126.386 29.7885C126.134 30.2085 125.83 30.5212 125.476 30.7265C125.13 30.9319 124.738 31.0345 124.3 31.0345ZM124.804 30.4745C125.112 30.4745 125.396 30.3859 125.658 30.2085C125.928 30.0312 126.171 29.7652 126.386 29.4105V26.6665C126.274 26.8252 126.11 26.9605 125.896 27.0725C125.681 27.1752 125.448 27.2825 125.196 27.3945C124.944 27.4972 124.701 27.6232 124.468 27.7725C124.244 27.9125 124.057 28.0992 123.908 28.3325C123.758 28.5659 123.684 28.8692 123.684 29.2425C123.684 29.6159 123.782 29.9145 123.978 30.1385C124.183 30.3625 124.458 30.4745 124.804 30.4745ZM136.788 23.5305C137.143 23.5305 137.437 23.5772 137.67 23.6705C137.913 23.7639 138.114 23.8945 138.272 24.0625C138.45 24.2492 138.576 24.4825 138.65 24.7625C138.725 25.0425 138.762 25.4205 138.762 25.8965V29.6345C138.762 30.0265 138.842 30.2925 139 30.4325C139.168 30.5725 139.444 30.6425 139.826 30.6425V30.9365C139.668 30.9272 139.425 30.9179 139.098 30.9085C138.772 30.8899 138.454 30.8805 138.146 30.8805C137.838 30.8805 137.535 30.8899 137.236 30.9085C136.947 30.9179 136.728 30.9272 136.578 30.9365V30.6425C136.914 30.6425 137.152 30.5725 137.292 30.4325C137.432 30.2925 137.502 30.0265 137.502 29.6345V25.5885C137.502 25.2992 137.479 25.0332 137.432 24.7905C137.386 24.5479 137.278 24.3519 137.11 24.2025C136.952 24.0532 136.704 23.9785 136.368 23.9785C135.976 23.9785 135.631 24.0905 135.332 24.3145C135.043 24.5385 134.814 24.8465 134.646 25.2385C134.488 25.6212 134.408 26.0505 134.408 26.5265V29.6345C134.408 30.0265 134.478 30.2925 134.618 30.4325C134.758 30.5725 134.996 30.6425 135.332 30.6425V30.9365C135.183 30.9272 134.959 30.9179 134.66 30.9085C134.371 30.8899 134.072 30.8805 133.764 30.8805C133.456 30.8805 133.139 30.8899 132.812 30.9085C132.486 30.9179 132.243 30.9272 132.084 30.9365V30.6425C132.467 30.6425 132.738 30.5725 132.896 30.4325C133.064 30.2925 133.148 30.0265 133.148 29.6345V25.2525C133.148 24.8325 133.074 24.5245 132.924 24.3285C132.775 24.1232 132.495 24.0205 132.084 24.0205V23.7265C132.383 23.7545 132.672 23.7685 132.952 23.7685C133.223 23.7685 133.48 23.7545 133.722 23.7265C133.974 23.6892 134.203 23.6379 134.408 23.5725V25.2245C134.651 24.5899 134.987 24.1512 135.416 23.9085C135.855 23.6565 136.312 23.5305 136.788 23.5305ZM146.738 23.5305C147.036 23.5305 147.326 23.5679 147.606 23.6425C147.886 23.7172 148.138 23.8292 148.362 23.9785C148.576 24.1185 148.74 24.2819 148.852 24.4685C148.964 24.6459 149.02 24.8419 149.02 25.0565C149.02 25.3085 148.95 25.5045 148.81 25.6445C148.67 25.7752 148.492 25.8405 148.278 25.8405C148.072 25.8405 147.89 25.7799 147.732 25.6585C147.582 25.5372 147.508 25.3645 147.508 25.1405C147.508 24.9259 147.564 24.7532 147.676 24.6225C147.797 24.4919 147.937 24.4079 148.096 24.3705C148.002 24.2025 147.834 24.0625 147.592 23.9505C147.358 23.8385 147.106 23.7825 146.836 23.7825C146.602 23.7825 146.369 23.8385 146.136 23.9505C145.902 24.0625 145.688 24.2492 145.492 24.5105C145.296 24.7625 145.137 25.1125 145.016 25.5605C144.894 25.9992 144.834 26.5499 144.834 27.2125C144.834 28.0339 144.927 28.6872 145.114 29.1725C145.3 29.6579 145.543 30.0079 145.842 30.2225C146.15 30.4279 146.486 30.5305 146.85 30.5305C147.092 30.5305 147.34 30.4839 147.592 30.3905C147.844 30.2972 148.082 30.1479 148.306 29.9425C148.53 29.7279 148.721 29.4432 148.88 29.0885L149.146 29.1865C149.052 29.4852 148.898 29.7885 148.684 30.0965C148.469 30.3952 148.189 30.6425 147.844 30.8385C147.498 31.0345 147.074 31.1325 146.57 31.1325C145.991 31.1325 145.468 30.9832 145.002 30.6845C144.535 30.3859 144.162 29.9612 143.882 29.4105C143.611 28.8505 143.476 28.1879 143.476 27.4225C143.476 26.6572 143.611 25.9852 143.882 25.4065C144.162 24.8185 144.549 24.3612 145.044 24.0345C145.538 23.6985 146.103 23.5305 146.738 23.5305ZM146.542 30.8525L146.178 31.9445C146.299 31.9165 146.43 31.8932 146.57 31.8745C146.71 31.8559 146.854 31.8465 147.004 31.8465C147.265 31.8465 147.47 31.9025 147.62 32.0145C147.778 32.1265 147.858 32.2899 147.858 32.5045C147.858 32.7659 147.769 32.9712 147.592 33.1205C147.424 33.2792 147.218 33.3912 146.976 33.4565C146.733 33.5312 146.5 33.5685 146.276 33.5685C146.014 33.5685 145.786 33.5499 145.59 33.5125C145.403 33.4845 145.244 33.4519 145.114 33.4145L145.17 33.1625C145.216 33.1719 145.286 33.1812 145.38 33.1905C145.482 33.1999 145.59 33.2045 145.702 33.2045C145.888 33.2045 146.075 33.1859 146.262 33.1485C146.458 33.1112 146.621 33.0459 146.752 32.9525C146.892 32.8685 146.962 32.7425 146.962 32.5745C146.962 32.3132 146.766 32.1825 146.374 32.1825C146.299 32.1825 146.192 32.1872 146.052 32.1965C145.912 32.2152 145.79 32.2432 145.688 32.2805L146.164 30.8525H146.542ZM154.834 31.0345C154.452 31.0345 154.12 30.9645 153.84 30.8245C153.56 30.6752 153.346 30.4699 153.196 30.2085C153.056 29.9472 152.986 29.6439 152.986 29.2985C152.986 28.8879 153.08 28.5519 153.266 28.2905C153.462 28.0292 153.71 27.8192 154.008 27.6605C154.307 27.5019 154.62 27.3712 154.946 27.2685C155.282 27.1565 155.6 27.0539 155.898 26.9605C156.197 26.8579 156.44 26.7412 156.626 26.6105C156.822 26.4799 156.92 26.3072 156.92 26.0925V25.2245C156.92 24.8325 156.86 24.5339 156.738 24.3285C156.626 24.1232 156.472 23.9879 156.276 23.9225C156.08 23.8479 155.861 23.8105 155.618 23.8105C155.385 23.8105 155.133 23.8432 154.862 23.9085C154.601 23.9739 154.391 24.1092 154.232 24.3145C154.41 24.3519 154.564 24.4452 154.694 24.5945C154.825 24.7439 154.89 24.9352 154.89 25.1685C154.89 25.4019 154.816 25.5885 154.666 25.7285C154.517 25.8592 154.326 25.9245 154.092 25.9245C153.822 25.9245 153.621 25.8405 153.49 25.6725C153.369 25.4952 153.308 25.2992 153.308 25.0845C153.308 24.8419 153.369 24.6459 153.49 24.4965C153.612 24.3472 153.766 24.2072 153.952 24.0765C154.167 23.9272 154.442 23.8012 154.778 23.6985C155.124 23.5865 155.511 23.5305 155.94 23.5305C156.323 23.5305 156.65 23.5772 156.92 23.6705C157.191 23.7545 157.415 23.8805 157.592 24.0485C157.835 24.2725 157.994 24.5479 158.068 24.8745C158.143 25.1919 158.18 25.5745 158.18 26.0225V29.9145C158.18 30.1479 158.213 30.3159 158.278 30.4185C158.353 30.5212 158.465 30.5725 158.614 30.5725C158.717 30.5725 158.815 30.5492 158.908 30.5025C159.002 30.4559 159.114 30.3812 159.244 30.2785L159.398 30.5165C159.202 30.6659 159.016 30.7919 158.838 30.8945C158.661 30.9879 158.423 31.0345 158.124 31.0345C157.854 31.0345 157.63 30.9879 157.452 30.8945C157.275 30.8012 157.14 30.6659 157.046 30.4885C156.962 30.3019 156.92 30.0685 156.92 29.7885C156.668 30.2085 156.365 30.5212 156.01 30.7265C155.665 30.9319 155.273 31.0345 154.834 31.0345ZM155.338 30.4745C155.646 30.4745 155.931 30.3859 156.192 30.2085C156.463 30.0312 156.706 29.7652 156.92 29.4105V26.6665C156.808 26.8252 156.645 26.9605 156.43 27.0725C156.216 27.1752 155.982 27.2825 155.73 27.3945C155.478 27.4972 155.236 27.6232 155.002 27.7725C154.778 27.9125 154.592 28.0992 154.442 28.3325C154.293 28.5659 154.218 28.8692 154.218 29.2425C154.218 29.6159 154.316 29.9145 154.512 30.1385C154.718 30.3625 154.993 30.4745 155.338 30.4745ZM165.125 23.5305C165.498 23.5305 165.816 23.5912 166.077 23.7125C166.338 23.8339 166.53 23.9459 166.651 24.0485C166.959 24.3005 167.146 24.1325 167.211 23.5445H167.533C167.514 23.8059 167.5 24.1185 167.491 24.4825C167.482 24.8372 167.477 25.3179 167.477 25.9245H167.155C167.099 25.5792 167.001 25.2432 166.861 24.9165C166.73 24.5899 166.534 24.3239 166.273 24.1185C166.012 23.9039 165.671 23.7965 165.251 23.7965C164.924 23.7965 164.649 23.8899 164.425 24.0765C164.21 24.2539 164.103 24.5199 164.103 24.8745C164.103 25.1545 164.187 25.3972 164.355 25.6025C164.523 25.7985 164.742 25.9852 165.013 26.1625C165.284 26.3305 165.578 26.5172 165.895 26.7225C166.25 26.9465 166.572 27.1752 166.861 27.4085C167.15 27.6419 167.379 27.8985 167.547 28.1785C167.724 28.4585 167.813 28.7899 167.813 29.1725C167.813 29.6019 167.701 29.9612 167.477 30.2505C167.253 30.5399 166.959 30.7592 166.595 30.9085C166.24 31.0579 165.848 31.1325 165.419 31.1325C165.214 31.1325 165.018 31.1139 164.831 31.0765C164.654 31.0485 164.481 31.0019 164.313 30.9365C164.22 30.8899 164.122 30.8339 164.019 30.7685C163.926 30.7032 163.832 30.6332 163.739 30.5585C163.646 30.4839 163.562 30.4885 163.487 30.5725C163.412 30.6472 163.356 30.8012 163.319 31.0345H162.997C163.016 30.7359 163.03 30.3719 163.039 29.9425C163.048 29.5132 163.053 28.9439 163.053 28.2345H163.375C163.44 28.7572 163.534 29.2145 163.655 29.6065C163.776 29.9985 163.968 30.3065 164.229 30.5305C164.49 30.7452 164.854 30.8525 165.321 30.8525C165.508 30.8525 165.694 30.8105 165.881 30.7265C166.077 30.6425 166.24 30.5025 166.371 30.3065C166.502 30.1105 166.567 29.8492 166.567 29.5225C166.567 29.1119 166.418 28.7759 166.119 28.5145C165.82 28.2532 165.442 27.9779 164.985 27.6885C164.649 27.4739 164.332 27.2592 164.033 27.0445C163.744 26.8299 163.506 26.5872 163.319 26.3165C163.142 26.0459 163.053 25.7192 163.053 25.3365C163.053 24.9165 163.146 24.5759 163.333 24.3145C163.529 24.0439 163.786 23.8479 164.103 23.7265C164.42 23.5959 164.761 23.5305 165.125 23.5305Z" fill="white"/>
</svg>
