<svg width="24" height="25" viewBox="0 0 24 25" fill="none" xmlns="http://www.w3.org/2000/svg">
<path d="M17.5 1.42063C16.9481 1.66181 16.355 1.82424 15.7325 1.89746C16.3681 1.52276 16.8563 0.92904 17.0856 0.22149C16.4913 0.5685 15.8325 0.820755 15.1313 0.95673C14.5707 0.367927 13.77 0 12.885 0C10.8981 0 9.4381 1.82485 9.8869 3.71923C7.33 3.59311 5.0625 2.38721 3.54437 0.554348C2.73812 1.91591 3.12625 3.69709 4.49625 4.59908C3.9925 4.58302 3.5175 4.44709 3.10313 4.22006C3.06938 5.62343 4.09125 6.93645 5.57125 7.22865C5.13812 7.34437 4.66375 7.37138 4.18125 7.28032C4.5725 8.48378 5.70875 9.35933 7.05625 9.38392C5.7625 10.3825 4.1325 10.8286 2.5 10.639C3.86187 11.4986 5.48 12 7.2175 12C12.9312 12 16.1594 7.24958 15.9644 2.98892C16.5656 2.56132 17.0875 2.02789 17.5 1.42063Z" fill="white"/>
</svg>
