<svg width="24" height="25" viewBox="0 0 24 25" fill="none" xmlns="http://www.w3.org/2000/svg">
<path d="M16.9963 4.93403C17.0322 3.6386 16.8047 2.35285 16.3349 1.19619C16.0161 0.721579 15.5737 0.401291 15.0848 0.291138C13.0624 0.0626408 11.0317 -0.0310135 9.00138 0.0105734C6.97837 -0.0329051 4.95497 0.0577266 2.93973 0.282088C2.5413 0.372339 2.17259 0.605054 1.87858 0.951823C1.22445 1.70301 1.15177 2.98818 1.07909 4.07424C0.973637 6.0269 0.973637 7.98623 1.07909 9.93896C1.10012 10.5502 1.1732 11.157 1.29713 11.7491C1.38477 12.2061 1.56207 12.629 1.81317 12.9799C2.10918 13.345 2.48647 13.591 2.89612 13.6859C4.46307 13.9267 6.04193 14.0265 7.62044 13.9845C10.1643 14.0298 12.3955 13.9845 15.0339 13.7311C15.4536 13.6421 15.8415 13.3958 16.146 13.0252C16.3494 12.7717 16.5014 12.4614 16.5893 12.1201C16.8492 11.1269 16.9768 10.0875 16.9672 9.04297C16.9963 8.53614 16.9963 5.47708 16.9963 4.93403ZM7.35875 9.586V3.98373L11.6614 6.79845C10.455 7.63109 8.86322 8.57234 7.35875 9.586Z" fill="white"/>
</svg>
