<svg width="62" height="61" viewBox="0 0 62 61" fill="none" xmlns="http://www.w3.org/2000/svg">
<g filter="url(#filter0_d_1_638)">
<path d="M2.84863 30.5376C2.84863 14.99 15.4524 2.38623 31 2.38623C46.5476 2.38623 59.1514 14.99 59.1514 30.5376C59.1514 46.0852 46.5476 58.689 31 58.689C15.4524 58.689 2.84863 46.0852 2.84863 30.5376Z" fill="#1C4140"/>
<g filter="url(#filter1_d_1_638)">
<path d="M44.225 16.9908C42.5572 15.3067 40.571 13.9714 38.382 13.0628C36.193 12.1541 33.8451 11.6901 31.475 11.698C21.5442 11.698 13.4504 19.7918 13.4504 29.7225C13.4504 32.9055 14.2871 35.9975 15.8513 38.7257L13.3049 48.0745L22.8538 45.5645C25.4911 47.0014 28.4558 47.7653 31.475 47.7653C41.4058 47.7653 49.4996 39.6715 49.4996 29.7407C49.4996 24.9208 47.6262 20.392 44.225 16.9908ZM31.475 44.7097C28.7831 44.7097 26.1458 43.9821 23.8359 42.618L23.2903 42.2906L17.6156 43.7821L19.1252 38.2528L18.7614 37.689C17.2655 35.301 16.4714 32.5404 16.4697 29.7225C16.4697 21.4651 23.1993 14.7354 31.4568 14.7354C35.4582 14.7354 39.2232 16.2996 42.0424 19.137C43.4386 20.5263 44.545 22.179 45.2974 23.9993C46.0499 25.8196 46.4334 27.7711 46.4258 29.7407C46.4621 37.9982 39.7325 44.7097 31.475 44.7097ZM39.6961 33.5057C39.2414 33.2874 37.0224 32.1961 36.6223 32.0325C36.204 31.8869 35.9129 31.8142 35.6037 32.2507C35.2945 32.7054 34.4397 33.724 34.1851 34.015C33.9304 34.3242 33.6576 34.3606 33.2029 34.1241C32.7482 33.9058 31.2931 33.4148 29.5834 31.8869C28.2375 30.6865 27.3463 29.2133 27.0734 28.7586C26.8188 28.3039 27.0371 28.0674 27.2735 27.831C27.4736 27.6309 27.7282 27.3035 27.9465 27.0489C28.1647 26.7942 28.2557 26.5942 28.4012 26.3032C28.5467 25.9939 28.4739 25.7393 28.3648 25.5211C28.2557 25.3028 27.3463 23.0838 26.9825 22.1744C26.6187 21.3014 26.2368 21.4105 25.964 21.3923H25.0909C24.7817 21.3923 24.3088 21.5014 23.8905 21.9562C23.4904 22.4109 22.3263 23.5022 22.3263 25.7211C22.3263 27.9401 23.9451 30.0863 24.1633 30.3773C24.3816 30.6865 27.3463 35.2336 31.857 37.1797C32.9301 37.6526 33.7667 37.9255 34.4215 38.1255C35.4946 38.4711 36.4768 38.4165 37.2589 38.3074C38.1319 38.1801 39.9325 37.2161 40.2963 36.1612C40.6783 35.1063 40.6783 34.215 40.551 34.015C40.4236 33.8149 40.1508 33.724 39.6961 33.5057Z" fill="white"/>
</g>
</g>
<defs>
<filter id="filter0_d_1_638" x="0.848633" y="0.38623" width="60.3027" height="60.3027" filterUnits="userSpaceOnUse" color-interpolation-filters="sRGB">
<feFlood flood-opacity="0" result="BackgroundImageFix"/>
<feColorMatrix in="SourceAlpha" type="matrix" values="0 0 0 0 0 0 0 0 0 0 0 0 0 0 0 0 0 0 127 0" result="hardAlpha"/>
<feOffset/>
<feGaussianBlur stdDeviation="1"/>
<feComposite in2="hardAlpha" operator="out"/>
<feColorMatrix type="matrix" values="0 0 0 0 1 0 0 0 0 1 0 0 0 0 1 0 0 0 0.5 0"/>
<feBlend mode="normal" in2="BackgroundImageFix" result="effect1_dropShadow_1_638"/>
<feBlend mode="normal" in="SourceGraphic" in2="effect1_dropShadow_1_638" result="shape"/>
</filter>
<filter id="filter1_d_1_638" x="9.30493" y="11.6979" width="44.1946" height="44.3766" filterUnits="userSpaceOnUse" color-interpolation-filters="sRGB">
<feFlood flood-opacity="0" result="BackgroundImageFix"/>
<feColorMatrix in="SourceAlpha" type="matrix" values="0 0 0 0 0 0 0 0 0 0 0 0 0 0 0 0 0 0 127 0" result="hardAlpha"/>
<feOffset dy="4"/>
<feGaussianBlur stdDeviation="2"/>
<feComposite in2="hardAlpha" operator="out"/>
<feColorMatrix type="matrix" values="0 0 0 0 0 0 0 0 0 0 0 0 0 0 0 0 0 0 0.25 0"/>
<feBlend mode="normal" in2="BackgroundImageFix" result="effect1_dropShadow_1_638"/>
<feBlend mode="normal" in="SourceGraphic" in2="effect1_dropShadow_1_638" result="shape"/>
</filter>
</defs>
</svg>
